<svg xmlns="http://www.w3.org/2000/svg" width="300" height="300" viewBox="0 0 300 300"><defs><radialGradient id="qr-g-6tu9bz.wh02" cx="0.5" cy="0.5" r="0.5" gradientUnits="objectBoundingBox"><stop offset="0" stop-color="#4f46e5"/><stop offset="1" stop-color="#3730a3"/></radialGradient></defs><path fill="#eef2ff" d="M0 0h300v300H0z"/><path fill="url(#qr-g-6tu9bz.wh02)" d="M5.172413793103448 0.5 L9.844827586206897 0.5 L9.844827586206897 5.172413793103448 L9.844827586206897 9.844827586206897 L5.172413793103448 9.844827586206897 L0.5 9.844827586206897 L0.5 5.172413793103448 L0.5 5.172413793103448 Q0.5 0.5 5.172413793103448 0.5M15.517241379310345 0.5 L20.189655172413794 0.5 L20.189655172413794 5.172413793103448 L20.189655172413794 9.844827586206897 L15.517241379310345 9.844827586206897 L10.844827586206897 9.844827586206897 L10.844827586206897 5.172413793103448 L10.844827586206897 0.5 L15.517241379310345 0.5M25.862068965517242 0.5 L30.53448275862069 0.5 L30.53448275862069 5.172413793103448 L30.53448275862069 9.844827586206897 L25.862068965517242 9.844827586206897 L21.189655172413794 9.844827586206897 L21.189655172413794 5.172413793103448 L21.189655172413794 0.5 L25.862068965517242 0.5M36.20689655172414 0.5 L40.87931034482759 0.5 L40.87931034482759 5.172413793103448 L40.87931034482759 9.844827586206897 L36.20689655172414 9.844827586206897 L31.53448275862069 9.844827586206897 L31.53448275862069 5.172413793103448 L31.53448275862069 0.5 L36.20689655172414 0.5M46.55172413793103 0.5 L51.224137931034484 0.5 L51.224137931034484 5.172413793103448 L51.224137931034484 9.844827586206897 L46.55172413793103 9.844827586206897 L41.87931034482759 9.844827586206897 L41.87931034482759 5.172413793103448 L41.87931034482759 0.5 L46.55172413793103 0.5M56.896551724137936 0.5 L61.56896551724138 0.5 L61.56896551724138 5.172413793103448 L61.56896551724138 9.844827586206897 L56.896551724137936 9.844827586206897 L52.224137931034484 9.844827586206897 L52.224137931034484 5.172413793103448 L52.224137931034484 0.5 L56.896551724137936 0.5M67.24137931034484 0.5 L67.24137931034484 0.5 Q71.91379310344828 0.5 71.91379310344828 5.172413793103448 L71.91379310344828 9.844827586206897 L67.24137931034483 9.844827586206897 L62.56896551724138 9.844827586206897 L62.56896551724138 5.172413793103448 L62.56896551724138 0.5 L67.24137931034484 0.5M87.93103448275862 5.172413793103448 m-4.672413793103448, 0 a4.672413793103448,4.672413793103448 0 1,0 9.344827586206897,0 a4.672413793103448,4.672413793103448 0 1,0 -9.344827586206897,0M108.62068965517241 5.172413793103448 m-4.672413793103448, 0 a4.672413793103448,4.672413793103448 0 1,0 9.344827586206897,0 a4.672413793103448,4.672413793103448 0 1,0 -9.344827586206897,0M129.31034482758622 5.172413793103448 m-4.672413793103448, 0 a4.672413793103448,4.672413793103448 0 1,0 9.344827586206897,0 a4.672413793103448,4.672413793103448 0 1,0 -9.344827586206897,0M160.34482758620692 5.172413793103448 m-4.672413793103448, 0 a4.672413793103448,4.672413793103448 0 1,0 9.344827586206897,0 a4.672413793103448,4.672413793103448 0 1,0 -9.344827586206897,0M191.3793103448276 5.172413793103448 m-4.672413793103448, 0 a4.672413793103448,4.672413793103448 0 1,0 9.344827586206897,0 a4.672413793103448,4.672413793103448 0 1,0 -9.344827586206897,0M212.0689655172414 5.172413793103448 m-4.672413793103448, 0 a4.672413793103448,4.672413793103448 0 1,0 9.344827586206897,0 a4.672413793103448,4.672413793103448 0 1,0 -9.344827586206897,0M232.75862068965517 0.5 L237.43103448275863 0.5 L237.43103448275863 5.172413793103448 L237.43103448275863 9.844827586206897 L232.7586206896552 9.844827586206897 L228.08620689655174 9.844827586206897 L228.08620689655174 5.172413793103448 L228.08620689655174 5.172413793103448 Q228.08620689655174 0.5 232.75862068965517 0.5M243.10344827586206 0.5 L247.77586206896552 0.5 L247.77586206896552 5.172413793103448 L247.77586206896552 9.844827586206897 L243.1034482758621 9.844827586206897 L238.43103448275863 9.844827586206897 L238.43103448275863 5.172413793103448 L238.43103448275863 0.5 L243.10344827586206 0.5M253.44827586206898 0.5 L258.12068965517244 0.5 L258.12068965517244 5.172413793103448 L258.12068965517244 9.844827586206897 L253.44827586206898 9.844827586206897 L248.77586206896552 9.844827586206897 L248.77586206896552 5.172413793103448 L248.77586206896552 0.5 L253.44827586206898 0.5M263.79310344827593 0.5 L268.46551724137936 0.5 L268.46551724137936 5.172413793103448 L268.46551724137936 9.844827586206897 L263.7931034482759 9.844827586206897 L259.12068965517244 9.844827586206897 L259.12068965517244 5.172413793103448 L259.12068965517244 0.5 L263.79310344827593 0.5M274.1379310344828 0.5 L278.8103448275862 0.5 L278.8103448275862 5.172413793103448 L278.8103448275862 9.844827586206897 L274.13793103448273 9.844827586206897 L269.4655172413793 9.844827586206897 L269.4655172413793 5.172413793103448 L269.4655172413793 0.5 L274.1379310344828 0.5M284.4827586206897 0.5 L289.15517241379314 0.5 L289.15517241379314 5.172413793103448 L289.15517241379314 9.844827586206897 L284.48275862068965 9.844827586206897 L279.8103448275862 9.844827586206897 L279.8103448275862 5.172413793103448 L279.8103448275862 0.5 L284.4827586206897 0.5M294.8275862068966 0.5 L294.8275862068966 0.5 Q299.50000000000006 0.5 299.50000000000006 5.172413793103448 L299.50000000000006 9.844827586206897 L294.82758620689657 9.844827586206897 L290.15517241379314 9.844827586206897 L290.15517241379314 5.172413793103448 L290.15517241379314 0.5 L294.8275862068966 0.5M5.172413793103448 10.844827586206897 L9.844827586206897 10.844827586206897 L9.844827586206897 15.517241379310345 L9.844827586206897 20.189655172413794 L5.172413793103448 20.189655172413794 L0.5 20.189655172413794 L0.5 15.517241379310345 L0.5 10.844827586206897 L5.172413793103448 10.844827586206897M67.24137931034484 10.844827586206897 L71.91379310344828 10.844827586206897 L71.91379310344828 15.517241379310345 L71.91379310344828 20.189655172413794 L67.24137931034483 20.189655172413794 L62.56896551724138 20.189655172413794 L62.56896551724138 15.517241379310345 L62.56896551724138 10.844827586206897 L67.24137931034484 10.844827586206897M87.93103448275862 15.517241379310345 m-4.672413793103448, 0 a4.672413793103448,4.672413793103448 0 1,0 9.344827586206897,0 a4.672413793103448,4.672413793103448 0 1,0 -9.344827586206897,0M98.27586206896551 15.517241379310345 m-4.672413793103448, 0 a4.672413793103448,4.672413793103448 0 1,0 9.344827586206897,0 a4.672413793103448,4.672413793103448 0 1,0 -9.344827586206897,0M118.96551724137932 15.517241379310345 m-4.672413793103448, 0 a4.672413793103448,4.672413793103448 0 1,0 9.344827586206897,0 a4.672413793103448,4.672413793103448 0 1,0 -9.344827586206897,0M129.31034482758622 15.517241379310345 m-4.672413793103448, 0 a4.672413793103448,4.672413793103448 0 1,0 9.344827586206897,0 a4.672413793103448,4.672413793103448 0 1,0 -9.344827586206897,0M139.6551724137931 15.517241379310345 m-4.672413793103448, 0 a4.672413793103448,4.672413793103448 0 1,0 9.344827586206897,0 a4.672413793103448,4.672413793103448 0 1,0 -9.344827586206897,0M150.00000000000003 15.517241379310345 m-4.672413793103448, 0 a4.672413793103448,4.672413793103448 0 1,0 9.344827586206897,0 a4.672413793103448,4.672413793103448 0 1,0 -9.344827586206897,0M191.3793103448276 15.517241379310345 m-4.672413793103448, 0 a4.672413793103448,4.672413793103448 0 1,0 9.344827586206897,0 a4.672413793103448,4.672413793103448 0 1,0 -9.344827586206897,0M201.7241379310345 15.517241379310345 m-4.672413793103448, 0 a4.672413793103448,4.672413793103448 0 1,0 9.344827586206897,0 a4.672413793103448,4.672413793103448 0 1,0 -9.344827586206897,0M232.75862068965517 10.844827586206897 L237.43103448275863 10.844827586206897 L237.43103448275863 15.517241379310345 L237.43103448275863 20.189655172413794 L232.7586206896552 20.189655172413794 L228.08620689655174 20.189655172413794 L228.08620689655174 15.517241379310345 L228.08620689655174 10.844827586206897 L232.75862068965517 10.844827586206897M294.8275862068966 10.844827586206897 L299.50000000000006 10.844827586206897 L299.50000000000006 15.517241379310345 L299.50000000000006 20.189655172413794 L294.82758620689657 20.189655172413794 L290.15517241379314 20.189655172413794 L290.15517241379314 15.517241379310345 L290.15517241379314 10.844827586206897 L294.8275862068966 10.844827586206897M5.172413793103448 21.189655172413794 L9.844827586206897 21.189655172413794 L9.844827586206897 25.862068965517242 L9.844827586206897 30.53448275862069 L5.172413793103448 30.53448275862069 L0.5 30.53448275862069 L0.5 25.862068965517242 L0.5 21.189655172413794 L5.172413793103448 21.189655172413794M25.862068965517242 21.189655172413794 L30.53448275862069 21.189655172413794 L30.53448275862069 25.862068965517242 L30.53448275862069 30.53448275862069 L25.862068965517242 30.53448275862069 L21.189655172413794 30.53448275862069 L21.189655172413794 25.862068965517242 L21.189655172413794 25.862068965517242 Q21.189655172413794 21.189655172413794 25.862068965517242 21.189655172413794M36.20689655172414 21.189655172413794 L40.87931034482759 21.189655172413794 L40.87931034482759 25.862068965517242 L40.87931034482759 30.53448275862069 L36.20689655172414 30.53448275862069 L31.53448275862069 30.53448275862069 L31.53448275862069 25.862068965517242 L31.53448275862069 21.189655172413794 L36.20689655172414 21.189655172413794M46.55172413793103 21.189655172413794 L46.55172413793103 21.189655172413794 Q51.224137931034484 21.189655172413794 51.224137931034484 25.862068965517242 L51.224137931034484 30.53448275862069 L46.55172413793103 30.53448275862069 L41.87931034482759 30.53448275862069 L41.87931034482759 25.862068965517242 L41.87931034482759 21.189655172413794 L46.55172413793103 21.189655172413794M67.24137931034484 21.189655172413794 L71.91379310344828 21.189655172413794 L71.91379310344828 25.862068965517242 L71.91379310344828 30.53448275862069 L67.24137931034483 30.53448275862069 L62.56896551724138 30.53448275862069 L62.56896551724138 25.862068965517242 L62.56896551724138 21.189655172413794 L67.24137931034484 21.189655172413794M87.93103448275862 25.862068965517242 m-4.672413793103448, 0 a4.672413793103448,4.672413793103448 0 1,0 9.344827586206897,0 a4.672413793103448,4.672413793103448 0 1,0 -9.344827586206897,0M98.27586206896551 25.862068965517242 m-4.672413793103448, 0 a4.672413793103448,4.672413793103448 0 1,0 9.344827586206897,0 a4.672413793103448,4.672413793103448 0 1,0 -9.344827586206897,0M108.62068965517241 25.862068965517242 m-4.672413793103448, 0 a4.672413793103448,4.672413793103448 0 1,0 9.344827586206897,0 a4.672413793103448,4.672413793103448 0 1,0 -9.344827586206897,0M129.31034482758622 25.862068965517242 m-4.672413793103448, 0 a4.672413793103448,4.672413793103448 0 1,0 9.344827586206897,0 a4.672413793103448,4.672413793103448 0 1,0 -9.344827586206897,0M139.6551724137931 25.862068965517242 m-4.672413793103448, 0 a4.672413793103448,4.672413793103448 0 1,0 9.344827586206897,0 a4.672413793103448,4.672413793103448 0 1,0 -9.344827586206897,0M201.7241379310345 25.862068965517242 m-4.672413793103448, 0 a4.672413793103448,4.672413793103448 0 1,0 9.344827586206897,0 a4.672413793103448,4.672413793103448 0 1,0 -9.344827586206897,0M212.0689655172414 25.862068965517242 m-4.672413793103448, 0 a4.672413793103448,4.672413793103448 0 1,0 9.344827586206897,0 a4.672413793103448,4.672413793103448 0 1,0 -9.344827586206897,0M232.75862068965517 21.189655172413794 L237.43103448275863 21.189655172413794 L237.43103448275863 25.862068965517242 L237.43103448275863 30.53448275862069 L232.7586206896552 30.53448275862069 L228.08620689655174 30.53448275862069 L228.08620689655174 25.862068965517242 L228.08620689655174 21.189655172413794 L232.75862068965517 21.189655172413794M253.44827586206898 21.189655172413794 L258.12068965517244 21.189655172413794 L258.12068965517244 25.862068965517242 L258.12068965517244 30.53448275862069 L253.44827586206898 30.53448275862069 L248.77586206896552 30.53448275862069 L248.77586206896552 25.862068965517242 L248.77586206896552 25.862068965517242 Q248.77586206896552 21.189655172413794 253.44827586206898 21.189655172413794M263.79310344827593 21.189655172413794 L268.46551724137936 21.189655172413794 L268.46551724137936 25.862068965517242 L268.46551724137936 30.53448275862069 L263.7931034482759 30.53448275862069 L259.12068965517244 30.53448275862069 L259.12068965517244 25.862068965517242 L259.12068965517244 21.189655172413794 L263.79310344827593 21.189655172413794M274.1379310344828 21.189655172413794 L274.1379310344828 21.189655172413794 Q278.8103448275862 21.189655172413794 278.8103448275862 25.862068965517242 L278.8103448275862 30.53448275862069 L274.13793103448273 30.53448275862069 L269.4655172413793 30.53448275862069 L269.4655172413793 25.862068965517242 L269.4655172413793 21.189655172413794 L274.1379310344828 21.189655172413794M294.8275862068966 21.189655172413794 L299.50000000000006 21.189655172413794 L299.50000000000006 25.862068965517242 L299.50000000000006 30.53448275862069 L294.82758620689657 30.53448275862069 L290.15517241379314 30.53448275862069 L290.15517241379314 25.862068965517242 L290.15517241379314 21.189655172413794 L294.8275862068966 21.189655172413794M5.172413793103448 31.53448275862069 L9.844827586206897 31.53448275862069 L9.844827586206897 36.20689655172414 L9.844827586206897 40.87931034482759 L5.172413793103448 40.87931034482759 L0.5 40.87931034482759 L0.5 36.20689655172414 L0.5 31.53448275862069 L5.172413793103448 31.53448275862069M25.862068965517242 31.53448275862069 L30.53448275862069 31.53448275862069 L30.53448275862069 36.20689655172414 L30.53448275862069 40.87931034482759 L25.862068965517242 40.87931034482759 L21.189655172413794 40.87931034482759 L21.189655172413794 36.20689655172414 L21.189655172413794 31.53448275862069 L25.862068965517242 31.53448275862069M36.20689655172414 31.53448275862069 L40.87931034482759 31.53448275862069 L40.87931034482759 36.20689655172414 L40.87931034482759 40.87931034482759 L36.20689655172414 40.87931034482759 L31.53448275862069 40.87931034482759 L31.53448275862069 36.20689655172414 L31.53448275862069 31.53448275862069 L36.20689655172414 31.53448275862069M46.55172413793103 31.53448275862069 L51.224137931034484 31.53448275862069 L51.224137931034484 36.20689655172414 L51.224137931034484 40.87931034482759 L46.55172413793103 40.87931034482759 L41.87931034482759 40.87931034482759 L41.87931034482759 36.20689655172414 L41.87931034482759 31.53448275862069 L46.55172413793103 31.53448275862069M67.24137931034484 31.53448275862069 L71.91379310344828 31.53448275862069 L71.91379310344828 36.20689655172414 L71.91379310344828 40.87931034482759 L67.24137931034483 40.87931034482759 L62.56896551724138 40.87931034482759 L62.56896551724138 36.20689655172414 L62.56896551724138 31.53448275862069 L67.24137931034484 31.53448275862069M98.27586206896551 36.20689655172414 m-4.672413793103448, 0 a4.672413793103448,4.672413793103448 0 1,0 9.344827586206897,0 a4.672413793103448,4.672413793103448 0 1,0 -9.344827586206897,0M118.96551724137932 36.20689655172414 m-4.672413793103448, 0 a4.672413793103448,4.672413793103448 0 1,0 9.344827586206897,0 a4.672413793103448,4.672413793103448 0 1,0 -9.344827586206897,0M139.6551724137931 36.20689655172414 m-4.672413793103448, 0 a4.672413793103448,4.672413793103448 0 1,0 9.344827586206897,0 a4.672413793103448,4.672413793103448 0 1,0 -9.344827586206897,0M160.34482758620692 36.20689655172414 m-4.672413793103448, 0 a4.672413793103448,4.672413793103448 0 1,0 9.344827586206897,0 a4.672413793103448,4.672413793103448 0 1,0 -9.344827586206897,0M170.6896551724138 36.20689655172414 m-4.672413793103448, 0 a4.672413793103448,4.672413793103448 0 1,0 9.344827586206897,0 a4.672413793103448,4.672413793103448 0 1,0 -9.344827586206897,0M181.0344827586207 36.20689655172414 m-4.672413793103448, 0 a4.672413793103448,4.672413793103448 0 1,0 9.344827586206897,0 a4.672413793103448,4.672413793103448 0 1,0 -9.344827586206897,0M201.7241379310345 36.20689655172414 m-4.672413793103448, 0 a4.672413793103448,4.672413793103448 0 1,0 9.344827586206897,0 a4.672413793103448,4.672413793103448 0 1,0 -9.344827586206897,0M232.75862068965517 31.53448275862069 L237.43103448275863 31.53448275862069 L237.43103448275863 36.20689655172414 L237.43103448275863 40.87931034482759 L232.7586206896552 40.87931034482759 L228.08620689655174 40.87931034482759 L228.08620689655174 36.20689655172414 L228.08620689655174 31.53448275862069 L232.75862068965517 31.53448275862069M253.44827586206898 31.53448275862069 L258.12068965517244 31.53448275862069 L258.12068965517244 36.20689655172414 L258.12068965517244 40.87931034482759 L253.44827586206898 40.87931034482759 L248.77586206896552 40.87931034482759 L248.77586206896552 36.20689655172414 L248.77586206896552 31.53448275862069 L253.44827586206898 31.53448275862069M263.79310344827593 31.53448275862069 L268.46551724137936 31.53448275862069 L268.46551724137936 36.20689655172414 L268.46551724137936 40.87931034482759 L263.7931034482759 40.87931034482759 L259.12068965517244 40.87931034482759 L259.12068965517244 36.20689655172414 L259.12068965517244 31.53448275862069 L263.79310344827593 31.53448275862069M274.1379310344828 31.53448275862069 L278.8103448275862 31.53448275862069 L278.8103448275862 36.20689655172414 L278.8103448275862 40.87931034482759 L274.13793103448273 40.87931034482759 L269.4655172413793 40.87931034482759 L269.4655172413793 36.20689655172414 L269.4655172413793 31.53448275862069 L274.1379310344828 31.53448275862069M294.8275862068966 31.53448275862069 L299.50000000000006 31.53448275862069 L299.50000000000006 36.20689655172414 L299.50000000000006 40.87931034482759 L294.82758620689657 40.87931034482759 L290.15517241379314 40.87931034482759 L290.15517241379314 36.20689655172414 L290.15517241379314 31.53448275862069 L294.8275862068966 31.53448275862069M5.172413793103448 41.87931034482759 L9.844827586206897 41.87931034482759 L9.844827586206897 46.55172413793103 L9.844827586206897 51.224137931034484 L5.172413793103448 51.224137931034484 L0.5 51.224137931034484 L0.5 46.55172413793103 L0.5 41.87931034482759 L5.172413793103448 41.87931034482759M25.862068965517242 41.87931034482759 L30.53448275862069 41.87931034482759 L30.53448275862069 46.55172413793103 L30.53448275862069 51.224137931034484 L25.862068965517242 51.224137931034484 L25.862068965517242 51.224137931034484 Q21.189655172413794 51.224137931034484 21.189655172413794 46.55172413793103 L21.189655172413794 41.87931034482759 L25.862068965517242 41.87931034482759M36.20689655172414 41.87931034482759 L40.87931034482759 41.87931034482759 L40.87931034482759 46.55172413793103 L40.87931034482759 51.224137931034484 L36.20689655172414 51.224137931034484 L31.53448275862069 51.224137931034484 L31.53448275862069 46.55172413793103 L31.53448275862069 41.87931034482759 L36.20689655172414 41.87931034482759M46.55172413793103 41.87931034482759 L51.224137931034484 41.87931034482759 L51.224137931034484 46.55172413793103 L51.224137931034484 46.55172413793103 Q51.224137931034484 51.224137931034484 46.55172413793103 51.224137931034484 L41.87931034482759 51.224137931034484 L41.87931034482759 46.55172413793103 L41.87931034482759 41.87931034482759 L46.55172413793103 41.87931034482759M67.24137931034484 41.87931034482759 L71.91379310344828 41.87931034482759 L71.91379310344828 46.55172413793103 L71.91379310344828 51.224137931034484 L67.24137931034483 51.224137931034484 L62.56896551724138 51.224137931034484 L62.56896551724138 46.55172413793103 L62.56896551724138 41.87931034482759 L67.24137931034484 41.87931034482759M98.27586206896551 46.55172413793103 m-4.672413793103448, 0 a4.672413793103448,4.672413793103448 0 1,0 9.344827586206897,0 a4.672413793103448,4.672413793103448 0 1,0 -9.344827586206897,0M139.6551724137931 46.55172413793103 m-4.672413793103448, 0 a4.672413793103448,4.672413793103448 0 1,0 9.344827586206897,0 a4.672413793103448,4.672413793103448 0 1,0 -9.344827586206897,0M150.00000000000003 46.55172413793103 m-4.672413793103448, 0 a4.672413793103448,4.672413793103448 0 1,0 9.344827586206897,0 a4.672413793103448,4.672413793103448 0 1,0 -9.344827586206897,0M170.6896551724138 46.55172413793103 m-4.672413793103448, 0 a4.672413793103448,4.672413793103448 0 1,0 9.344827586206897,0 a4.672413793103448,4.672413793103448 0 1,0 -9.344827586206897,0M191.3793103448276 46.55172413793103 m-4.672413793103448, 0 a4.672413793103448,4.672413793103448 0 1,0 9.344827586206897,0 a4.672413793103448,4.672413793103448 0 1,0 -9.344827586206897,0M201.7241379310345 46.55172413793103 m-4.672413793103448, 0 a4.672413793103448,4.672413793103448 0 1,0 9.344827586206897,0 a4.672413793103448,4.672413793103448 0 1,0 -9.344827586206897,0M212.0689655172414 46.55172413793103 m-4.672413793103448, 0 a4.672413793103448,4.672413793103448 0 1,0 9.344827586206897,0 a4.672413793103448,4.672413793103448 0 1,0 -9.344827586206897,0M232.75862068965517 41.87931034482759 L237.43103448275863 41.87931034482759 L237.43103448275863 46.55172413793103 L237.43103448275863 51.224137931034484 L232.7586206896552 51.224137931034484 L228.08620689655174 51.224137931034484 L228.08620689655174 46.55172413793103 L228.08620689655174 41.87931034482759 L232.75862068965517 41.87931034482759M253.44827586206898 41.87931034482759 L258.12068965517244 41.87931034482759 L258.12068965517244 46.55172413793103 L258.12068965517244 51.224137931034484 L253.44827586206898 51.224137931034484 L253.44827586206898 51.224137931034484 Q248.77586206896552 51.224137931034484 248.77586206896552 46.55172413793103 L248.77586206896552 41.87931034482759 L253.44827586206898 41.87931034482759M263.79310344827593 41.87931034482759 L268.46551724137936 41.87931034482759 L268.46551724137936 46.55172413793103 L268.46551724137936 51.224137931034484 L263.7931034482759 51.224137931034484 L259.12068965517244 51.224137931034484 L259.12068965517244 46.55172413793103 L259.12068965517244 41.87931034482759 L263.79310344827593 41.87931034482759M274.1379310344828 41.87931034482759 L278.8103448275862 41.87931034482759 L278.8103448275862 46.55172413793103 L278.8103448275862 46.55172413793103 Q278.8103448275862 51.224137931034484 274.13793103448273 51.224137931034484 L269.4655172413793 51.224137931034484 L269.4655172413793 46.55172413793103 L269.4655172413793 41.87931034482759 L274.1379310344828 41.87931034482759M294.8275862068966 41.87931034482759 L299.50000000000006 41.87931034482759 L299.50000000000006 46.55172413793103 L299.50000000000006 51.224137931034484 L294.82758620689657 51.224137931034484 L290.15517241379314 51.224137931034484 L290.15517241379314 46.55172413793103 L290.15517241379314 41.87931034482759 L294.8275862068966 41.87931034482759M5.172413793103448 52.224137931034484 L9.844827586206897 52.224137931034484 L9.844827586206897 56.896551724137936 L9.844827586206897 61.56896551724138 L5.172413793103448 61.56896551724138 L0.5 61.56896551724138 L0.5 56.896551724137936 L0.5 52.224137931034484 L5.172413793103448 52.224137931034484M67.24137931034484 52.224137931034484 L71.91379310344828 52.224137931034484 L71.91379310344828 56.896551724137936 L71.91379310344828 61.56896551724138 L67.24137931034483 61.56896551724138 L62.56896551724138 61.56896551724138 L62.56896551724138 56.896551724137936 L62.56896551724138 52.224137931034484 L67.24137931034484 52.224137931034484M87.93103448275862 56.896551724137936 m-4.672413793103448, 0 a4.672413793103448,4.672413793103448 0 1,0 9.344827586206897,0 a4.672413793103448,4.672413793103448 0 1,0 -9.344827586206897,0M139.6551724137931 56.896551724137936 m-4.672413793103448, 0 a4.672413793103448,4.672413793103448 0 1,0 9.344827586206897,0 a4.672413793103448,4.672413793103448 0 1,0 -9.344827586206897,0M150.00000000000003 56.896551724137936 m-4.672413793103448, 0 a4.672413793103448,4.672413793103448 0 1,0 9.344827586206897,0 a4.672413793103448,4.672413793103448 0 1,0 -9.344827586206897,0M160.34482758620692 56.896551724137936 m-4.672413793103448, 0 a4.672413793103448,4.672413793103448 0 1,0 9.344827586206897,0 a4.672413793103448,4.672413793103448 0 1,0 -9.344827586206897,0M191.3793103448276 56.896551724137936 m-4.672413793103448, 0 a4.672413793103448,4.672413793103448 0 1,0 9.344827586206897,0 a4.672413793103448,4.672413793103448 0 1,0 -9.344827586206897,0M212.0689655172414 56.896551724137936 m-4.672413793103448, 0 a4.672413793103448,4.672413793103448 0 1,0 9.344827586206897,0 a4.672413793103448,4.672413793103448 0 1,0 -9.344827586206897,0M232.75862068965517 52.224137931034484 L237.43103448275863 52.224137931034484 L237.43103448275863 56.896551724137936 L237.43103448275863 61.56896551724138 L232.7586206896552 61.56896551724138 L228.08620689655174 61.56896551724138 L228.08620689655174 56.896551724137936 L228.08620689655174 52.224137931034484 L232.75862068965517 52.224137931034484M294.8275862068966 52.224137931034484 L299.50000000000006 52.224137931034484 L299.50000000000006 56.896551724137936 L299.50000000000006 61.56896551724138 L294.82758620689657 61.56896551724138 L290.15517241379314 61.56896551724138 L290.15517241379314 56.896551724137936 L290.15517241379314 52.224137931034484 L294.8275862068966 52.224137931034484M5.172413793103448 62.56896551724138 L9.844827586206897 62.56896551724138 L9.844827586206897 67.24137931034484 L9.844827586206897 71.91379310344828 L5.172413793103448 71.91379310344828 L5.172413793103448 71.91379310344828 Q0.5 71.91379310344828 0.5 67.24137931034483 L0.5 62.56896551724138 L5.172413793103448 62.56896551724138M15.517241379310345 62.56896551724138 L20.189655172413794 62.56896551724138 L20.189655172413794 67.24137931034484 L20.189655172413794 71.91379310344828 L15.517241379310345 71.91379310344828 L10.844827586206897 71.91379310344828 L10.844827586206897 67.24137931034483 L10.844827586206897 62.56896551724138 L15.517241379310345 62.56896551724138M25.862068965517242 62.56896551724138 L30.53448275862069 62.56896551724138 L30.53448275862069 67.24137931034484 L30.53448275862069 71.91379310344828 L25.862068965517242 71.91379310344828 L21.189655172413794 71.91379310344828 L21.189655172413794 67.24137931034483 L21.189655172413794 62.56896551724138 L25.862068965517242 62.56896551724138M36.20689655172414 62.56896551724138 L40.87931034482759 62.56896551724138 L40.87931034482759 67.24137931034484 L40.87931034482759 71.91379310344828 L36.20689655172414 71.91379310344828 L31.53448275862069 71.91379310344828 L31.53448275862069 67.24137931034483 L31.53448275862069 62.56896551724138 L36.20689655172414 62.56896551724138M46.55172413793103 62.56896551724138 L51.224137931034484 62.56896551724138 L51.224137931034484 67.24137931034484 L51.224137931034484 71.91379310344828 L46.55172413793103 71.91379310344828 L41.87931034482759 71.91379310344828 L41.87931034482759 67.24137931034483 L41.87931034482759 62.56896551724138 L46.55172413793103 62.56896551724138M56.896551724137936 62.56896551724138 L61.56896551724138 62.56896551724138 L61.56896551724138 67.24137931034484 L61.56896551724138 71.91379310344828 L56.896551724137936 71.91379310344828 L52.224137931034484 71.91379310344828 L52.224137931034484 67.24137931034483 L52.224137931034484 62.56896551724138 L56.896551724137936 62.56896551724138M67.24137931034484 62.56896551724138 L71.91379310344828 62.56896551724138 L71.91379310344828 67.24137931034484 L71.91379310344828 67.24137931034484 Q71.91379310344828 71.91379310344828 67.24137931034483 71.91379310344828 L62.56896551724138 71.91379310344828 L62.56896551724138 67.24137931034483 L62.56896551724138 62.56896551724138 L67.24137931034484 62.56896551724138M87.93103448275862 67.24137931034483 m-4.672413793103448, 0 a4.672413793103448,4.672413793103448 0 1,0 9.344827586206897,0 a4.672413793103448,4.672413793103448 0 1,0 -9.344827586206897,0M108.62068965517241 67.24137931034483 m-4.672413793103448, 0 a4.672413793103448,4.672413793103448 0 1,0 9.344827586206897,0 a4.672413793103448,4.672413793103448 0 1,0 -9.344827586206897,0M129.31034482758622 67.24137931034483 m-4.672413793103448, 0 a4.672413793103448,4.672413793103448 0 1,0 9.344827586206897,0 a4.672413793103448,4.672413793103448 0 1,0 -9.344827586206897,0M150.00000000000003 67.24137931034483 m-4.672413793103448, 0 a4.672413793103448,4.672413793103448 0 1,0 9.344827586206897,0 a4.672413793103448,4.672413793103448 0 1,0 -9.344827586206897,0M170.6896551724138 67.24137931034483 m-4.672413793103448, 0 a4.672413793103448,4.672413793103448 0 1,0 9.344827586206897,0 a4.672413793103448,4.672413793103448 0 1,0 -9.344827586206897,0M191.3793103448276 67.24137931034483 m-4.672413793103448, 0 a4.672413793103448,4.672413793103448 0 1,0 9.344827586206897,0 a4.672413793103448,4.672413793103448 0 1,0 -9.344827586206897,0M212.0689655172414 67.24137931034483 m-4.672413793103448, 0 a4.672413793103448,4.672413793103448 0 1,0 9.344827586206897,0 a4.672413793103448,4.672413793103448 0 1,0 -9.344827586206897,0M232.75862068965517 62.56896551724138 L237.43103448275863 62.56896551724138 L237.43103448275863 67.24137931034484 L237.43103448275863 71.91379310344828 L232.7586206896552 71.91379310344828 L232.7586206896552 71.91379310344828 Q228.08620689655174 71.91379310344828 228.08620689655174 67.24137931034483 L228.08620689655174 62.56896551724138 L232.75862068965517 62.56896551724138M243.10344827586206 62.56896551724138 L247.77586206896552 62.56896551724138 L247.77586206896552 67.24137931034484 L247.77586206896552 71.91379310344828 L243.1034482758621 71.91379310344828 L238.43103448275863 71.91379310344828 L238.43103448275863 67.24137931034483 L238.43103448275863 62.56896551724138 L243.10344827586206 62.56896551724138M253.44827586206898 62.56896551724138 L258.12068965517244 62.56896551724138 L258.12068965517244 67.24137931034484 L258.12068965517244 71.91379310344828 L253.44827586206898 71.91379310344828 L248.77586206896552 71.91379310344828 L248.77586206896552 67.24137931034483 L248.77586206896552 62.56896551724138 L253.44827586206898 62.56896551724138M263.79310344827593 62.56896551724138 L268.46551724137936 62.56896551724138 L268.46551724137936 67.24137931034484 L268.46551724137936 71.91379310344828 L263.7931034482759 71.91379310344828 L259.12068965517244 71.91379310344828 L259.12068965517244 67.24137931034483 L259.12068965517244 62.56896551724138 L263.79310344827593 62.56896551724138M274.1379310344828 62.56896551724138 L278.8103448275862 62.56896551724138 L278.8103448275862 67.24137931034484 L278.8103448275862 71.91379310344828 L274.13793103448273 71.91379310344828 L269.4655172413793 71.91379310344828 L269.4655172413793 67.24137931034483 L269.4655172413793 62.56896551724138 L274.1379310344828 62.56896551724138M284.4827586206897 62.56896551724138 L289.15517241379314 62.56896551724138 L289.15517241379314 67.24137931034484 L289.15517241379314 71.91379310344828 L284.48275862068965 71.91379310344828 L279.8103448275862 71.91379310344828 L279.8103448275862 67.24137931034483 L279.8103448275862 62.56896551724138 L284.4827586206897 62.56896551724138M294.8275862068966 62.56896551724138 L299.50000000000006 62.56896551724138 L299.50000000000006 67.24137931034484 L299.50000000000006 67.24137931034484 Q299.50000000000006 71.91379310344828 294.82758620689657 71.91379310344828 L290.15517241379314 71.91379310344828 L290.15517241379314 67.24137931034483 L290.15517241379314 62.56896551724138 L294.8275862068966 62.56896551724138M87.93103448275862 77.58620689655173 m-4.672413793103448, 0 a4.672413793103448,4.672413793103448 0 1,0 9.344827586206897,0 a4.672413793103448,4.672413793103448 0 1,0 -9.344827586206897,0M129.31034482758622 77.58620689655173 m-4.672413793103448, 0 a4.672413793103448,4.672413793103448 0 1,0 9.344827586206897,0 a4.672413793103448,4.672413793103448 0 1,0 -9.344827586206897,0M160.34482758620692 77.58620689655173 m-4.672413793103448, 0 a4.672413793103448,4.672413793103448 0 1,0 9.344827586206897,0 a4.672413793103448,4.672413793103448 0 1,0 -9.344827586206897,0M212.0689655172414 77.58620689655173 m-4.672413793103448, 0 a4.672413793103448,4.672413793103448 0 1,0 9.344827586206897,0 a4.672413793103448,4.672413793103448 0 1,0 -9.344827586206897,0M25.862068965517242 87.93103448275862 m-4.672413793103448, 0 a4.672413793103448,4.672413793103448 0 1,0 9.344827586206897,0 a4.672413793103448,4.672413793103448 0 1,0 -9.344827586206897,0M36.20689655172414 87.93103448275862 m-4.672413793103448, 0 a4.672413793103448,4.672413793103448 0 1,0 9.344827586206897,0 a4.672413793103448,4.672413793103448 0 1,0 -9.344827586206897,0M46.55172413793103 87.93103448275862 m-4.672413793103448, 0 a4.672413793103448,4.672413793103448 0 1,0 9.344827586206897,0 a4.672413793103448,4.672413793103448 0 1,0 -9.344827586206897,0M67.24137931034483 87.93103448275862 m-4.672413793103448, 0 a4.672413793103448,4.672413793103448 0 1,0 9.344827586206897,0 a4.672413793103448,4.672413793103448 0 1,0 -9.344827586206897,0M87.93103448275862 87.93103448275862 m-4.672413793103448, 0 a4.672413793103448,4.672413793103448 0 1,0 9.344827586206897,0 a4.672413793103448,4.672413793103448 0 1,0 -9.344827586206897,0M118.96551724137932 87.93103448275862 m-4.672413793103448, 0 a4.672413793103448,4.672413793103448 0 1,0 9.344827586206897,0 a4.672413793103448,4.672413793103448 0 1,0 -9.344827586206897,0M139.6551724137931 87.93103448275862 m-4.672413793103448, 0 a4.672413793103448,4.672413793103448 0 1,0 9.344827586206897,0 a4.672413793103448,4.672413793103448 0 1,0 -9.344827586206897,0M150.00000000000003 87.93103448275862 m-4.672413793103448, 0 a4.672413793103448,4.672413793103448 0 1,0 9.344827586206897,0 a4.672413793103448,4.672413793103448 0 1,0 -9.344827586206897,0M191.3793103448276 87.93103448275862 m-4.672413793103448, 0 a4.672413793103448,4.672413793103448 0 1,0 9.344827586206897,0 a4.672413793103448,4.672413793103448 0 1,0 -9.344827586206897,0M212.0689655172414 87.93103448275862 m-4.672413793103448, 0 a4.672413793103448,4.672413793103448 0 1,0 9.344827586206897,0 a4.672413793103448,4.672413793103448 0 1,0 -9.344827586206897,0M222.41379310344828 87.93103448275862 m-4.672413793103448, 0 a4.672413793103448,4.672413793103448 0 1,0 9.344827586206897,0 a4.672413793103448,4.672413793103448 0 1,0 -9.344827586206897,0M232.7586206896552 87.93103448275862 m-4.672413793103448, 0 a4.672413793103448,4.672413793103448 0 1,0 9.344827586206897,0 a4.672413793103448,4.672413793103448 0 1,0 -9.344827586206897,0M243.1034482758621 87.93103448275862 m-4.672413793103448, 0 a4.672413793103448,4.672413793103448 0 1,0 9.344827586206897,0 a4.672413793103448,4.672413793103448 0 1,0 -9.344827586206897,0M274.13793103448273 87.93103448275862 m-4.672413793103448, 0 a4.672413793103448,4.672413793103448 0 1,0 9.344827586206897,0 a4.672413793103448,4.672413793103448 0 1,0 -9.344827586206897,0M284.48275862068965 87.93103448275862 m-4.672413793103448, 0 a4.672413793103448,4.672413793103448 0 1,0 9.344827586206897,0 a4.672413793103448,4.672413793103448 0 1,0 -9.344827586206897,0M294.82758620689657 87.93103448275862 m-4.672413793103448, 0 a4.672413793103448,4.672413793103448 0 1,0 9.344827586206897,0 a4.672413793103448,4.672413793103448 0 1,0 -9.344827586206897,0M25.862068965517242 98.27586206896551 m-4.672413793103448, 0 a4.672413793103448,4.672413793103448 0 1,0 9.344827586206897,0 a4.672413793103448,4.672413793103448 0 1,0 -9.344827586206897,0M36.20689655172414 98.27586206896551 m-4.672413793103448, 0 a4.672413793103448,4.672413793103448 0 1,0 9.344827586206897,0 a4.672413793103448,4.672413793103448 0 1,0 -9.344827586206897,0M46.55172413793103 98.27586206896551 m-4.672413793103448, 0 a4.672413793103448,4.672413793103448 0 1,0 9.344827586206897,0 a4.672413793103448,4.672413793103448 0 1,0 -9.344827586206897,0M87.93103448275862 98.27586206896551 m-4.672413793103448, 0 a4.672413793103448,4.672413793103448 0 1,0 9.344827586206897,0 a4.672413793103448,4.672413793103448 0 1,0 -9.344827586206897,0M98.27586206896551 98.27586206896551 m-4.672413793103448, 0 a4.672413793103448,4.672413793103448 0 1,0 9.344827586206897,0 a4.672413793103448,4.672413793103448 0 1,0 -9.344827586206897,0M108.62068965517241 98.27586206896551 m-4.672413793103448, 0 a4.672413793103448,4.672413793103448 0 1,0 9.344827586206897,0 a4.672413793103448,4.672413793103448 0 1,0 -9.344827586206897,0M118.96551724137932 98.27586206896551 m-4.672413793103448, 0 a4.672413793103448,4.672413793103448 0 1,0 9.344827586206897,0 a4.672413793103448,4.672413793103448 0 1,0 -9.344827586206897,0M139.6551724137931 98.27586206896551 m-4.672413793103448, 0 a4.672413793103448,4.672413793103448 0 1,0 9.344827586206897,0 a4.672413793103448,4.672413793103448 0 1,0 -9.344827586206897,0M150.00000000000003 98.27586206896551 m-4.672413793103448, 0 a4.672413793103448,4.672413793103448 0 1,0 9.344827586206897,0 a4.672413793103448,4.672413793103448 0 1,0 -9.344827586206897,0M160.34482758620692 98.27586206896551 m-4.672413793103448, 0 a4.672413793103448,4.672413793103448 0 1,0 9.344827586206897,0 a4.672413793103448,4.672413793103448 0 1,0 -9.344827586206897,0M181.0344827586207 98.27586206896551 m-4.672413793103448, 0 a4.672413793103448,4.672413793103448 0 1,0 9.344827586206897,0 a4.672413793103448,4.672413793103448 0 1,0 -9.344827586206897,0M222.41379310344828 98.27586206896551 m-4.672413793103448, 0 a4.672413793103448,4.672413793103448 0 1,0 9.344827586206897,0 a4.672413793103448,4.672413793103448 0 1,0 -9.344827586206897,0M232.7586206896552 98.27586206896551 m-4.672413793103448, 0 a4.672413793103448,4.672413793103448 0 1,0 9.344827586206897,0 a4.672413793103448,4.672413793103448 0 1,0 -9.344827586206897,0M243.1034482758621 98.27586206896551 m-4.672413793103448, 0 a4.672413793103448,4.672413793103448 0 1,0 9.344827586206897,0 a4.672413793103448,4.672413793103448 0 1,0 -9.344827586206897,0M253.44827586206898 98.27586206896551 m-4.672413793103448, 0 a4.672413793103448,4.672413793103448 0 1,0 9.344827586206897,0 a4.672413793103448,4.672413793103448 0 1,0 -9.344827586206897,0M263.7931034482759 98.27586206896551 m-4.672413793103448, 0 a4.672413793103448,4.672413793103448 0 1,0 9.344827586206897,0 a4.672413793103448,4.672413793103448 0 1,0 -9.344827586206897,0M294.82758620689657 98.27586206896551 m-4.672413793103448, 0 a4.672413793103448,4.672413793103448 0 1,0 9.344827586206897,0 a4.672413793103448,4.672413793103448 0 1,0 -9.344827586206897,0M5.172413793103448 108.62068965517241 m-4.672413793103448, 0 a4.672413793103448,4.672413793103448 0 1,0 9.344827586206897,0 a4.672413793103448,4.672413793103448 0 1,0 -9.344827586206897,0M15.517241379310345 108.62068965517241 m-4.672413793103448, 0 a4.672413793103448,4.672413793103448 0 1,0 9.344827586206897,0 a4.672413793103448,4.672413793103448 0 1,0 -9.344827586206897,0M25.862068965517242 108.62068965517241 m-4.672413793103448, 0 a4.672413793103448,4.672413793103448 0 1,0 9.344827586206897,0 a4.672413793103448,4.672413793103448 0 1,0 -9.344827586206897,0M36.20689655172414 108.62068965517241 m-4.672413793103448, 0 a4.672413793103448,4.672413793103448 0 1,0 9.344827586206897,0 a4.672413793103448,4.672413793103448 0 1,0 -9.344827586206897,0M46.55172413793103 108.62068965517241 m-4.672413793103448, 0 a4.672413793103448,4.672413793103448 0 1,0 9.344827586206897,0 a4.672413793103448,4.672413793103448 0 1,0 -9.344827586206897,0M67.24137931034483 108.62068965517241 m-4.672413793103448, 0 a4.672413793103448,4.672413793103448 0 1,0 9.344827586206897,0 a4.672413793103448,4.672413793103448 0 1,0 -9.344827586206897,0M118.96551724137932 108.62068965517241 m-4.672413793103448, 0 a4.672413793103448,4.672413793103448 0 1,0 9.344827586206897,0 a4.672413793103448,4.672413793103448 0 1,0 -9.344827586206897,0M160.34482758620692 108.62068965517241 m-4.672413793103448, 0 a4.672413793103448,4.672413793103448 0 1,0 9.344827586206897,0 a4.672413793103448,4.672413793103448 0 1,0 -9.344827586206897,0M191.3793103448276 108.62068965517241 m-4.672413793103448, 0 a4.672413793103448,4.672413793103448 0 1,0 9.344827586206897,0 a4.672413793103448,4.672413793103448 0 1,0 -9.344827586206897,0M212.0689655172414 108.62068965517241 m-4.672413793103448, 0 a4.672413793103448,4.672413793103448 0 1,0 9.344827586206897,0 a4.672413793103448,4.672413793103448 0 1,0 -9.344827586206897,0M222.41379310344828 108.62068965517241 m-4.672413793103448, 0 a4.672413793103448,4.672413793103448 0 1,0 9.344827586206897,0 a4.672413793103448,4.672413793103448 0 1,0 -9.344827586206897,0M232.7586206896552 108.62068965517241 m-4.672413793103448, 0 a4.672413793103448,4.672413793103448 0 1,0 9.344827586206897,0 a4.672413793103448,4.672413793103448 0 1,0 -9.344827586206897,0M243.1034482758621 108.62068965517241 m-4.672413793103448, 0 a4.672413793103448,4.672413793103448 0 1,0 9.344827586206897,0 a4.672413793103448,4.672413793103448 0 1,0 -9.344827586206897,0M5.172413793103448 118.96551724137932 m-4.672413793103448, 0 a4.672413793103448,4.672413793103448 0 1,0 9.344827586206897,0 a4.672413793103448,4.672413793103448 0 1,0 -9.344827586206897,0M15.517241379310345 118.96551724137932 m-4.672413793103448, 0 a4.672413793103448,4.672413793103448 0 1,0 9.344827586206897,0 a4.672413793103448,4.672413793103448 0 1,0 -9.344827586206897,0M25.862068965517242 118.96551724137932 m-4.672413793103448, 0 a4.672413793103448,4.672413793103448 0 1,0 9.344827586206897,0 a4.672413793103448,4.672413793103448 0 1,0 -9.344827586206897,0M36.20689655172414 118.96551724137932 m-4.672413793103448, 0 a4.672413793103448,4.672413793103448 0 1,0 9.344827586206897,0 a4.672413793103448,4.672413793103448 0 1,0 -9.344827586206897,0M46.55172413793103 118.96551724137932 m-4.672413793103448, 0 a4.672413793103448,4.672413793103448 0 1,0 9.344827586206897,0 a4.672413793103448,4.672413793103448 0 1,0 -9.344827586206897,0M56.896551724137936 118.96551724137932 m-4.672413793103448, 0 a4.672413793103448,4.672413793103448 0 1,0 9.344827586206897,0 a4.672413793103448,4.672413793103448 0 1,0 -9.344827586206897,0M77.58620689655173 118.96551724137932 m-4.672413793103448, 0 a4.672413793103448,4.672413793103448 0 1,0 9.344827586206897,0 a4.672413793103448,4.672413793103448 0 1,0 -9.344827586206897,0M98.27586206896551 118.96551724137932 m-4.672413793103448, 0 a4.672413793103448,4.672413793103448 0 1,0 9.344827586206897,0 a4.672413793103448,4.672413793103448 0 1,0 -9.344827586206897,0M191.3793103448276 118.96551724137932 m-4.672413793103448, 0 a4.672413793103448,4.672413793103448 0 1,0 9.344827586206897,0 a4.672413793103448,4.672413793103448 0 1,0 -9.344827586206897,0M222.41379310344828 118.96551724137932 m-4.672413793103448, 0 a4.672413793103448,4.672413793103448 0 1,0 9.344827586206897,0 a4.672413793103448,4.672413793103448 0 1,0 -9.344827586206897,0M232.7586206896552 118.96551724137932 m-4.672413793103448, 0 a4.672413793103448,4.672413793103448 0 1,0 9.344827586206897,0 a4.672413793103448,4.672413793103448 0 1,0 -9.344827586206897,0M243.1034482758621 118.96551724137932 m-4.672413793103448, 0 a4.672413793103448,4.672413793103448 0 1,0 9.344827586206897,0 a4.672413793103448,4.672413793103448 0 1,0 -9.344827586206897,0M263.7931034482759 118.96551724137932 m-4.672413793103448, 0 a4.672413793103448,4.672413793103448 0 1,0 9.344827586206897,0 a4.672413793103448,4.672413793103448 0 1,0 -9.344827586206897,0M284.48275862068965 118.96551724137932 m-4.672413793103448, 0 a4.672413793103448,4.672413793103448 0 1,0 9.344827586206897,0 a4.672413793103448,4.672413793103448 0 1,0 -9.344827586206897,0M5.172413793103448 129.31034482758622 m-4.672413793103448, 0 a4.672413793103448,4.672413793103448 0 1,0 9.344827586206897,0 a4.672413793103448,4.672413793103448 0 1,0 -9.344827586206897,0M25.862068965517242 129.31034482758622 m-4.672413793103448, 0 a4.672413793103448,4.672413793103448 0 1,0 9.344827586206897,0 a4.672413793103448,4.672413793103448 0 1,0 -9.344827586206897,0M46.55172413793103 129.31034482758622 m-4.672413793103448, 0 a4.672413793103448,4.672413793103448 0 1,0 9.344827586206897,0 a4.672413793103448,4.672413793103448 0 1,0 -9.344827586206897,0M56.896551724137936 129.31034482758622 m-4.672413793103448, 0 a4.672413793103448,4.672413793103448 0 1,0 9.344827586206897,0 a4.672413793103448,4.672413793103448 0 1,0 -9.344827586206897,0M67.24137931034483 129.31034482758622 m-4.672413793103448, 0 a4.672413793103448,4.672413793103448 0 1,0 9.344827586206897,0 a4.672413793103448,4.672413793103448 0 1,0 -9.344827586206897,0M77.58620689655173 129.31034482758622 m-4.672413793103448, 0 a4.672413793103448,4.672413793103448 0 1,0 9.344827586206897,0 a4.672413793103448,4.672413793103448 0 1,0 -9.344827586206897,0M87.93103448275862 129.31034482758622 m-4.672413793103448, 0 a4.672413793103448,4.672413793103448 0 1,0 9.344827586206897,0 a4.672413793103448,4.672413793103448 0 1,0 -9.344827586206897,0M98.27586206896551 129.31034482758622 m-4.672413793103448, 0 a4.672413793103448,4.672413793103448 0 1,0 9.344827586206897,0 a4.672413793103448,4.672413793103448 0 1,0 -9.344827586206897,0M222.41379310344828 129.31034482758622 m-4.672413793103448, 0 a4.672413793103448,4.672413793103448 0 1,0 9.344827586206897,0 a4.672413793103448,4.672413793103448 0 1,0 -9.344827586206897,0M243.1034482758621 129.31034482758622 m-4.672413793103448, 0 a4.672413793103448,4.672413793103448 0 1,0 9.344827586206897,0 a4.672413793103448,4.672413793103448 0 1,0 -9.344827586206897,0M274.13793103448273 129.31034482758622 m-4.672413793103448, 0 a4.672413793103448,4.672413793103448 0 1,0 9.344827586206897,0 a4.672413793103448,4.672413793103448 0 1,0 -9.344827586206897,0M284.48275862068965 129.31034482758622 m-4.672413793103448, 0 a4.672413793103448,4.672413793103448 0 1,0 9.344827586206897,0 a4.672413793103448,4.672413793103448 0 1,0 -9.344827586206897,0M294.82758620689657 129.31034482758622 m-4.672413793103448, 0 a4.672413793103448,4.672413793103448 0 1,0 9.344827586206897,0 a4.672413793103448,4.672413793103448 0 1,0 -9.344827586206897,0M15.517241379310345 139.6551724137931 m-4.672413793103448, 0 a4.672413793103448,4.672413793103448 0 1,0 9.344827586206897,0 a4.672413793103448,4.672413793103448 0 1,0 -9.344827586206897,0M25.862068965517242 139.6551724137931 m-4.672413793103448, 0 a4.672413793103448,4.672413793103448 0 1,0 9.344827586206897,0 a4.672413793103448,4.672413793103448 0 1,0 -9.344827586206897,0M56.896551724137936 139.6551724137931 m-4.672413793103448, 0 a4.672413793103448,4.672413793103448 0 1,0 9.344827586206897,0 a4.672413793103448,4.672413793103448 0 1,0 -9.344827586206897,0M77.58620689655173 139.6551724137931 m-4.672413793103448, 0 a4.672413793103448,4.672413793103448 0 1,0 9.344827586206897,0 a4.672413793103448,4.672413793103448 0 1,0 -9.344827586206897,0M87.93103448275862 139.6551724137931 m-4.672413793103448, 0 a4.672413793103448,4.672413793103448 0 1,0 9.344827586206897,0 a4.672413793103448,4.672413793103448 0 1,0 -9.344827586206897,0M98.27586206896551 139.6551724137931 m-4.672413793103448, 0 a4.672413793103448,4.672413793103448 0 1,0 9.344827586206897,0 a4.672413793103448,4.672413793103448 0 1,0 -9.344827586206897,0M108.62068965517241 139.6551724137931 m-4.672413793103448, 0 a4.672413793103448,4.672413793103448 0 1,0 9.344827586206897,0 a4.672413793103448,4.672413793103448 0 1,0 -9.344827586206897,0M191.3793103448276 139.6551724137931 m-4.672413793103448, 0 a4.672413793103448,4.672413793103448 0 1,0 9.344827586206897,0 a4.672413793103448,4.672413793103448 0 1,0 -9.344827586206897,0M201.7241379310345 139.6551724137931 m-4.672413793103448, 0 a4.672413793103448,4.672413793103448 0 1,0 9.344827586206897,0 a4.672413793103448,4.672413793103448 0 1,0 -9.344827586206897,0M212.0689655172414 139.6551724137931 m-4.672413793103448, 0 a4.672413793103448,4.672413793103448 0 1,0 9.344827586206897,0 a4.672413793103448,4.672413793103448 0 1,0 -9.344827586206897,0M222.41379310344828 139.6551724137931 m-4.672413793103448, 0 a4.672413793103448,4.672413793103448 0 1,0 9.344827586206897,0 a4.672413793103448,4.672413793103448 0 1,0 -9.344827586206897,0M232.7586206896552 139.6551724137931 m-4.672413793103448, 0 a4.672413793103448,4.672413793103448 0 1,0 9.344827586206897,0 a4.672413793103448,4.672413793103448 0 1,0 -9.344827586206897,0M253.44827586206898 139.6551724137931 m-4.672413793103448, 0 a4.672413793103448,4.672413793103448 0 1,0 9.344827586206897,0 a4.672413793103448,4.672413793103448 0 1,0 -9.344827586206897,0M263.7931034482759 139.6551724137931 m-4.672413793103448, 0 a4.672413793103448,4.672413793103448 0 1,0 9.344827586206897,0 a4.672413793103448,4.672413793103448 0 1,0 -9.344827586206897,0M294.82758620689657 139.6551724137931 m-4.672413793103448, 0 a4.672413793103448,4.672413793103448 0 1,0 9.344827586206897,0 a4.672413793103448,4.672413793103448 0 1,0 -9.344827586206897,0M36.20689655172414 150.00000000000003 m-4.672413793103448, 0 a4.672413793103448,4.672413793103448 0 1,0 9.344827586206897,0 a4.672413793103448,4.672413793103448 0 1,0 -9.344827586206897,0M46.55172413793103 150.00000000000003 m-4.672413793103448, 0 a4.672413793103448,4.672413793103448 0 1,0 9.344827586206897,0 a4.672413793103448,4.672413793103448 0 1,0 -9.344827586206897,0M67.24137931034483 150.00000000000003 m-4.672413793103448, 0 a4.672413793103448,4.672413793103448 0 1,0 9.344827586206897,0 a4.672413793103448,4.672413793103448 0 1,0 -9.344827586206897,0M98.27586206896551 150.00000000000003 m-4.672413793103448, 0 a4.672413793103448,4.672413793103448 0 1,0 9.344827586206897,0 a4.672413793103448,4.672413793103448 0 1,0 -9.344827586206897,0M232.7586206896552 150.00000000000003 m-4.672413793103448, 0 a4.672413793103448,4.672413793103448 0 1,0 9.344827586206897,0 a4.672413793103448,4.672413793103448 0 1,0 -9.344827586206897,0M243.1034482758621 150.00000000000003 m-4.672413793103448, 0 a4.672413793103448,4.672413793103448 0 1,0 9.344827586206897,0 a4.672413793103448,4.672413793103448 0 1,0 -9.344827586206897,0M5.172413793103448 160.34482758620692 m-4.672413793103448, 0 a4.672413793103448,4.672413793103448 0 1,0 9.344827586206897,0 a4.672413793103448,4.672413793103448 0 1,0 -9.344827586206897,0M56.896551724137936 160.34482758620692 m-4.672413793103448, 0 a4.672413793103448,4.672413793103448 0 1,0 9.344827586206897,0 a4.672413793103448,4.672413793103448 0 1,0 -9.344827586206897,0M87.93103448275862 160.34482758620692 m-4.672413793103448, 0 a4.672413793103448,4.672413793103448 0 1,0 9.344827586206897,0 a4.672413793103448,4.672413793103448 0 1,0 -9.344827586206897,0M98.27586206896551 160.34482758620692 m-4.672413793103448, 0 a4.672413793103448,4.672413793103448 0 1,0 9.344827586206897,0 a4.672413793103448,4.672413793103448 0 1,0 -9.344827586206897,0M191.3793103448276 160.34482758620692 m-4.672413793103448, 0 a4.672413793103448,4.672413793103448 0 1,0 9.344827586206897,0 a4.672413793103448,4.672413793103448 0 1,0 -9.344827586206897,0M201.7241379310345 160.34482758620692 m-4.672413793103448, 0 a4.672413793103448,4.672413793103448 0 1,0 9.344827586206897,0 a4.672413793103448,4.672413793103448 0 1,0 -9.344827586206897,0M212.0689655172414 160.34482758620692 m-4.672413793103448, 0 a4.672413793103448,4.672413793103448 0 1,0 9.344827586206897,0 a4.672413793103448,4.672413793103448 0 1,0 -9.344827586206897,0M253.44827586206898 160.34482758620692 m-4.672413793103448, 0 a4.672413793103448,4.672413793103448 0 1,0 9.344827586206897,0 a4.672413793103448,4.672413793103448 0 1,0 -9.344827586206897,0M263.7931034482759 160.34482758620692 m-4.672413793103448, 0 a4.672413793103448,4.672413793103448 0 1,0 9.344827586206897,0 a4.672413793103448,4.672413793103448 0 1,0 -9.344827586206897,0M15.517241379310345 170.6896551724138 m-4.672413793103448, 0 a4.672413793103448,4.672413793103448 0 1,0 9.344827586206897,0 a4.672413793103448,4.672413793103448 0 1,0 -9.344827586206897,0M25.862068965517242 170.6896551724138 m-4.672413793103448, 0 a4.672413793103448,4.672413793103448 0 1,0 9.344827586206897,0 a4.672413793103448,4.672413793103448 0 1,0 -9.344827586206897,0M46.55172413793103 170.6896551724138 m-4.672413793103448, 0 a4.672413793103448,4.672413793103448 0 1,0 9.344827586206897,0 a4.672413793103448,4.672413793103448 0 1,0 -9.344827586206897,0M67.24137931034483 170.6896551724138 m-4.672413793103448, 0 a4.672413793103448,4.672413793103448 0 1,0 9.344827586206897,0 a4.672413793103448,4.672413793103448 0 1,0 -9.344827586206897,0M98.27586206896551 170.6896551724138 m-4.672413793103448, 0 a4.672413793103448,4.672413793103448 0 1,0 9.344827586206897,0 a4.672413793103448,4.672413793103448 0 1,0 -9.344827586206897,0M191.3793103448276 170.6896551724138 m-4.672413793103448, 0 a4.672413793103448,4.672413793103448 0 1,0 9.344827586206897,0 a4.672413793103448,4.672413793103448 0 1,0 -9.344827586206897,0M201.7241379310345 170.6896551724138 m-4.672413793103448, 0 a4.672413793103448,4.672413793103448 0 1,0 9.344827586206897,0 a4.672413793103448,4.672413793103448 0 1,0 -9.344827586206897,0M222.41379310344828 170.6896551724138 m-4.672413793103448, 0 a4.672413793103448,4.672413793103448 0 1,0 9.344827586206897,0 a4.672413793103448,4.672413793103448 0 1,0 -9.344827586206897,0M263.7931034482759 170.6896551724138 m-4.672413793103448, 0 a4.672413793103448,4.672413793103448 0 1,0 9.344827586206897,0 a4.672413793103448,4.672413793103448 0 1,0 -9.344827586206897,0M274.13793103448273 170.6896551724138 m-4.672413793103448, 0 a4.672413793103448,4.672413793103448 0 1,0 9.344827586206897,0 a4.672413793103448,4.672413793103448 0 1,0 -9.344827586206897,0M284.48275862068965 170.6896551724138 m-4.672413793103448, 0 a4.672413793103448,4.672413793103448 0 1,0 9.344827586206897,0 a4.672413793103448,4.672413793103448 0 1,0 -9.344827586206897,0M294.82758620689657 170.6896551724138 m-4.672413793103448, 0 a4.672413793103448,4.672413793103448 0 1,0 9.344827586206897,0 a4.672413793103448,4.672413793103448 0 1,0 -9.344827586206897,0M5.172413793103448 181.0344827586207 m-4.672413793103448, 0 a4.672413793103448,4.672413793103448 0 1,0 9.344827586206897,0 a4.672413793103448,4.672413793103448 0 1,0 -9.344827586206897,0M15.517241379310345 181.0344827586207 m-4.672413793103448, 0 a4.672413793103448,4.672413793103448 0 1,0 9.344827586206897,0 a4.672413793103448,4.672413793103448 0 1,0 -9.344827586206897,0M46.55172413793103 181.0344827586207 m-4.672413793103448, 0 a4.672413793103448,4.672413793103448 0 1,0 9.344827586206897,0 a4.672413793103448,4.672413793103448 0 1,0 -9.344827586206897,0M56.896551724137936 181.0344827586207 m-4.672413793103448, 0 a4.672413793103448,4.672413793103448 0 1,0 9.344827586206897,0 a4.672413793103448,4.672413793103448 0 1,0 -9.344827586206897,0M77.58620689655173 181.0344827586207 m-4.672413793103448, 0 a4.672413793103448,4.672413793103448 0 1,0 9.344827586206897,0 a4.672413793103448,4.672413793103448 0 1,0 -9.344827586206897,0M108.62068965517241 181.0344827586207 m-4.672413793103448, 0 a4.672413793103448,4.672413793103448 0 1,0 9.344827586206897,0 a4.672413793103448,4.672413793103448 0 1,0 -9.344827586206897,0M191.3793103448276 181.0344827586207 m-4.672413793103448, 0 a4.672413793103448,4.672413793103448 0 1,0 9.344827586206897,0 a4.672413793103448,4.672413793103448 0 1,0 -9.344827586206897,0M212.0689655172414 181.0344827586207 m-4.672413793103448, 0 a4.672413793103448,4.672413793103448 0 1,0 9.344827586206897,0 a4.672413793103448,4.672413793103448 0 1,0 -9.344827586206897,0M222.41379310344828 181.0344827586207 m-4.672413793103448, 0 a4.672413793103448,4.672413793103448 0 1,0 9.344827586206897,0 a4.672413793103448,4.672413793103448 0 1,0 -9.344827586206897,0M232.7586206896552 181.0344827586207 m-4.672413793103448, 0 a4.672413793103448,4.672413793103448 0 1,0 9.344827586206897,0 a4.672413793103448,4.672413793103448 0 1,0 -9.344827586206897,0M243.1034482758621 181.0344827586207 m-4.672413793103448, 0 a4.672413793103448,4.672413793103448 0 1,0 9.344827586206897,0 a4.672413793103448,4.672413793103448 0 1,0 -9.344827586206897,0M253.44827586206898 181.0344827586207 m-4.672413793103448, 0 a4.672413793103448,4.672413793103448 0 1,0 9.344827586206897,0 a4.672413793103448,4.672413793103448 0 1,0 -9.344827586206897,0M263.7931034482759 181.0344827586207 m-4.672413793103448, 0 a4.672413793103448,4.672413793103448 0 1,0 9.344827586206897,0 a4.672413793103448,4.672413793103448 0 1,0 -9.344827586206897,0M284.48275862068965 181.0344827586207 m-4.672413793103448, 0 a4.672413793103448,4.672413793103448 0 1,0 9.344827586206897,0 a4.672413793103448,4.672413793103448 0 1,0 -9.344827586206897,0M294.82758620689657 181.0344827586207 m-4.672413793103448, 0 a4.672413793103448,4.672413793103448 0 1,0 9.344827586206897,0 a4.672413793103448,4.672413793103448 0 1,0 -9.344827586206897,0M5.172413793103448 191.3793103448276 m-4.672413793103448, 0 a4.672413793103448,4.672413793103448 0 1,0 9.344827586206897,0 a4.672413793103448,4.672413793103448 0 1,0 -9.344827586206897,0M25.862068965517242 191.3793103448276 m-4.672413793103448, 0 a4.672413793103448,4.672413793103448 0 1,0 9.344827586206897,0 a4.672413793103448,4.672413793103448 0 1,0 -9.344827586206897,0M46.55172413793103 191.3793103448276 m-4.672413793103448, 0 a4.672413793103448,4.672413793103448 0 1,0 9.344827586206897,0 a4.672413793103448,4.672413793103448 0 1,0 -9.344827586206897,0M67.24137931034483 191.3793103448276 m-4.672413793103448, 0 a4.672413793103448,4.672413793103448 0 1,0 9.344827586206897,0 a4.672413793103448,4.672413793103448 0 1,0 -9.344827586206897,0M77.58620689655173 191.3793103448276 m-4.672413793103448, 0 a4.672413793103448,4.672413793103448 0 1,0 9.344827586206897,0 a4.672413793103448,4.672413793103448 0 1,0 -9.344827586206897,0M108.62068965517241 191.3793103448276 m-4.672413793103448, 0 a4.672413793103448,4.672413793103448 0 1,0 9.344827586206897,0 a4.672413793103448,4.672413793103448 0 1,0 -9.344827586206897,0M118.96551724137932 191.3793103448276 m-4.672413793103448, 0 a4.672413793103448,4.672413793103448 0 1,0 9.344827586206897,0 a4.672413793103448,4.672413793103448 0 1,0 -9.344827586206897,0M129.31034482758622 191.3793103448276 m-4.672413793103448, 0 a4.672413793103448,4.672413793103448 0 1,0 9.344827586206897,0 a4.672413793103448,4.672413793103448 0 1,0 -9.344827586206897,0M139.6551724137931 191.3793103448276 m-4.672413793103448, 0 a4.672413793103448,4.672413793103448 0 1,0 9.344827586206897,0 a4.672413793103448,4.672413793103448 0 1,0 -9.344827586206897,0M150.00000000000003 191.3793103448276 m-4.672413793103448, 0 a4.672413793103448,4.672413793103448 0 1,0 9.344827586206897,0 a4.672413793103448,4.672413793103448 0 1,0 -9.344827586206897,0M170.6896551724138 191.3793103448276 m-4.672413793103448, 0 a4.672413793103448,4.672413793103448 0 1,0 9.344827586206897,0 a4.672413793103448,4.672413793103448 0 1,0 -9.344827586206897,0M181.0344827586207 191.3793103448276 m-4.672413793103448, 0 a4.672413793103448,4.672413793103448 0 1,0 9.344827586206897,0 a4.672413793103448,4.672413793103448 0 1,0 -9.344827586206897,0M201.7241379310345 191.3793103448276 m-4.672413793103448, 0 a4.672413793103448,4.672413793103448 0 1,0 9.344827586206897,0 a4.672413793103448,4.672413793103448 0 1,0 -9.344827586206897,0M232.7586206896552 191.3793103448276 m-4.672413793103448, 0 a4.672413793103448,4.672413793103448 0 1,0 9.344827586206897,0 a4.672413793103448,4.672413793103448 0 1,0 -9.344827586206897,0M243.1034482758621 191.3793103448276 m-4.672413793103448, 0 a4.672413793103448,4.672413793103448 0 1,0 9.344827586206897,0 a4.672413793103448,4.672413793103448 0 1,0 -9.344827586206897,0M263.7931034482759 191.3793103448276 m-4.672413793103448, 0 a4.672413793103448,4.672413793103448 0 1,0 9.344827586206897,0 a4.672413793103448,4.672413793103448 0 1,0 -9.344827586206897,0M5.172413793103448 201.7241379310345 m-4.672413793103448, 0 a4.672413793103448,4.672413793103448 0 1,0 9.344827586206897,0 a4.672413793103448,4.672413793103448 0 1,0 -9.344827586206897,0M77.58620689655173 201.7241379310345 m-4.672413793103448, 0 a4.672413793103448,4.672413793103448 0 1,0 9.344827586206897,0 a4.672413793103448,4.672413793103448 0 1,0 -9.344827586206897,0M87.93103448275862 201.7241379310345 m-4.672413793103448, 0 a4.672413793103448,4.672413793103448 0 1,0 9.344827586206897,0 a4.672413793103448,4.672413793103448 0 1,0 -9.344827586206897,0M98.27586206896551 201.7241379310345 m-4.672413793103448, 0 a4.672413793103448,4.672413793103448 0 1,0 9.344827586206897,0 a4.672413793103448,4.672413793103448 0 1,0 -9.344827586206897,0M118.96551724137932 201.7241379310345 m-4.672413793103448, 0 a4.672413793103448,4.672413793103448 0 1,0 9.344827586206897,0 a4.672413793103448,4.672413793103448 0 1,0 -9.344827586206897,0M129.31034482758622 201.7241379310345 m-4.672413793103448, 0 a4.672413793103448,4.672413793103448 0 1,0 9.344827586206897,0 a4.672413793103448,4.672413793103448 0 1,0 -9.344827586206897,0M170.6896551724138 201.7241379310345 m-4.672413793103448, 0 a4.672413793103448,4.672413793103448 0 1,0 9.344827586206897,0 a4.672413793103448,4.672413793103448 0 1,0 -9.344827586206897,0M201.7241379310345 201.7241379310345 m-4.672413793103448, 0 a4.672413793103448,4.672413793103448 0 1,0 9.344827586206897,0 a4.672413793103448,4.672413793103448 0 1,0 -9.344827586206897,0M212.0689655172414 201.7241379310345 m-4.672413793103448, 0 a4.672413793103448,4.672413793103448 0 1,0 9.344827586206897,0 a4.672413793103448,4.672413793103448 0 1,0 -9.344827586206897,0M232.7586206896552 201.7241379310345 m-4.672413793103448, 0 a4.672413793103448,4.672413793103448 0 1,0 9.344827586206897,0 a4.672413793103448,4.672413793103448 0 1,0 -9.344827586206897,0M253.44827586206898 201.7241379310345 m-4.672413793103448, 0 a4.672413793103448,4.672413793103448 0 1,0 9.344827586206897,0 a4.672413793103448,4.672413793103448 0 1,0 -9.344827586206897,0M284.48275862068965 201.7241379310345 m-4.672413793103448, 0 a4.672413793103448,4.672413793103448 0 1,0 9.344827586206897,0 a4.672413793103448,4.672413793103448 0 1,0 -9.344827586206897,0M5.172413793103448 212.0689655172414 m-4.672413793103448, 0 a4.672413793103448,4.672413793103448 0 1,0 9.344827586206897,0 a4.672413793103448,4.672413793103448 0 1,0 -9.344827586206897,0M36.20689655172414 212.0689655172414 m-4.672413793103448, 0 a4.672413793103448,4.672413793103448 0 1,0 9.344827586206897,0 a4.672413793103448,4.672413793103448 0 1,0 -9.344827586206897,0M46.55172413793103 212.0689655172414 m-4.672413793103448, 0 a4.672413793103448,4.672413793103448 0 1,0 9.344827586206897,0 a4.672413793103448,4.672413793103448 0 1,0 -9.344827586206897,0M67.24137931034483 212.0689655172414 m-4.672413793103448, 0 a4.672413793103448,4.672413793103448 0 1,0 9.344827586206897,0 a4.672413793103448,4.672413793103448 0 1,0 -9.344827586206897,0M87.93103448275862 212.0689655172414 m-4.672413793103448, 0 a4.672413793103448,4.672413793103448 0 1,0 9.344827586206897,0 a4.672413793103448,4.672413793103448 0 1,0 -9.344827586206897,0M108.62068965517241 212.0689655172414 m-4.672413793103448, 0 a4.672413793103448,4.672413793103448 0 1,0 9.344827586206897,0 a4.672413793103448,4.672413793103448 0 1,0 -9.344827586206897,0M118.96551724137932 212.0689655172414 m-4.672413793103448, 0 a4.672413793103448,4.672413793103448 0 1,0 9.344827586206897,0 a4.672413793103448,4.672413793103448 0 1,0 -9.344827586206897,0M129.31034482758622 212.0689655172414 m-4.672413793103448, 0 a4.672413793103448,4.672413793103448 0 1,0 9.344827586206897,0 a4.672413793103448,4.672413793103448 0 1,0 -9.344827586206897,0M150.00000000000003 212.0689655172414 m-4.672413793103448, 0 a4.672413793103448,4.672413793103448 0 1,0 9.344827586206897,0 a4.672413793103448,4.672413793103448 0 1,0 -9.344827586206897,0M181.0344827586207 212.0689655172414 m-4.672413793103448, 0 a4.672413793103448,4.672413793103448 0 1,0 9.344827586206897,0 a4.672413793103448,4.672413793103448 0 1,0 -9.344827586206897,0M201.7241379310345 212.0689655172414 m-4.672413793103448, 0 a4.672413793103448,4.672413793103448 0 1,0 9.344827586206897,0 a4.672413793103448,4.672413793103448 0 1,0 -9.344827586206897,0M212.0689655172414 212.0689655172414 m-4.672413793103448, 0 a4.672413793103448,4.672413793103448 0 1,0 9.344827586206897,0 a4.672413793103448,4.672413793103448 0 1,0 -9.344827586206897,0M222.41379310344828 212.0689655172414 m-4.672413793103448, 0 a4.672413793103448,4.672413793103448 0 1,0 9.344827586206897,0 a4.672413793103448,4.672413793103448 0 1,0 -9.344827586206897,0M232.7586206896552 212.0689655172414 m-4.672413793103448, 0 a4.672413793103448,4.672413793103448 0 1,0 9.344827586206897,0 a4.672413793103448,4.672413793103448 0 1,0 -9.344827586206897,0M243.1034482758621 212.0689655172414 m-4.672413793103448, 0 a4.672413793103448,4.672413793103448 0 1,0 9.344827586206897,0 a4.672413793103448,4.672413793103448 0 1,0 -9.344827586206897,0M253.44827586206898 212.0689655172414 m-4.672413793103448, 0 a4.672413793103448,4.672413793103448 0 1,0 9.344827586206897,0 a4.672413793103448,4.672413793103448 0 1,0 -9.344827586206897,0M274.13793103448273 212.0689655172414 m-4.672413793103448, 0 a4.672413793103448,4.672413793103448 0 1,0 9.344827586206897,0 a4.672413793103448,4.672413793103448 0 1,0 -9.344827586206897,0M87.93103448275862 222.41379310344828 m-4.672413793103448, 0 a4.672413793103448,4.672413793103448 0 1,0 9.344827586206897,0 a4.672413793103448,4.672413793103448 0 1,0 -9.344827586206897,0M118.96551724137932 222.41379310344828 m-4.672413793103448, 0 a4.672413793103448,4.672413793103448 0 1,0 9.344827586206897,0 a4.672413793103448,4.672413793103448 0 1,0 -9.344827586206897,0M129.31034482758622 222.41379310344828 m-4.672413793103448, 0 a4.672413793103448,4.672413793103448 0 1,0 9.344827586206897,0 a4.672413793103448,4.672413793103448 0 1,0 -9.344827586206897,0M150.00000000000003 222.41379310344828 m-4.672413793103448, 0 a4.672413793103448,4.672413793103448 0 1,0 9.344827586206897,0 a4.672413793103448,4.672413793103448 0 1,0 -9.344827586206897,0M170.6896551724138 222.41379310344828 m-4.672413793103448, 0 a4.672413793103448,4.672413793103448 0 1,0 9.344827586206897,0 a4.672413793103448,4.672413793103448 0 1,0 -9.344827586206897,0M212.0689655172414 222.41379310344828 m-4.672413793103448, 0 a4.672413793103448,4.672413793103448 0 1,0 9.344827586206897,0 a4.672413793103448,4.672413793103448 0 1,0 -9.344827586206897,0M253.44827586206898 222.41379310344828 m-4.672413793103448, 0 a4.672413793103448,4.672413793103448 0 1,0 9.344827586206897,0 a4.672413793103448,4.672413793103448 0 1,0 -9.344827586206897,0M263.7931034482759 222.41379310344828 m-4.672413793103448, 0 a4.672413793103448,4.672413793103448 0 1,0 9.344827586206897,0 a4.672413793103448,4.672413793103448 0 1,0 -9.344827586206897,0M294.82758620689657 222.41379310344828 m-4.672413793103448, 0 a4.672413793103448,4.672413793103448 0 1,0 9.344827586206897,0 a4.672413793103448,4.672413793103448 0 1,0 -9.344827586206897,0M5.172413793103448 228.08620689655174 L9.844827586206897 228.08620689655174 L9.844827586206897 232.75862068965517 L9.844827586206897 237.43103448275863 L5.172413793103448 237.43103448275863 L0.5 237.43103448275863 L0.5 232.7586206896552 L0.5 232.7586206896552 Q0.5 228.08620689655174 5.172413793103448 228.08620689655174M15.517241379310345 228.08620689655174 L20.189655172413794 228.08620689655174 L20.189655172413794 232.75862068965517 L20.189655172413794 237.43103448275863 L15.517241379310345 237.43103448275863 L10.844827586206897 237.43103448275863 L10.844827586206897 232.7586206896552 L10.844827586206897 228.08620689655174 L15.517241379310345 228.08620689655174M25.862068965517242 228.08620689655174 L30.53448275862069 228.08620689655174 L30.53448275862069 232.75862068965517 L30.53448275862069 237.43103448275863 L25.862068965517242 237.43103448275863 L21.189655172413794 237.43103448275863 L21.189655172413794 232.7586206896552 L21.189655172413794 228.08620689655174 L25.862068965517242 228.08620689655174M36.20689655172414 228.08620689655174 L40.87931034482759 228.08620689655174 L40.87931034482759 232.75862068965517 L40.87931034482759 237.43103448275863 L36.20689655172414 237.43103448275863 L31.53448275862069 237.43103448275863 L31.53448275862069 232.7586206896552 L31.53448275862069 228.08620689655174 L36.20689655172414 228.08620689655174M46.55172413793103 228.08620689655174 L51.224137931034484 228.08620689655174 L51.224137931034484 232.75862068965517 L51.224137931034484 237.43103448275863 L46.55172413793103 237.43103448275863 L41.87931034482759 237.43103448275863 L41.87931034482759 232.7586206896552 L41.87931034482759 228.08620689655174 L46.55172413793103 228.08620689655174M56.896551724137936 228.08620689655174 L61.56896551724138 228.08620689655174 L61.56896551724138 232.75862068965517 L61.56896551724138 237.43103448275863 L56.896551724137936 237.43103448275863 L52.224137931034484 237.43103448275863 L52.224137931034484 232.7586206896552 L52.224137931034484 228.08620689655174 L56.896551724137936 228.08620689655174M67.24137931034484 228.08620689655174 L67.24137931034484 228.08620689655174 Q71.91379310344828 228.08620689655174 71.91379310344828 232.75862068965517 L71.91379310344828 237.43103448275863 L67.24137931034483 237.43103448275863 L62.56896551724138 237.43103448275863 L62.56896551724138 232.7586206896552 L62.56896551724138 228.08620689655174 L67.24137931034484 228.08620689655174M98.27586206896551 232.7586206896552 m-4.672413793103448, 0 a4.672413793103448,4.672413793103448 0 1,0 9.344827586206897,0 a4.672413793103448,4.672413793103448 0 1,0 -9.344827586206897,0M118.96551724137932 232.7586206896552 m-4.672413793103448, 0 a4.672413793103448,4.672413793103448 0 1,0 9.344827586206897,0 a4.672413793103448,4.672413793103448 0 1,0 -9.344827586206897,0M129.31034482758622 232.7586206896552 m-4.672413793103448, 0 a4.672413793103448,4.672413793103448 0 1,0 9.344827586206897,0 a4.672413793103448,4.672413793103448 0 1,0 -9.344827586206897,0M139.6551724137931 232.7586206896552 m-4.672413793103448, 0 a4.672413793103448,4.672413793103448 0 1,0 9.344827586206897,0 a4.672413793103448,4.672413793103448 0 1,0 -9.344827586206897,0M150.00000000000003 232.7586206896552 m-4.672413793103448, 0 a4.672413793103448,4.672413793103448 0 1,0 9.344827586206897,0 a4.672413793103448,4.672413793103448 0 1,0 -9.344827586206897,0M170.6896551724138 232.7586206896552 m-4.672413793103448, 0 a4.672413793103448,4.672413793103448 0 1,0 9.344827586206897,0 a4.672413793103448,4.672413793103448 0 1,0 -9.344827586206897,0M181.0344827586207 232.7586206896552 m-4.672413793103448, 0 a4.672413793103448,4.672413793103448 0 1,0 9.344827586206897,0 a4.672413793103448,4.672413793103448 0 1,0 -9.344827586206897,0M191.3793103448276 232.7586206896552 m-4.672413793103448, 0 a4.672413793103448,4.672413793103448 0 1,0 9.344827586206897,0 a4.672413793103448,4.672413793103448 0 1,0 -9.344827586206897,0M201.7241379310345 232.7586206896552 m-4.672413793103448, 0 a4.672413793103448,4.672413793103448 0 1,0 9.344827586206897,0 a4.672413793103448,4.672413793103448 0 1,0 -9.344827586206897,0M212.0689655172414 232.7586206896552 m-4.672413793103448, 0 a4.672413793103448,4.672413793103448 0 1,0 9.344827586206897,0 a4.672413793103448,4.672413793103448 0 1,0 -9.344827586206897,0M232.7586206896552 232.7586206896552 m-4.672413793103448, 0 a4.672413793103448,4.672413793103448 0 1,0 9.344827586206897,0 a4.672413793103448,4.672413793103448 0 1,0 -9.344827586206897,0M253.44827586206898 232.7586206896552 m-4.672413793103448, 0 a4.672413793103448,4.672413793103448 0 1,0 9.344827586206897,0 a4.672413793103448,4.672413793103448 0 1,0 -9.344827586206897,0M5.172413793103448 238.43103448275863 L9.844827586206897 238.43103448275863 L9.844827586206897 243.10344827586206 L9.844827586206897 247.77586206896552 L5.172413793103448 247.77586206896552 L0.5 247.77586206896552 L0.5 243.1034482758621 L0.5 238.43103448275863 L5.172413793103448 238.43103448275863M67.24137931034484 238.43103448275863 L71.91379310344828 238.43103448275863 L71.91379310344828 243.10344827586206 L71.91379310344828 247.77586206896552 L67.24137931034483 247.77586206896552 L62.56896551724138 247.77586206896552 L62.56896551724138 243.1034482758621 L62.56896551724138 238.43103448275863 L67.24137931034484 238.43103448275863M98.27586206896551 243.1034482758621 m-4.672413793103448, 0 a4.672413793103448,4.672413793103448 0 1,0 9.344827586206897,0 a4.672413793103448,4.672413793103448 0 1,0 -9.344827586206897,0M108.62068965517241 243.1034482758621 m-4.672413793103448, 0 a4.672413793103448,4.672413793103448 0 1,0 9.344827586206897,0 a4.672413793103448,4.672413793103448 0 1,0 -9.344827586206897,0M118.96551724137932 243.1034482758621 m-4.672413793103448, 0 a4.672413793103448,4.672413793103448 0 1,0 9.344827586206897,0 a4.672413793103448,4.672413793103448 0 1,0 -9.344827586206897,0M150.00000000000003 243.1034482758621 m-4.672413793103448, 0 a4.672413793103448,4.672413793103448 0 1,0 9.344827586206897,0 a4.672413793103448,4.672413793103448 0 1,0 -9.344827586206897,0M191.3793103448276 243.1034482758621 m-4.672413793103448, 0 a4.672413793103448,4.672413793103448 0 1,0 9.344827586206897,0 a4.672413793103448,4.672413793103448 0 1,0 -9.344827586206897,0M201.7241379310345 243.1034482758621 m-4.672413793103448, 0 a4.672413793103448,4.672413793103448 0 1,0 9.344827586206897,0 a4.672413793103448,4.672413793103448 0 1,0 -9.344827586206897,0M212.0689655172414 243.1034482758621 m-4.672413793103448, 0 a4.672413793103448,4.672413793103448 0 1,0 9.344827586206897,0 a4.672413793103448,4.672413793103448 0 1,0 -9.344827586206897,0M253.44827586206898 243.1034482758621 m-4.672413793103448, 0 a4.672413793103448,4.672413793103448 0 1,0 9.344827586206897,0 a4.672413793103448,4.672413793103448 0 1,0 -9.344827586206897,0M263.7931034482759 243.1034482758621 m-4.672413793103448, 0 a4.672413793103448,4.672413793103448 0 1,0 9.344827586206897,0 a4.672413793103448,4.672413793103448 0 1,0 -9.344827586206897,0M284.48275862068965 243.1034482758621 m-4.672413793103448, 0 a4.672413793103448,4.672413793103448 0 1,0 9.344827586206897,0 a4.672413793103448,4.672413793103448 0 1,0 -9.344827586206897,0M294.82758620689657 243.1034482758621 m-4.672413793103448, 0 a4.672413793103448,4.672413793103448 0 1,0 9.344827586206897,0 a4.672413793103448,4.672413793103448 0 1,0 -9.344827586206897,0M5.172413793103448 248.77586206896552 L9.844827586206897 248.77586206896552 L9.844827586206897 253.44827586206898 L9.844827586206897 258.12068965517244 L5.172413793103448 258.12068965517244 L0.5 258.12068965517244 L0.5 253.44827586206898 L0.5 248.77586206896552 L5.172413793103448 248.77586206896552M25.862068965517242 248.77586206896552 L30.53448275862069 248.77586206896552 L30.53448275862069 253.44827586206898 L30.53448275862069 258.12068965517244 L25.862068965517242 258.12068965517244 L21.189655172413794 258.12068965517244 L21.189655172413794 253.44827586206898 L21.189655172413794 253.44827586206898 Q21.189655172413794 248.77586206896552 25.862068965517242 248.77586206896552M36.20689655172414 248.77586206896552 L40.87931034482759 248.77586206896552 L40.87931034482759 253.44827586206898 L40.87931034482759 258.12068965517244 L36.20689655172414 258.12068965517244 L31.53448275862069 258.12068965517244 L31.53448275862069 253.44827586206898 L31.53448275862069 248.77586206896552 L36.20689655172414 248.77586206896552M46.55172413793103 248.77586206896552 L46.55172413793103 248.77586206896552 Q51.224137931034484 248.77586206896552 51.224137931034484 253.44827586206898 L51.224137931034484 258.12068965517244 L46.55172413793103 258.12068965517244 L41.87931034482759 258.12068965517244 L41.87931034482759 253.44827586206898 L41.87931034482759 248.77586206896552 L46.55172413793103 248.77586206896552M67.24137931034484 248.77586206896552 L71.91379310344828 248.77586206896552 L71.91379310344828 253.44827586206898 L71.91379310344828 258.12068965517244 L67.24137931034483 258.12068965517244 L62.56896551724138 258.12068965517244 L62.56896551724138 253.44827586206898 L62.56896551724138 248.77586206896552 L67.24137931034484 248.77586206896552M87.93103448275862 253.44827586206898 m-4.672413793103448, 0 a4.672413793103448,4.672413793103448 0 1,0 9.344827586206897,0 a4.672413793103448,4.672413793103448 0 1,0 -9.344827586206897,0M118.96551724137932 253.44827586206898 m-4.672413793103448, 0 a4.672413793103448,4.672413793103448 0 1,0 9.344827586206897,0 a4.672413793103448,4.672413793103448 0 1,0 -9.344827586206897,0M129.31034482758622 253.44827586206898 m-4.672413793103448, 0 a4.672413793103448,4.672413793103448 0 1,0 9.344827586206897,0 a4.672413793103448,4.672413793103448 0 1,0 -9.344827586206897,0M170.6896551724138 253.44827586206898 m-4.672413793103448, 0 a4.672413793103448,4.672413793103448 0 1,0 9.344827586206897,0 a4.672413793103448,4.672413793103448 0 1,0 -9.344827586206897,0M212.0689655172414 253.44827586206898 m-4.672413793103448, 0 a4.672413793103448,4.672413793103448 0 1,0 9.344827586206897,0 a4.672413793103448,4.672413793103448 0 1,0 -9.344827586206897,0M222.41379310344828 253.44827586206898 m-4.672413793103448, 0 a4.672413793103448,4.672413793103448 0 1,0 9.344827586206897,0 a4.672413793103448,4.672413793103448 0 1,0 -9.344827586206897,0M232.7586206896552 253.44827586206898 m-4.672413793103448, 0 a4.672413793103448,4.672413793103448 0 1,0 9.344827586206897,0 a4.672413793103448,4.672413793103448 0 1,0 -9.344827586206897,0M243.1034482758621 253.44827586206898 m-4.672413793103448, 0 a4.672413793103448,4.672413793103448 0 1,0 9.344827586206897,0 a4.672413793103448,4.672413793103448 0 1,0 -9.344827586206897,0M253.44827586206898 253.44827586206898 m-4.672413793103448, 0 a4.672413793103448,4.672413793103448 0 1,0 9.344827586206897,0 a4.672413793103448,4.672413793103448 0 1,0 -9.344827586206897,0M263.7931034482759 253.44827586206898 m-4.672413793103448, 0 a4.672413793103448,4.672413793103448 0 1,0 9.344827586206897,0 a4.672413793103448,4.672413793103448 0 1,0 -9.344827586206897,0M274.13793103448273 253.44827586206898 m-4.672413793103448, 0 a4.672413793103448,4.672413793103448 0 1,0 9.344827586206897,0 a4.672413793103448,4.672413793103448 0 1,0 -9.344827586206897,0M284.48275862068965 253.44827586206898 m-4.672413793103448, 0 a4.672413793103448,4.672413793103448 0 1,0 9.344827586206897,0 a4.672413793103448,4.672413793103448 0 1,0 -9.344827586206897,0M5.172413793103448 259.12068965517244 L9.844827586206897 259.12068965517244 L9.844827586206897 263.79310344827593 L9.844827586206897 268.46551724137936 L5.172413793103448 268.46551724137936 L0.5 268.46551724137936 L0.5 263.7931034482759 L0.5 259.12068965517244 L5.172413793103448 259.12068965517244M25.862068965517242 259.12068965517244 L30.53448275862069 259.12068965517244 L30.53448275862069 263.79310344827593 L30.53448275862069 268.46551724137936 L25.862068965517242 268.46551724137936 L21.189655172413794 268.46551724137936 L21.189655172413794 263.7931034482759 L21.189655172413794 259.12068965517244 L25.862068965517242 259.12068965517244M36.20689655172414 259.12068965517244 L40.87931034482759 259.12068965517244 L40.87931034482759 263.79310344827593 L40.87931034482759 268.46551724137936 L36.20689655172414 268.46551724137936 L31.53448275862069 268.46551724137936 L31.53448275862069 263.7931034482759 L31.53448275862069 259.12068965517244 L36.20689655172414 259.12068965517244M46.55172413793103 259.12068965517244 L51.224137931034484 259.12068965517244 L51.224137931034484 263.79310344827593 L51.224137931034484 268.46551724137936 L46.55172413793103 268.46551724137936 L41.87931034482759 268.46551724137936 L41.87931034482759 263.7931034482759 L41.87931034482759 259.12068965517244 L46.55172413793103 259.12068965517244M67.24137931034484 259.12068965517244 L71.91379310344828 259.12068965517244 L71.91379310344828 263.79310344827593 L71.91379310344828 268.46551724137936 L67.24137931034483 268.46551724137936 L62.56896551724138 268.46551724137936 L62.56896551724138 263.7931034482759 L62.56896551724138 259.12068965517244 L67.24137931034484 259.12068965517244M87.93103448275862 263.7931034482759 m-4.672413793103448, 0 a4.672413793103448,4.672413793103448 0 1,0 9.344827586206897,0 a4.672413793103448,4.672413793103448 0 1,0 -9.344827586206897,0M98.27586206896551 263.7931034482759 m-4.672413793103448, 0 a4.672413793103448,4.672413793103448 0 1,0 9.344827586206897,0 a4.672413793103448,4.672413793103448 0 1,0 -9.344827586206897,0M108.62068965517241 263.7931034482759 m-4.672413793103448, 0 a4.672413793103448,4.672413793103448 0 1,0 9.344827586206897,0 a4.672413793103448,4.672413793103448 0 1,0 -9.344827586206897,0M129.31034482758622 263.7931034482759 m-4.672413793103448, 0 a4.672413793103448,4.672413793103448 0 1,0 9.344827586206897,0 a4.672413793103448,4.672413793103448 0 1,0 -9.344827586206897,0M139.6551724137931 263.7931034482759 m-4.672413793103448, 0 a4.672413793103448,4.672413793103448 0 1,0 9.344827586206897,0 a4.672413793103448,4.672413793103448 0 1,0 -9.344827586206897,0M150.00000000000003 263.7931034482759 m-4.672413793103448, 0 a4.672413793103448,4.672413793103448 0 1,0 9.344827586206897,0 a4.672413793103448,4.672413793103448 0 1,0 -9.344827586206897,0M170.6896551724138 263.7931034482759 m-4.672413793103448, 0 a4.672413793103448,4.672413793103448 0 1,0 9.344827586206897,0 a4.672413793103448,4.672413793103448 0 1,0 -9.344827586206897,0M201.7241379310345 263.7931034482759 m-4.672413793103448, 0 a4.672413793103448,4.672413793103448 0 1,0 9.344827586206897,0 a4.672413793103448,4.672413793103448 0 1,0 -9.344827586206897,0M212.0689655172414 263.7931034482759 m-4.672413793103448, 0 a4.672413793103448,4.672413793103448 0 1,0 9.344827586206897,0 a4.672413793103448,4.672413793103448 0 1,0 -9.344827586206897,0M222.41379310344828 263.7931034482759 m-4.672413793103448, 0 a4.672413793103448,4.672413793103448 0 1,0 9.344827586206897,0 a4.672413793103448,4.672413793103448 0 1,0 -9.344827586206897,0M243.1034482758621 263.7931034482759 m-4.672413793103448, 0 a4.672413793103448,4.672413793103448 0 1,0 9.344827586206897,0 a4.672413793103448,4.672413793103448 0 1,0 -9.344827586206897,0M263.7931034482759 263.7931034482759 m-4.672413793103448, 0 a4.672413793103448,4.672413793103448 0 1,0 9.344827586206897,0 a4.672413793103448,4.672413793103448 0 1,0 -9.344827586206897,0M274.13793103448273 263.7931034482759 m-4.672413793103448, 0 a4.672413793103448,4.672413793103448 0 1,0 9.344827586206897,0 a4.672413793103448,4.672413793103448 0 1,0 -9.344827586206897,0M5.172413793103448 269.4655172413793 L9.844827586206897 269.4655172413793 L9.844827586206897 274.1379310344828 L9.844827586206897 278.8103448275862 L5.172413793103448 278.8103448275862 L0.5 278.8103448275862 L0.5 274.13793103448273 L0.5 269.4655172413793 L5.172413793103448 269.4655172413793M25.862068965517242 269.4655172413793 L30.53448275862069 269.4655172413793 L30.53448275862069 274.1379310344828 L30.53448275862069 278.8103448275862 L25.862068965517242 278.8103448275862 L25.862068965517242 278.8103448275862 Q21.189655172413794 278.8103448275862 21.189655172413794 274.13793103448273 L21.189655172413794 269.4655172413793 L25.862068965517242 269.4655172413793M36.20689655172414 269.4655172413793 L40.87931034482759 269.4655172413793 L40.87931034482759 274.1379310344828 L40.87931034482759 278.8103448275862 L36.20689655172414 278.8103448275862 L31.53448275862069 278.8103448275862 L31.53448275862069 274.13793103448273 L31.53448275862069 269.4655172413793 L36.20689655172414 269.4655172413793M46.55172413793103 269.4655172413793 L51.224137931034484 269.4655172413793 L51.224137931034484 274.1379310344828 L51.224137931034484 274.1379310344828 Q51.224137931034484 278.8103448275862 46.55172413793103 278.8103448275862 L41.87931034482759 278.8103448275862 L41.87931034482759 274.13793103448273 L41.87931034482759 269.4655172413793 L46.55172413793103 269.4655172413793M67.24137931034484 269.4655172413793 L71.91379310344828 269.4655172413793 L71.91379310344828 274.1379310344828 L71.91379310344828 278.8103448275862 L67.24137931034483 278.8103448275862 L62.56896551724138 278.8103448275862 L62.56896551724138 274.13793103448273 L62.56896551724138 269.4655172413793 L67.24137931034484 269.4655172413793M87.93103448275862 274.13793103448273 m-4.672413793103448, 0 a4.672413793103448,4.672413793103448 0 1,0 9.344827586206897,0 a4.672413793103448,4.672413793103448 0 1,0 -9.344827586206897,0M108.62068965517241 274.13793103448273 m-4.672413793103448, 0 a4.672413793103448,4.672413793103448 0 1,0 9.344827586206897,0 a4.672413793103448,4.672413793103448 0 1,0 -9.344827586206897,0M129.31034482758622 274.13793103448273 m-4.672413793103448, 0 a4.672413793103448,4.672413793103448 0 1,0 9.344827586206897,0 a4.672413793103448,4.672413793103448 0 1,0 -9.344827586206897,0M181.0344827586207 274.13793103448273 m-4.672413793103448, 0 a4.672413793103448,4.672413793103448 0 1,0 9.344827586206897,0 a4.672413793103448,4.672413793103448 0 1,0 -9.344827586206897,0M201.7241379310345 274.13793103448273 m-4.672413793103448, 0 a4.672413793103448,4.672413793103448 0 1,0 9.344827586206897,0 a4.672413793103448,4.672413793103448 0 1,0 -9.344827586206897,0M212.0689655172414 274.13793103448273 m-4.672413793103448, 0 a4.672413793103448,4.672413793103448 0 1,0 9.344827586206897,0 a4.672413793103448,4.672413793103448 0 1,0 -9.344827586206897,0M222.41379310344828 274.13793103448273 m-4.672413793103448, 0 a4.672413793103448,4.672413793103448 0 1,0 9.344827586206897,0 a4.672413793103448,4.672413793103448 0 1,0 -9.344827586206897,0M232.7586206896552 274.13793103448273 m-4.672413793103448, 0 a4.672413793103448,4.672413793103448 0 1,0 9.344827586206897,0 a4.672413793103448,4.672413793103448 0 1,0 -9.344827586206897,0M243.1034482758621 274.13793103448273 m-4.672413793103448, 0 a4.672413793103448,4.672413793103448 0 1,0 9.344827586206897,0 a4.672413793103448,4.672413793103448 0 1,0 -9.344827586206897,0M253.44827586206898 274.13793103448273 m-4.672413793103448, 0 a4.672413793103448,4.672413793103448 0 1,0 9.344827586206897,0 a4.672413793103448,4.672413793103448 0 1,0 -9.344827586206897,0M274.13793103448273 274.13793103448273 m-4.672413793103448, 0 a4.672413793103448,4.672413793103448 0 1,0 9.344827586206897,0 a4.672413793103448,4.672413793103448 0 1,0 -9.344827586206897,0M284.48275862068965 274.13793103448273 m-4.672413793103448, 0 a4.672413793103448,4.672413793103448 0 1,0 9.344827586206897,0 a4.672413793103448,4.672413793103448 0 1,0 -9.344827586206897,0M5.172413793103448 279.8103448275862 L9.844827586206897 279.8103448275862 L9.844827586206897 284.4827586206897 L9.844827586206897 289.15517241379314 L5.172413793103448 289.15517241379314 L0.5 289.15517241379314 L0.5 284.48275862068965 L0.5 279.8103448275862 L5.172413793103448 279.8103448275862M67.24137931034484 279.8103448275862 L71.91379310344828 279.8103448275862 L71.91379310344828 284.4827586206897 L71.91379310344828 289.15517241379314 L67.24137931034483 289.15517241379314 L62.56896551724138 289.15517241379314 L62.56896551724138 284.48275862068965 L62.56896551724138 279.8103448275862 L67.24137931034484 279.8103448275862M98.27586206896551 284.48275862068965 m-4.672413793103448, 0 a4.672413793103448,4.672413793103448 0 1,0 9.344827586206897,0 a4.672413793103448,4.672413793103448 0 1,0 -9.344827586206897,0M118.96551724137932 284.48275862068965 m-4.672413793103448, 0 a4.672413793103448,4.672413793103448 0 1,0 9.344827586206897,0 a4.672413793103448,4.672413793103448 0 1,0 -9.344827586206897,0M150.00000000000003 284.48275862068965 m-4.672413793103448, 0 a4.672413793103448,4.672413793103448 0 1,0 9.344827586206897,0 a4.672413793103448,4.672413793103448 0 1,0 -9.344827586206897,0M191.3793103448276 284.48275862068965 m-4.672413793103448, 0 a4.672413793103448,4.672413793103448 0 1,0 9.344827586206897,0 a4.672413793103448,4.672413793103448 0 1,0 -9.344827586206897,0M232.7586206896552 284.48275862068965 m-4.672413793103448, 0 a4.672413793103448,4.672413793103448 0 1,0 9.344827586206897,0 a4.672413793103448,4.672413793103448 0 1,0 -9.344827586206897,0M253.44827586206898 284.48275862068965 m-4.672413793103448, 0 a4.672413793103448,4.672413793103448 0 1,0 9.344827586206897,0 a4.672413793103448,4.672413793103448 0 1,0 -9.344827586206897,0M263.7931034482759 284.48275862068965 m-4.672413793103448, 0 a4.672413793103448,4.672413793103448 0 1,0 9.344827586206897,0 a4.672413793103448,4.672413793103448 0 1,0 -9.344827586206897,0M284.48275862068965 284.48275862068965 m-4.672413793103448, 0 a4.672413793103448,4.672413793103448 0 1,0 9.344827586206897,0 a4.672413793103448,4.672413793103448 0 1,0 -9.344827586206897,0M5.172413793103448 290.15517241379314 L9.844827586206897 290.15517241379314 L9.844827586206897 294.8275862068966 L9.844827586206897 299.50000000000006 L5.172413793103448 299.50000000000006 L5.172413793103448 299.50000000000006 Q0.5 299.50000000000006 0.5 294.82758620689657 L0.5 290.15517241379314 L5.172413793103448 290.15517241379314M15.517241379310345 290.15517241379314 L20.189655172413794 290.15517241379314 L20.189655172413794 294.8275862068966 L20.189655172413794 299.50000000000006 L15.517241379310345 299.50000000000006 L10.844827586206897 299.50000000000006 L10.844827586206897 294.82758620689657 L10.844827586206897 290.15517241379314 L15.517241379310345 290.15517241379314M25.862068965517242 290.15517241379314 L30.53448275862069 290.15517241379314 L30.53448275862069 294.8275862068966 L30.53448275862069 299.50000000000006 L25.862068965517242 299.50000000000006 L21.189655172413794 299.50000000000006 L21.189655172413794 294.82758620689657 L21.189655172413794 290.15517241379314 L25.862068965517242 290.15517241379314M36.20689655172414 290.15517241379314 L40.87931034482759 290.15517241379314 L40.87931034482759 294.8275862068966 L40.87931034482759 299.50000000000006 L36.20689655172414 299.50000000000006 L31.53448275862069 299.50000000000006 L31.53448275862069 294.82758620689657 L31.53448275862069 290.15517241379314 L36.20689655172414 290.15517241379314M46.55172413793103 290.15517241379314 L51.224137931034484 290.15517241379314 L51.224137931034484 294.8275862068966 L51.224137931034484 299.50000000000006 L46.55172413793103 299.50000000000006 L41.87931034482759 299.50000000000006 L41.87931034482759 294.82758620689657 L41.87931034482759 290.15517241379314 L46.55172413793103 290.15517241379314M56.896551724137936 290.15517241379314 L61.56896551724138 290.15517241379314 L61.56896551724138 294.8275862068966 L61.56896551724138 299.50000000000006 L56.896551724137936 299.50000000000006 L52.224137931034484 299.50000000000006 L52.224137931034484 294.82758620689657 L52.224137931034484 290.15517241379314 L56.896551724137936 290.15517241379314M67.24137931034484 290.15517241379314 L71.91379310344828 290.15517241379314 L71.91379310344828 294.8275862068966 L71.91379310344828 294.8275862068966 Q71.91379310344828 299.50000000000006 67.24137931034483 299.50000000000006 L62.56896551724138 299.50000000000006 L62.56896551724138 294.82758620689657 L62.56896551724138 290.15517241379314 L67.24137931034484 290.15517241379314M98.27586206896551 294.82758620689657 m-4.672413793103448, 0 a4.672413793103448,4.672413793103448 0 1,0 9.344827586206897,0 a4.672413793103448,4.672413793103448 0 1,0 -9.344827586206897,0M118.96551724137932 294.82758620689657 m-4.672413793103448, 0 a4.672413793103448,4.672413793103448 0 1,0 9.344827586206897,0 a4.672413793103448,4.672413793103448 0 1,0 -9.344827586206897,0M129.31034482758622 294.82758620689657 m-4.672413793103448, 0 a4.672413793103448,4.672413793103448 0 1,0 9.344827586206897,0 a4.672413793103448,4.672413793103448 0 1,0 -9.344827586206897,0M150.00000000000003 294.82758620689657 m-4.672413793103448, 0 a4.672413793103448,4.672413793103448 0 1,0 9.344827586206897,0 a4.672413793103448,4.672413793103448 0 1,0 -9.344827586206897,0M181.0344827586207 294.82758620689657 m-4.672413793103448, 0 a4.672413793103448,4.672413793103448 0 1,0 9.344827586206897,0 a4.672413793103448,4.672413793103448 0 1,0 -9.344827586206897,0M191.3793103448276 294.82758620689657 m-4.672413793103448, 0 a4.672413793103448,4.672413793103448 0 1,0 9.344827586206897,0 a4.672413793103448,4.672413793103448 0 1,0 -9.344827586206897,0M232.7586206896552 294.82758620689657 m-4.672413793103448, 0 a4.672413793103448,4.672413793103448 0 1,0 9.344827586206897,0 a4.672413793103448,4.672413793103448 0 1,0 -9.344827586206897,0M253.44827586206898 294.82758620689657 m-4.672413793103448, 0 a4.672413793103448,4.672413793103448 0 1,0 9.344827586206897,0 a4.672413793103448,4.672413793103448 0 1,0 -9.344827586206897,0M274.13793103448273 294.82758620689657 m-4.672413793103448, 0 a4.672413793103448,4.672413793103448 0 1,0 9.344827586206897,0 a4.672413793103448,4.672413793103448 0 1,0 -9.344827586206897,0"/><g transform="translate(150,150)"><text x="0" y="0" text-anchor="middle" dominant-baseline="central" font-size="40" fill="url(#qr-g-6tu9bz.wh02)">*</text></g></svg>