<svg xmlns="http://www.w3.org/2000/svg" width="300" height="300" viewBox="0 0 300 300"><defs><linearGradient id="qr-g-86wl4p.iaq7w" x1="0" y1="0" x2="1" y2="1" gradientUnits="objectBoundingBox"><stop offset="0" stop-color="#7c3aed"/><stop offset="1" stop-color="#2563eb"/></linearGradient></defs><path fill="#faf5ff" d="M0 0h300v300H0z"/><path fill="url(#qr-g-86wl4p.iaq7w)" d="M5.172413793103448 0.5 L9.844827586206897 0.5 L9.844827586206897 5.172413793103448 L9.844827586206897 9.844827586206897 L5.172413793103448 9.844827586206897 L0.5 9.844827586206897 L0.5 5.172413793103448 L0.5 5.172413793103448 Q0.5 0.5 5.172413793103448 0.5M15.517241379310345 0.5 L20.189655172413794 0.5 L20.189655172413794 5.172413793103448 L20.189655172413794 9.844827586206897 L15.517241379310345 9.844827586206897 L10.844827586206897 9.844827586206897 L10.844827586206897 5.172413793103448 L10.844827586206897 0.5 L15.517241379310345 0.5M25.862068965517242 0.5 L30.53448275862069 0.5 L30.53448275862069 5.172413793103448 L30.53448275862069 9.844827586206897 L25.862068965517242 9.844827586206897 L21.189655172413794 9.844827586206897 L21.189655172413794 5.172413793103448 L21.189655172413794 0.5 L25.862068965517242 0.5M36.20689655172414 0.5 L40.87931034482759 0.5 L40.87931034482759 5.172413793103448 L40.87931034482759 9.844827586206897 L36.20689655172414 9.844827586206897 L31.53448275862069 9.844827586206897 L31.53448275862069 5.172413793103448 L31.53448275862069 0.5 L36.20689655172414 0.5M46.55172413793103 0.5 L51.224137931034484 0.5 L51.224137931034484 5.172413793103448 L51.224137931034484 9.844827586206897 L46.55172413793103 9.844827586206897 L41.87931034482759 9.844827586206897 L41.87931034482759 5.172413793103448 L41.87931034482759 0.5 L46.55172413793103 0.5M56.896551724137936 0.5 L61.56896551724138 0.5 L61.56896551724138 5.172413793103448 L61.56896551724138 9.844827586206897 L56.896551724137936 9.844827586206897 L52.224137931034484 9.844827586206897 L52.224137931034484 5.172413793103448 L52.224137931034484 0.5 L56.896551724137936 0.5M67.24137931034484 0.5 L67.24137931034484 0.5 Q71.91379310344828 0.5 71.91379310344828 5.172413793103448 L71.91379310344828 9.844827586206897 L67.24137931034483 9.844827586206897 L62.56896551724138 9.844827586206897 L62.56896551724138 5.172413793103448 L62.56896551724138 0.5 L67.24137931034484 0.5M83.25862068965517 0.5 H92.60344827586206 V9.844827586206897 H83.25862068965517 ZM103.94827586206897 0.5 H113.29310344827587 V9.844827586206897 H103.94827586206897 ZM124.63793103448276 0.5 H133.98275862068965 V9.844827586206897 H124.63793103448276 ZM155.67241379310346 0.5 H165.01724137931035 V9.844827586206897 H155.67241379310346 ZM186.70689655172413 0.5 H196.05172413793102 V9.844827586206897 H186.70689655172413 ZM207.39655172413794 0.5 H216.74137931034483 V9.844827586206897 H207.39655172413794 ZM232.75862068965517 0.5 L237.43103448275863 0.5 L237.43103448275863 5.172413793103448 L237.43103448275863 9.844827586206897 L232.7586206896552 9.844827586206897 L228.08620689655174 9.844827586206897 L228.08620689655174 5.172413793103448 L228.08620689655174 5.172413793103448 Q228.08620689655174 0.5 232.75862068965517 0.5M243.10344827586206 0.5 L247.77586206896552 0.5 L247.77586206896552 5.172413793103448 L247.77586206896552 9.844827586206897 L243.1034482758621 9.844827586206897 L238.43103448275863 9.844827586206897 L238.43103448275863 5.172413793103448 L238.43103448275863 0.5 L243.10344827586206 0.5M253.44827586206898 0.5 L258.12068965517244 0.5 L258.12068965517244 5.172413793103448 L258.12068965517244 9.844827586206897 L253.44827586206898 9.844827586206897 L248.77586206896552 9.844827586206897 L248.77586206896552 5.172413793103448 L248.77586206896552 0.5 L253.44827586206898 0.5M263.79310344827593 0.5 L268.46551724137936 0.5 L268.46551724137936 5.172413793103448 L268.46551724137936 9.844827586206897 L263.7931034482759 9.844827586206897 L259.12068965517244 9.844827586206897 L259.12068965517244 5.172413793103448 L259.12068965517244 0.5 L263.79310344827593 0.5M274.1379310344828 0.5 L278.8103448275862 0.5 L278.8103448275862 5.172413793103448 L278.8103448275862 9.844827586206897 L274.13793103448273 9.844827586206897 L269.4655172413793 9.844827586206897 L269.4655172413793 5.172413793103448 L269.4655172413793 0.5 L274.1379310344828 0.5M284.4827586206897 0.5 L289.15517241379314 0.5 L289.15517241379314 5.172413793103448 L289.15517241379314 9.844827586206897 L284.48275862068965 9.844827586206897 L279.8103448275862 9.844827586206897 L279.8103448275862 5.172413793103448 L279.8103448275862 0.5 L284.4827586206897 0.5M294.8275862068966 0.5 L294.8275862068966 0.5 Q299.50000000000006 0.5 299.50000000000006 5.172413793103448 L299.50000000000006 9.844827586206897 L294.82758620689657 9.844827586206897 L290.15517241379314 9.844827586206897 L290.15517241379314 5.172413793103448 L290.15517241379314 0.5 L294.8275862068966 0.5M5.172413793103448 10.844827586206897 L9.844827586206897 10.844827586206897 L9.844827586206897 15.517241379310345 L9.844827586206897 20.189655172413794 L5.172413793103448 20.189655172413794 L0.5 20.189655172413794 L0.5 15.517241379310345 L0.5 10.844827586206897 L5.172413793103448 10.844827586206897M67.24137931034484 10.844827586206897 L71.91379310344828 10.844827586206897 L71.91379310344828 15.517241379310345 L71.91379310344828 20.189655172413794 L67.24137931034483 20.189655172413794 L62.56896551724138 20.189655172413794 L62.56896551724138 15.517241379310345 L62.56896551724138 10.844827586206897 L67.24137931034484 10.844827586206897M83.25862068965517 10.844827586206897 H92.60344827586206 V20.189655172413794 H83.25862068965517 ZM93.60344827586206 10.844827586206897 H102.94827586206895 V20.189655172413794 H93.60344827586206 ZM114.29310344827587 10.844827586206897 H123.63793103448276 V20.189655172413794 H114.29310344827587 ZM124.63793103448276 10.844827586206897 H133.98275862068965 V20.189655172413794 H124.63793103448276 ZM134.98275862068965 10.844827586206897 H144.32758620689654 V20.189655172413794 H134.98275862068965 ZM145.32758620689657 10.844827586206897 H154.67241379310346 V20.189655172413794 H145.32758620689657 ZM186.70689655172413 10.844827586206897 H196.05172413793102 V20.189655172413794 H186.70689655172413 ZM197.05172413793105 10.844827586206897 H206.39655172413794 V20.189655172413794 H197.05172413793105 ZM232.75862068965517 10.844827586206897 L237.43103448275863 10.844827586206897 L237.43103448275863 15.517241379310345 L237.43103448275863 20.189655172413794 L232.7586206896552 20.189655172413794 L228.08620689655174 20.189655172413794 L228.08620689655174 15.517241379310345 L228.08620689655174 10.844827586206897 L232.75862068965517 10.844827586206897M294.8275862068966 10.844827586206897 L299.50000000000006 10.844827586206897 L299.50000000000006 15.517241379310345 L299.50000000000006 20.189655172413794 L294.82758620689657 20.189655172413794 L290.15517241379314 20.189655172413794 L290.15517241379314 15.517241379310345 L290.15517241379314 10.844827586206897 L294.8275862068966 10.844827586206897M5.172413793103448 21.189655172413794 L9.844827586206897 21.189655172413794 L9.844827586206897 25.862068965517242 L9.844827586206897 30.53448275862069 L5.172413793103448 30.53448275862069 L0.5 30.53448275862069 L0.5 25.862068965517242 L0.5 21.189655172413794 L5.172413793103448 21.189655172413794M25.862068965517242 21.189655172413794 L30.53448275862069 21.189655172413794 L30.53448275862069 25.862068965517242 L30.53448275862069 30.53448275862069 L25.862068965517242 30.53448275862069 L21.189655172413794 30.53448275862069 L21.189655172413794 25.862068965517242 L21.189655172413794 25.862068965517242 Q21.189655172413794 21.189655172413794 25.862068965517242 21.189655172413794M36.20689655172414 21.189655172413794 L40.87931034482759 21.189655172413794 L40.87931034482759 25.862068965517242 L40.87931034482759 30.53448275862069 L36.20689655172414 30.53448275862069 L31.53448275862069 30.53448275862069 L31.53448275862069 25.862068965517242 L31.53448275862069 21.189655172413794 L36.20689655172414 21.189655172413794M46.55172413793103 21.189655172413794 L46.55172413793103 21.189655172413794 Q51.224137931034484 21.189655172413794 51.224137931034484 25.862068965517242 L51.224137931034484 30.53448275862069 L46.55172413793103 30.53448275862069 L41.87931034482759 30.53448275862069 L41.87931034482759 25.862068965517242 L41.87931034482759 21.189655172413794 L46.55172413793103 21.189655172413794M67.24137931034484 21.189655172413794 L71.91379310344828 21.189655172413794 L71.91379310344828 25.862068965517242 L71.91379310344828 30.53448275862069 L67.24137931034483 30.53448275862069 L62.56896551724138 30.53448275862069 L62.56896551724138 25.862068965517242 L62.56896551724138 21.189655172413794 L67.24137931034484 21.189655172413794M83.25862068965517 21.189655172413794 H92.60344827586206 V30.53448275862069 H83.25862068965517 ZM93.60344827586206 21.189655172413794 H102.94827586206895 V30.53448275862069 H93.60344827586206 ZM103.94827586206897 21.189655172413794 H113.29310344827587 V30.53448275862069 H103.94827586206897 ZM124.63793103448276 21.189655172413794 H133.98275862068965 V30.53448275862069 H124.63793103448276 ZM134.98275862068965 21.189655172413794 H144.32758620689654 V30.53448275862069 H134.98275862068965 ZM197.05172413793105 21.189655172413794 H206.39655172413794 V30.53448275862069 H197.05172413793105 ZM207.39655172413794 21.189655172413794 H216.74137931034483 V30.53448275862069 H207.39655172413794 ZM232.75862068965517 21.189655172413794 L237.43103448275863 21.189655172413794 L237.43103448275863 25.862068965517242 L237.43103448275863 30.53448275862069 L232.7586206896552 30.53448275862069 L228.08620689655174 30.53448275862069 L228.08620689655174 25.862068965517242 L228.08620689655174 21.189655172413794 L232.75862068965517 21.189655172413794M253.44827586206898 21.189655172413794 L258.12068965517244 21.189655172413794 L258.12068965517244 25.862068965517242 L258.12068965517244 30.53448275862069 L253.44827586206898 30.53448275862069 L248.77586206896552 30.53448275862069 L248.77586206896552 25.862068965517242 L248.77586206896552 25.862068965517242 Q248.77586206896552 21.189655172413794 253.44827586206898 21.189655172413794M263.79310344827593 21.189655172413794 L268.46551724137936 21.189655172413794 L268.46551724137936 25.862068965517242 L268.46551724137936 30.53448275862069 L263.7931034482759 30.53448275862069 L259.12068965517244 30.53448275862069 L259.12068965517244 25.862068965517242 L259.12068965517244 21.189655172413794 L263.79310344827593 21.189655172413794M274.1379310344828 21.189655172413794 L274.1379310344828 21.189655172413794 Q278.8103448275862 21.189655172413794 278.8103448275862 25.862068965517242 L278.8103448275862 30.53448275862069 L274.13793103448273 30.53448275862069 L269.4655172413793 30.53448275862069 L269.4655172413793 25.862068965517242 L269.4655172413793 21.189655172413794 L274.1379310344828 21.189655172413794M294.8275862068966 21.189655172413794 L299.50000000000006 21.189655172413794 L299.50000000000006 25.862068965517242 L299.50000000000006 30.53448275862069 L294.82758620689657 30.53448275862069 L290.15517241379314 30.53448275862069 L290.15517241379314 25.862068965517242 L290.15517241379314 21.189655172413794 L294.8275862068966 21.189655172413794M5.172413793103448 31.53448275862069 L9.844827586206897 31.53448275862069 L9.844827586206897 36.20689655172414 L9.844827586206897 40.87931034482759 L5.172413793103448 40.87931034482759 L0.5 40.87931034482759 L0.5 36.20689655172414 L0.5 31.53448275862069 L5.172413793103448 31.53448275862069M25.862068965517242 31.53448275862069 L30.53448275862069 31.53448275862069 L30.53448275862069 36.20689655172414 L30.53448275862069 40.87931034482759 L25.862068965517242 40.87931034482759 L21.189655172413794 40.87931034482759 L21.189655172413794 36.20689655172414 L21.189655172413794 31.53448275862069 L25.862068965517242 31.53448275862069M36.20689655172414 31.53448275862069 L40.87931034482759 31.53448275862069 L40.87931034482759 36.20689655172414 L40.87931034482759 40.87931034482759 L36.20689655172414 40.87931034482759 L31.53448275862069 40.87931034482759 L31.53448275862069 36.20689655172414 L31.53448275862069 31.53448275862069 L36.20689655172414 31.53448275862069M46.55172413793103 31.53448275862069 L51.224137931034484 31.53448275862069 L51.224137931034484 36.20689655172414 L51.224137931034484 40.87931034482759 L46.55172413793103 40.87931034482759 L41.87931034482759 40.87931034482759 L41.87931034482759 36.20689655172414 L41.87931034482759 31.53448275862069 L46.55172413793103 31.53448275862069M67.24137931034484 31.53448275862069 L71.91379310344828 31.53448275862069 L71.91379310344828 36.20689655172414 L71.91379310344828 40.87931034482759 L67.24137931034483 40.87931034482759 L62.56896551724138 40.87931034482759 L62.56896551724138 36.20689655172414 L62.56896551724138 31.53448275862069 L67.24137931034484 31.53448275862069M93.60344827586206 31.53448275862069 H102.94827586206895 V40.87931034482759 H93.60344827586206 ZM114.29310344827587 31.53448275862069 H123.63793103448276 V40.87931034482759 H114.29310344827587 ZM134.98275862068965 31.53448275862069 H144.32758620689654 V40.87931034482759 H134.98275862068965 ZM155.67241379310346 31.53448275862069 H165.01724137931035 V40.87931034482759 H155.67241379310346 ZM166.01724137931035 31.53448275862069 H175.36206896551724 V40.87931034482759 H166.01724137931035 ZM176.36206896551724 31.53448275862069 H185.70689655172413 V40.87931034482759 H176.36206896551724 ZM197.05172413793105 31.53448275862069 H206.39655172413794 V40.87931034482759 H197.05172413793105 ZM232.75862068965517 31.53448275862069 L237.43103448275863 31.53448275862069 L237.43103448275863 36.20689655172414 L237.43103448275863 40.87931034482759 L232.7586206896552 40.87931034482759 L228.08620689655174 40.87931034482759 L228.08620689655174 36.20689655172414 L228.08620689655174 31.53448275862069 L232.75862068965517 31.53448275862069M253.44827586206898 31.53448275862069 L258.12068965517244 31.53448275862069 L258.12068965517244 36.20689655172414 L258.12068965517244 40.87931034482759 L253.44827586206898 40.87931034482759 L248.77586206896552 40.87931034482759 L248.77586206896552 36.20689655172414 L248.77586206896552 31.53448275862069 L253.44827586206898 31.53448275862069M263.79310344827593 31.53448275862069 L268.46551724137936 31.53448275862069 L268.46551724137936 36.20689655172414 L268.46551724137936 40.87931034482759 L263.7931034482759 40.87931034482759 L259.12068965517244 40.87931034482759 L259.12068965517244 36.20689655172414 L259.12068965517244 31.53448275862069 L263.79310344827593 31.53448275862069M274.1379310344828 31.53448275862069 L278.8103448275862 31.53448275862069 L278.8103448275862 36.20689655172414 L278.8103448275862 40.87931034482759 L274.13793103448273 40.87931034482759 L269.4655172413793 40.87931034482759 L269.4655172413793 36.20689655172414 L269.4655172413793 31.53448275862069 L274.1379310344828 31.53448275862069M294.8275862068966 31.53448275862069 L299.50000000000006 31.53448275862069 L299.50000000000006 36.20689655172414 L299.50000000000006 40.87931034482759 L294.82758620689657 40.87931034482759 L290.15517241379314 40.87931034482759 L290.15517241379314 36.20689655172414 L290.15517241379314 31.53448275862069 L294.8275862068966 31.53448275862069M5.172413793103448 41.87931034482759 L9.844827586206897 41.87931034482759 L9.844827586206897 46.55172413793103 L9.844827586206897 51.224137931034484 L5.172413793103448 51.224137931034484 L0.5 51.224137931034484 L0.5 46.55172413793103 L0.5 41.87931034482759 L5.172413793103448 41.87931034482759M25.862068965517242 41.87931034482759 L30.53448275862069 41.87931034482759 L30.53448275862069 46.55172413793103 L30.53448275862069 51.224137931034484 L25.862068965517242 51.224137931034484 L25.862068965517242 51.224137931034484 Q21.189655172413794 51.224137931034484 21.189655172413794 46.55172413793103 L21.189655172413794 41.87931034482759 L25.862068965517242 41.87931034482759M36.20689655172414 41.87931034482759 L40.87931034482759 41.87931034482759 L40.87931034482759 46.55172413793103 L40.87931034482759 51.224137931034484 L36.20689655172414 51.224137931034484 L31.53448275862069 51.224137931034484 L31.53448275862069 46.55172413793103 L31.53448275862069 41.87931034482759 L36.20689655172414 41.87931034482759M46.55172413793103 41.87931034482759 L51.224137931034484 41.87931034482759 L51.224137931034484 46.55172413793103 L51.224137931034484 46.55172413793103 Q51.224137931034484 51.224137931034484 46.55172413793103 51.224137931034484 L41.87931034482759 51.224137931034484 L41.87931034482759 46.55172413793103 L41.87931034482759 41.87931034482759 L46.55172413793103 41.87931034482759M67.24137931034484 41.87931034482759 L71.91379310344828 41.87931034482759 L71.91379310344828 46.55172413793103 L71.91379310344828 51.224137931034484 L67.24137931034483 51.224137931034484 L62.56896551724138 51.224137931034484 L62.56896551724138 46.55172413793103 L62.56896551724138 41.87931034482759 L67.24137931034484 41.87931034482759M93.60344827586206 41.87931034482759 H102.94827586206895 V51.224137931034484 H93.60344827586206 ZM134.98275862068965 41.87931034482759 H144.32758620689654 V51.224137931034484 H134.98275862068965 ZM145.32758620689657 41.87931034482759 H154.67241379310346 V51.224137931034484 H145.32758620689657 ZM166.01724137931035 41.87931034482759 H175.36206896551724 V51.224137931034484 H166.01724137931035 ZM186.70689655172413 41.87931034482759 H196.05172413793102 V51.224137931034484 H186.70689655172413 ZM197.05172413793105 41.87931034482759 H206.39655172413794 V51.224137931034484 H197.05172413793105 ZM207.39655172413794 41.87931034482759 H216.74137931034483 V51.224137931034484 H207.39655172413794 ZM232.75862068965517 41.87931034482759 L237.43103448275863 41.87931034482759 L237.43103448275863 46.55172413793103 L237.43103448275863 51.224137931034484 L232.7586206896552 51.224137931034484 L228.08620689655174 51.224137931034484 L228.08620689655174 46.55172413793103 L228.08620689655174 41.87931034482759 L232.75862068965517 41.87931034482759M253.44827586206898 41.87931034482759 L258.12068965517244 41.87931034482759 L258.12068965517244 46.55172413793103 L258.12068965517244 51.224137931034484 L253.44827586206898 51.224137931034484 L253.44827586206898 51.224137931034484 Q248.77586206896552 51.224137931034484 248.77586206896552 46.55172413793103 L248.77586206896552 41.87931034482759 L253.44827586206898 41.87931034482759M263.79310344827593 41.87931034482759 L268.46551724137936 41.87931034482759 L268.46551724137936 46.55172413793103 L268.46551724137936 51.224137931034484 L263.7931034482759 51.224137931034484 L259.12068965517244 51.224137931034484 L259.12068965517244 46.55172413793103 L259.12068965517244 41.87931034482759 L263.79310344827593 41.87931034482759M274.1379310344828 41.87931034482759 L278.8103448275862 41.87931034482759 L278.8103448275862 46.55172413793103 L278.8103448275862 46.55172413793103 Q278.8103448275862 51.224137931034484 274.13793103448273 51.224137931034484 L269.4655172413793 51.224137931034484 L269.4655172413793 46.55172413793103 L269.4655172413793 41.87931034482759 L274.1379310344828 41.87931034482759M294.8275862068966 41.87931034482759 L299.50000000000006 41.87931034482759 L299.50000000000006 46.55172413793103 L299.50000000000006 51.224137931034484 L294.82758620689657 51.224137931034484 L290.15517241379314 51.224137931034484 L290.15517241379314 46.55172413793103 L290.15517241379314 41.87931034482759 L294.8275862068966 41.87931034482759M5.172413793103448 52.224137931034484 L9.844827586206897 52.224137931034484 L9.844827586206897 56.896551724137936 L9.844827586206897 61.56896551724138 L5.172413793103448 61.56896551724138 L0.5 61.56896551724138 L0.5 56.896551724137936 L0.5 52.224137931034484 L5.172413793103448 52.224137931034484M67.24137931034484 52.224137931034484 L71.91379310344828 52.224137931034484 L71.91379310344828 56.896551724137936 L71.91379310344828 61.56896551724138 L67.24137931034483 61.56896551724138 L62.56896551724138 61.56896551724138 L62.56896551724138 56.896551724137936 L62.56896551724138 52.224137931034484 L67.24137931034484 52.224137931034484M83.25862068965517 52.224137931034484 H92.60344827586206 V61.56896551724138 H83.25862068965517 ZM134.98275862068965 52.224137931034484 H144.32758620689654 V61.56896551724138 H134.98275862068965 ZM145.32758620689657 52.224137931034484 H154.67241379310346 V61.56896551724138 H145.32758620689657 ZM155.67241379310346 52.224137931034484 H165.01724137931035 V61.56896551724138 H155.67241379310346 ZM186.70689655172413 52.224137931034484 H196.05172413793102 V61.56896551724138 H186.70689655172413 ZM207.39655172413794 52.224137931034484 H216.74137931034483 V61.56896551724138 H207.39655172413794 ZM232.75862068965517 52.224137931034484 L237.43103448275863 52.224137931034484 L237.43103448275863 56.896551724137936 L237.43103448275863 61.56896551724138 L232.7586206896552 61.56896551724138 L228.08620689655174 61.56896551724138 L228.08620689655174 56.896551724137936 L228.08620689655174 52.224137931034484 L232.75862068965517 52.224137931034484M294.8275862068966 52.224137931034484 L299.50000000000006 52.224137931034484 L299.50000000000006 56.896551724137936 L299.50000000000006 61.56896551724138 L294.82758620689657 61.56896551724138 L290.15517241379314 61.56896551724138 L290.15517241379314 56.896551724137936 L290.15517241379314 52.224137931034484 L294.8275862068966 52.224137931034484M5.172413793103448 62.56896551724138 L9.844827586206897 62.56896551724138 L9.844827586206897 67.24137931034484 L9.844827586206897 71.91379310344828 L5.172413793103448 71.91379310344828 L5.172413793103448 71.91379310344828 Q0.5 71.91379310344828 0.5 67.24137931034483 L0.5 62.56896551724138 L5.172413793103448 62.56896551724138M15.517241379310345 62.56896551724138 L20.189655172413794 62.56896551724138 L20.189655172413794 67.24137931034484 L20.189655172413794 71.91379310344828 L15.517241379310345 71.91379310344828 L10.844827586206897 71.91379310344828 L10.844827586206897 67.24137931034483 L10.844827586206897 62.56896551724138 L15.517241379310345 62.56896551724138M25.862068965517242 62.56896551724138 L30.53448275862069 62.56896551724138 L30.53448275862069 67.24137931034484 L30.53448275862069 71.91379310344828 L25.862068965517242 71.91379310344828 L21.189655172413794 71.91379310344828 L21.189655172413794 67.24137931034483 L21.189655172413794 62.56896551724138 L25.862068965517242 62.56896551724138M36.20689655172414 62.56896551724138 L40.87931034482759 62.56896551724138 L40.87931034482759 67.24137931034484 L40.87931034482759 71.91379310344828 L36.20689655172414 71.91379310344828 L31.53448275862069 71.91379310344828 L31.53448275862069 67.24137931034483 L31.53448275862069 62.56896551724138 L36.20689655172414 62.56896551724138M46.55172413793103 62.56896551724138 L51.224137931034484 62.56896551724138 L51.224137931034484 67.24137931034484 L51.224137931034484 71.91379310344828 L46.55172413793103 71.91379310344828 L41.87931034482759 71.91379310344828 L41.87931034482759 67.24137931034483 L41.87931034482759 62.56896551724138 L46.55172413793103 62.56896551724138M56.896551724137936 62.56896551724138 L61.56896551724138 62.56896551724138 L61.56896551724138 67.24137931034484 L61.56896551724138 71.91379310344828 L56.896551724137936 71.91379310344828 L52.224137931034484 71.91379310344828 L52.224137931034484 67.24137931034483 L52.224137931034484 62.56896551724138 L56.896551724137936 62.56896551724138M67.24137931034484 62.56896551724138 L71.91379310344828 62.56896551724138 L71.91379310344828 67.24137931034484 L71.91379310344828 67.24137931034484 Q71.91379310344828 71.91379310344828 67.24137931034483 71.91379310344828 L62.56896551724138 71.91379310344828 L62.56896551724138 67.24137931034483 L62.56896551724138 62.56896551724138 L67.24137931034484 62.56896551724138M83.25862068965517 62.56896551724138 H92.60344827586206 V71.91379310344828 H83.25862068965517 ZM103.94827586206897 62.56896551724138 H113.29310344827587 V71.91379310344828 H103.94827586206897 ZM124.63793103448276 62.56896551724138 H133.98275862068965 V71.91379310344828 H124.63793103448276 ZM145.32758620689657 62.56896551724138 H154.67241379310346 V71.91379310344828 H145.32758620689657 ZM166.01724137931035 62.56896551724138 H175.36206896551724 V71.91379310344828 H166.01724137931035 ZM186.70689655172413 62.56896551724138 H196.05172413793102 V71.91379310344828 H186.70689655172413 ZM207.39655172413794 62.56896551724138 H216.74137931034483 V71.91379310344828 H207.39655172413794 ZM232.75862068965517 62.56896551724138 L237.43103448275863 62.56896551724138 L237.43103448275863 67.24137931034484 L237.43103448275863 71.91379310344828 L232.7586206896552 71.91379310344828 L232.7586206896552 71.91379310344828 Q228.08620689655174 71.91379310344828 228.08620689655174 67.24137931034483 L228.08620689655174 62.56896551724138 L232.75862068965517 62.56896551724138M243.10344827586206 62.56896551724138 L247.77586206896552 62.56896551724138 L247.77586206896552 67.24137931034484 L247.77586206896552 71.91379310344828 L243.1034482758621 71.91379310344828 L238.43103448275863 71.91379310344828 L238.43103448275863 67.24137931034483 L238.43103448275863 62.56896551724138 L243.10344827586206 62.56896551724138M253.44827586206898 62.56896551724138 L258.12068965517244 62.56896551724138 L258.12068965517244 67.24137931034484 L258.12068965517244 71.91379310344828 L253.44827586206898 71.91379310344828 L248.77586206896552 71.91379310344828 L248.77586206896552 67.24137931034483 L248.77586206896552 62.56896551724138 L253.44827586206898 62.56896551724138M263.79310344827593 62.56896551724138 L268.46551724137936 62.56896551724138 L268.46551724137936 67.24137931034484 L268.46551724137936 71.91379310344828 L263.7931034482759 71.91379310344828 L259.12068965517244 71.91379310344828 L259.12068965517244 67.24137931034483 L259.12068965517244 62.56896551724138 L263.79310344827593 62.56896551724138M274.1379310344828 62.56896551724138 L278.8103448275862 62.56896551724138 L278.8103448275862 67.24137931034484 L278.8103448275862 71.91379310344828 L274.13793103448273 71.91379310344828 L269.4655172413793 71.91379310344828 L269.4655172413793 67.24137931034483 L269.4655172413793 62.56896551724138 L274.1379310344828 62.56896551724138M284.4827586206897 62.56896551724138 L289.15517241379314 62.56896551724138 L289.15517241379314 67.24137931034484 L289.15517241379314 71.91379310344828 L284.48275862068965 71.91379310344828 L279.8103448275862 71.91379310344828 L279.8103448275862 67.24137931034483 L279.8103448275862 62.56896551724138 L284.4827586206897 62.56896551724138M294.8275862068966 62.56896551724138 L299.50000000000006 62.56896551724138 L299.50000000000006 67.24137931034484 L299.50000000000006 67.24137931034484 Q299.50000000000006 71.91379310344828 294.82758620689657 71.91379310344828 L290.15517241379314 71.91379310344828 L290.15517241379314 67.24137931034483 L290.15517241379314 62.56896551724138 L294.8275862068966 62.56896551724138M83.25862068965517 72.91379310344828 H92.60344827586206 V82.25862068965517 H83.25862068965517 ZM124.63793103448276 72.91379310344828 H133.98275862068965 V82.25862068965517 H124.63793103448276 ZM155.67241379310346 72.91379310344828 H165.01724137931035 V82.25862068965517 H155.67241379310346 ZM207.39655172413794 72.91379310344828 H216.74137931034483 V82.25862068965517 H207.39655172413794 ZM21.189655172413794 83.25862068965517 H30.53448275862069 V92.60344827586206 H21.189655172413794 ZM31.53448275862069 83.25862068965517 H40.87931034482759 V92.60344827586206 H31.53448275862069 ZM41.87931034482759 83.25862068965517 H51.224137931034484 V92.60344827586206 H41.87931034482759 ZM62.56896551724138 83.25862068965517 H71.91379310344828 V92.60344827586206 H62.56896551724138 ZM83.25862068965517 83.25862068965517 H92.60344827586206 V92.60344827586206 H83.25862068965517 ZM114.29310344827587 83.25862068965517 H123.63793103448276 V92.60344827586206 H114.29310344827587 ZM134.98275862068965 83.25862068965517 H144.32758620689654 V92.60344827586206 H134.98275862068965 ZM145.32758620689657 83.25862068965517 H154.67241379310346 V92.60344827586206 H145.32758620689657 ZM186.70689655172413 83.25862068965517 H196.05172413793102 V92.60344827586206 H186.70689655172413 ZM207.39655172413794 83.25862068965517 H216.74137931034483 V92.60344827586206 H207.39655172413794 ZM217.74137931034483 83.25862068965517 H227.08620689655172 V92.60344827586206 H217.74137931034483 ZM228.08620689655174 83.25862068965517 H237.43103448275863 V92.60344827586206 H228.08620689655174 ZM238.43103448275863 83.25862068965517 H247.77586206896552 V92.60344827586206 H238.43103448275863 ZM269.4655172413793 83.25862068965517 H278.8103448275862 V92.60344827586206 H269.4655172413793 ZM279.8103448275862 83.25862068965517 H289.15517241379314 V92.60344827586206 H279.8103448275862 ZM290.15517241379314 83.25862068965517 H299.50000000000006 V92.60344827586206 H290.15517241379314 ZM21.189655172413794 93.60344827586206 H30.53448275862069 V102.94827586206895 H21.189655172413794 ZM31.53448275862069 93.60344827586206 H40.87931034482759 V102.94827586206895 H31.53448275862069 ZM41.87931034482759 93.60344827586206 H51.224137931034484 V102.94827586206895 H41.87931034482759 ZM83.25862068965517 93.60344827586206 H92.60344827586206 V102.94827586206895 H83.25862068965517 ZM93.60344827586206 93.60344827586206 H102.94827586206895 V102.94827586206895 H93.60344827586206 ZM103.94827586206897 93.60344827586206 H113.29310344827587 V102.94827586206895 H103.94827586206897 ZM114.29310344827587 93.60344827586206 H123.63793103448276 V102.94827586206895 H114.29310344827587 ZM134.98275862068965 93.60344827586206 H144.32758620689654 V102.94827586206895 H134.98275862068965 ZM145.32758620689657 93.60344827586206 H154.67241379310346 V102.94827586206895 H145.32758620689657 ZM155.67241379310346 93.60344827586206 H165.01724137931035 V102.94827586206895 H155.67241379310346 ZM176.36206896551724 93.60344827586206 H185.70689655172413 V102.94827586206895 H176.36206896551724 ZM217.74137931034483 93.60344827586206 H227.08620689655172 V102.94827586206895 H217.74137931034483 ZM228.08620689655174 93.60344827586206 H237.43103448275863 V102.94827586206895 H228.08620689655174 ZM238.43103448275863 93.60344827586206 H247.77586206896552 V102.94827586206895 H238.43103448275863 ZM248.77586206896552 93.60344827586206 H258.12068965517244 V102.94827586206895 H248.77586206896552 ZM259.12068965517244 93.60344827586206 H268.46551724137936 V102.94827586206895 H259.12068965517244 ZM290.15517241379314 93.60344827586206 H299.50000000000006 V102.94827586206895 H290.15517241379314 ZM0.5 103.94827586206897 H9.844827586206897 V113.29310344827587 H0.5 ZM10.844827586206897 103.94827586206897 H20.189655172413794 V113.29310344827587 H10.844827586206897 ZM21.189655172413794 103.94827586206897 H30.53448275862069 V113.29310344827587 H21.189655172413794 ZM31.53448275862069 103.94827586206897 H40.87931034482759 V113.29310344827587 H31.53448275862069 ZM41.87931034482759 103.94827586206897 H51.224137931034484 V113.29310344827587 H41.87931034482759 ZM62.56896551724138 103.94827586206897 H71.91379310344828 V113.29310344827587 H62.56896551724138 ZM114.29310344827587 103.94827586206897 H123.63793103448276 V113.29310344827587 H114.29310344827587 ZM155.67241379310346 103.94827586206897 H165.01724137931035 V113.29310344827587 H155.67241379310346 ZM186.70689655172413 103.94827586206897 H196.05172413793102 V113.29310344827587 H186.70689655172413 ZM207.39655172413794 103.94827586206897 H216.74137931034483 V113.29310344827587 H207.39655172413794 ZM217.74137931034483 103.94827586206897 H227.08620689655172 V113.29310344827587 H217.74137931034483 ZM228.08620689655174 103.94827586206897 H237.43103448275863 V113.29310344827587 H228.08620689655174 ZM238.43103448275863 103.94827586206897 H247.77586206896552 V113.29310344827587 H238.43103448275863 ZM0.5 114.29310344827587 H9.844827586206897 V123.63793103448276 H0.5 ZM10.844827586206897 114.29310344827587 H20.189655172413794 V123.63793103448276 H10.844827586206897 ZM21.189655172413794 114.29310344827587 H30.53448275862069 V123.63793103448276 H21.189655172413794 ZM31.53448275862069 114.29310344827587 H40.87931034482759 V123.63793103448276 H31.53448275862069 ZM41.87931034482759 114.29310344827587 H51.224137931034484 V123.63793103448276 H41.87931034482759 ZM52.224137931034484 114.29310344827587 H61.56896551724138 V123.63793103448276 H52.224137931034484 ZM72.91379310344828 114.29310344827587 H82.25862068965517 V123.63793103448276 H72.91379310344828 ZM93.60344827586206 114.29310344827587 H102.94827586206895 V123.63793103448276 H93.60344827586206 ZM114.29310344827587 114.29310344827587 H123.63793103448276 V123.63793103448276 H114.29310344827587 ZM145.32758620689657 114.29310344827587 H154.67241379310346 V123.63793103448276 H145.32758620689657 ZM155.67241379310346 114.29310344827587 H165.01724137931035 V123.63793103448276 H155.67241379310346 ZM186.70689655172413 114.29310344827587 H196.05172413793102 V123.63793103448276 H186.70689655172413 ZM217.74137931034483 114.29310344827587 H227.08620689655172 V123.63793103448276 H217.74137931034483 ZM228.08620689655174 114.29310344827587 H237.43103448275863 V123.63793103448276 H228.08620689655174 ZM238.43103448275863 114.29310344827587 H247.77586206896552 V123.63793103448276 H238.43103448275863 ZM259.12068965517244 114.29310344827587 H268.46551724137936 V123.63793103448276 H259.12068965517244 ZM279.8103448275862 114.29310344827587 H289.15517241379314 V123.63793103448276 H279.8103448275862 ZM0.5 124.63793103448276 H9.844827586206897 V133.98275862068965 H0.5 ZM21.189655172413794 124.63793103448276 H30.53448275862069 V133.98275862068965 H21.189655172413794 ZM41.87931034482759 124.63793103448276 H51.224137931034484 V133.98275862068965 H41.87931034482759 ZM52.224137931034484 124.63793103448276 H61.56896551724138 V133.98275862068965 H52.224137931034484 ZM62.56896551724138 124.63793103448276 H71.91379310344828 V133.98275862068965 H62.56896551724138 ZM72.91379310344828 124.63793103448276 H82.25862068965517 V133.98275862068965 H72.91379310344828 ZM83.25862068965517 124.63793103448276 H92.60344827586206 V133.98275862068965 H83.25862068965517 ZM93.60344827586206 124.63793103448276 H102.94827586206895 V133.98275862068965 H93.60344827586206 ZM114.29310344827587 124.63793103448276 H123.63793103448276 V133.98275862068965 H114.29310344827587 ZM134.98275862068965 124.63793103448276 H144.32758620689654 V133.98275862068965 H134.98275862068965 ZM145.32758620689657 124.63793103448276 H154.67241379310346 V133.98275862068965 H145.32758620689657 ZM166.01724137931035 124.63793103448276 H175.36206896551724 V133.98275862068965 H166.01724137931035 ZM217.74137931034483 124.63793103448276 H227.08620689655172 V133.98275862068965 H217.74137931034483 ZM238.43103448275863 124.63793103448276 H247.77586206896552 V133.98275862068965 H238.43103448275863 ZM269.4655172413793 124.63793103448276 H278.8103448275862 V133.98275862068965 H269.4655172413793 ZM279.8103448275862 124.63793103448276 H289.15517241379314 V133.98275862068965 H279.8103448275862 ZM290.15517241379314 124.63793103448276 H299.50000000000006 V133.98275862068965 H290.15517241379314 ZM10.844827586206897 134.98275862068965 H20.189655172413794 V144.32758620689654 H10.844827586206897 ZM21.189655172413794 134.98275862068965 H30.53448275862069 V144.32758620689654 H21.189655172413794 ZM52.224137931034484 134.98275862068965 H61.56896551724138 V144.32758620689654 H52.224137931034484 ZM72.91379310344828 134.98275862068965 H82.25862068965517 V144.32758620689654 H72.91379310344828 ZM83.25862068965517 134.98275862068965 H92.60344827586206 V144.32758620689654 H83.25862068965517 ZM93.60344827586206 134.98275862068965 H102.94827586206895 V144.32758620689654 H93.60344827586206 ZM103.94827586206897 134.98275862068965 H113.29310344827587 V144.32758620689654 H103.94827586206897 ZM114.29310344827587 134.98275862068965 H123.63793103448276 V144.32758620689654 H114.29310344827587 ZM124.63793103448276 134.98275862068965 H133.98275862068965 V144.32758620689654 H124.63793103448276 ZM145.32758620689657 134.98275862068965 H154.67241379310346 V144.32758620689654 H145.32758620689657 ZM166.01724137931035 134.98275862068965 H175.36206896551724 V144.32758620689654 H166.01724137931035 ZM176.36206896551724 134.98275862068965 H185.70689655172413 V144.32758620689654 H176.36206896551724 ZM186.70689655172413 134.98275862068965 H196.05172413793102 V144.32758620689654 H186.70689655172413 ZM197.05172413793105 134.98275862068965 H206.39655172413794 V144.32758620689654 H197.05172413793105 ZM207.39655172413794 134.98275862068965 H216.74137931034483 V144.32758620689654 H207.39655172413794 ZM217.74137931034483 134.98275862068965 H227.08620689655172 V144.32758620689654 H217.74137931034483 ZM228.08620689655174 134.98275862068965 H237.43103448275863 V144.32758620689654 H228.08620689655174 ZM248.77586206896552 134.98275862068965 H258.12068965517244 V144.32758620689654 H248.77586206896552 ZM259.12068965517244 134.98275862068965 H268.46551724137936 V144.32758620689654 H259.12068965517244 ZM290.15517241379314 134.98275862068965 H299.50000000000006 V144.32758620689654 H290.15517241379314 ZM31.53448275862069 145.32758620689657 H40.87931034482759 V154.67241379310346 H31.53448275862069 ZM41.87931034482759 145.32758620689657 H51.224137931034484 V154.67241379310346 H41.87931034482759 ZM62.56896551724138 145.32758620689657 H71.91379310344828 V154.67241379310346 H62.56896551724138 ZM93.60344827586206 145.32758620689657 H102.94827586206895 V154.67241379310346 H93.60344827586206 ZM124.63793103448276 145.32758620689657 H133.98275862068965 V154.67241379310346 H124.63793103448276 ZM134.98275862068965 145.32758620689657 H144.32758620689654 V154.67241379310346 H134.98275862068965 ZM155.67241379310346 145.32758620689657 H165.01724137931035 V154.67241379310346 H155.67241379310346 ZM166.01724137931035 145.32758620689657 H175.36206896551724 V154.67241379310346 H166.01724137931035 ZM176.36206896551724 145.32758620689657 H185.70689655172413 V154.67241379310346 H176.36206896551724 ZM228.08620689655174 145.32758620689657 H237.43103448275863 V154.67241379310346 H228.08620689655174 ZM238.43103448275863 145.32758620689657 H247.77586206896552 V154.67241379310346 H238.43103448275863 ZM0.5 155.67241379310346 H9.844827586206897 V165.01724137931035 H0.5 ZM52.224137931034484 155.67241379310346 H61.56896551724138 V165.01724137931035 H52.224137931034484 ZM83.25862068965517 155.67241379310346 H92.60344827586206 V165.01724137931035 H83.25862068965517 ZM93.60344827586206 155.67241379310346 H102.94827586206895 V165.01724137931035 H93.60344827586206 ZM114.29310344827587 155.67241379310346 H123.63793103448276 V165.01724137931035 H114.29310344827587 ZM124.63793103448276 155.67241379310346 H133.98275862068965 V165.01724137931035 H124.63793103448276 ZM186.70689655172413 155.67241379310346 H196.05172413793102 V165.01724137931035 H186.70689655172413 ZM197.05172413793105 155.67241379310346 H206.39655172413794 V165.01724137931035 H197.05172413793105 ZM207.39655172413794 155.67241379310346 H216.74137931034483 V165.01724137931035 H207.39655172413794 ZM248.77586206896552 155.67241379310346 H258.12068965517244 V165.01724137931035 H248.77586206896552 ZM259.12068965517244 155.67241379310346 H268.46551724137936 V165.01724137931035 H259.12068965517244 ZM10.844827586206897 166.01724137931035 H20.189655172413794 V175.36206896551724 H10.844827586206897 ZM21.189655172413794 166.01724137931035 H30.53448275862069 V175.36206896551724 H21.189655172413794 ZM41.87931034482759 166.01724137931035 H51.224137931034484 V175.36206896551724 H41.87931034482759 ZM62.56896551724138 166.01724137931035 H71.91379310344828 V175.36206896551724 H62.56896551724138 ZM93.60344827586206 166.01724137931035 H102.94827586206895 V175.36206896551724 H93.60344827586206 ZM114.29310344827587 166.01724137931035 H123.63793103448276 V175.36206896551724 H114.29310344827587 ZM124.63793103448276 166.01724137931035 H133.98275862068965 V175.36206896551724 H124.63793103448276 ZM134.98275862068965 166.01724137931035 H144.32758620689654 V175.36206896551724 H134.98275862068965 ZM145.32758620689657 166.01724137931035 H154.67241379310346 V175.36206896551724 H145.32758620689657 ZM155.67241379310346 166.01724137931035 H165.01724137931035 V175.36206896551724 H155.67241379310346 ZM166.01724137931035 166.01724137931035 H175.36206896551724 V175.36206896551724 H166.01724137931035 ZM176.36206896551724 166.01724137931035 H185.70689655172413 V175.36206896551724 H176.36206896551724 ZM186.70689655172413 166.01724137931035 H196.05172413793102 V175.36206896551724 H186.70689655172413 ZM197.05172413793105 166.01724137931035 H206.39655172413794 V175.36206896551724 H197.05172413793105 ZM217.74137931034483 166.01724137931035 H227.08620689655172 V175.36206896551724 H217.74137931034483 ZM259.12068965517244 166.01724137931035 H268.46551724137936 V175.36206896551724 H259.12068965517244 ZM269.4655172413793 166.01724137931035 H278.8103448275862 V175.36206896551724 H269.4655172413793 ZM279.8103448275862 166.01724137931035 H289.15517241379314 V175.36206896551724 H279.8103448275862 ZM290.15517241379314 166.01724137931035 H299.50000000000006 V175.36206896551724 H290.15517241379314 ZM0.5 176.36206896551724 H9.844827586206897 V185.70689655172413 H0.5 ZM10.844827586206897 176.36206896551724 H20.189655172413794 V185.70689655172413 H10.844827586206897 ZM41.87931034482759 176.36206896551724 H51.224137931034484 V185.70689655172413 H41.87931034482759 ZM52.224137931034484 176.36206896551724 H61.56896551724138 V185.70689655172413 H52.224137931034484 ZM72.91379310344828 176.36206896551724 H82.25862068965517 V185.70689655172413 H72.91379310344828 ZM103.94827586206897 176.36206896551724 H113.29310344827587 V185.70689655172413 H103.94827586206897 ZM145.32758620689657 176.36206896551724 H154.67241379310346 V185.70689655172413 H145.32758620689657 ZM166.01724137931035 176.36206896551724 H175.36206896551724 V185.70689655172413 H166.01724137931035 ZM176.36206896551724 176.36206896551724 H185.70689655172413 V185.70689655172413 H176.36206896551724 ZM186.70689655172413 176.36206896551724 H196.05172413793102 V185.70689655172413 H186.70689655172413 ZM207.39655172413794 176.36206896551724 H216.74137931034483 V185.70689655172413 H207.39655172413794 ZM217.74137931034483 176.36206896551724 H227.08620689655172 V185.70689655172413 H217.74137931034483 ZM228.08620689655174 176.36206896551724 H237.43103448275863 V185.70689655172413 H228.08620689655174 ZM238.43103448275863 176.36206896551724 H247.77586206896552 V185.70689655172413 H238.43103448275863 ZM248.77586206896552 176.36206896551724 H258.12068965517244 V185.70689655172413 H248.77586206896552 ZM259.12068965517244 176.36206896551724 H268.46551724137936 V185.70689655172413 H259.12068965517244 ZM279.8103448275862 176.36206896551724 H289.15517241379314 V185.70689655172413 H279.8103448275862 ZM290.15517241379314 176.36206896551724 H299.50000000000006 V185.70689655172413 H290.15517241379314 ZM0.5 186.70689655172413 H9.844827586206897 V196.05172413793102 H0.5 ZM21.189655172413794 186.70689655172413 H30.53448275862069 V196.05172413793102 H21.189655172413794 ZM41.87931034482759 186.70689655172413 H51.224137931034484 V196.05172413793102 H41.87931034482759 ZM62.56896551724138 186.70689655172413 H71.91379310344828 V196.05172413793102 H62.56896551724138 ZM72.91379310344828 186.70689655172413 H82.25862068965517 V196.05172413793102 H72.91379310344828 ZM103.94827586206897 186.70689655172413 H113.29310344827587 V196.05172413793102 H103.94827586206897 ZM114.29310344827587 186.70689655172413 H123.63793103448276 V196.05172413793102 H114.29310344827587 ZM124.63793103448276 186.70689655172413 H133.98275862068965 V196.05172413793102 H124.63793103448276 ZM134.98275862068965 186.70689655172413 H144.32758620689654 V196.05172413793102 H134.98275862068965 ZM145.32758620689657 186.70689655172413 H154.67241379310346 V196.05172413793102 H145.32758620689657 ZM166.01724137931035 186.70689655172413 H175.36206896551724 V196.05172413793102 H166.01724137931035 ZM176.36206896551724 186.70689655172413 H185.70689655172413 V196.05172413793102 H176.36206896551724 ZM197.05172413793105 186.70689655172413 H206.39655172413794 V196.05172413793102 H197.05172413793105 ZM228.08620689655174 186.70689655172413 H237.43103448275863 V196.05172413793102 H228.08620689655174 ZM238.43103448275863 186.70689655172413 H247.77586206896552 V196.05172413793102 H238.43103448275863 ZM259.12068965517244 186.70689655172413 H268.46551724137936 V196.05172413793102 H259.12068965517244 ZM0.5 197.05172413793105 H9.844827586206897 V206.39655172413794 H0.5 ZM72.91379310344828 197.05172413793105 H82.25862068965517 V206.39655172413794 H72.91379310344828 ZM83.25862068965517 197.05172413793105 H92.60344827586206 V206.39655172413794 H83.25862068965517 ZM93.60344827586206 197.05172413793105 H102.94827586206895 V206.39655172413794 H93.60344827586206 ZM114.29310344827587 197.05172413793105 H123.63793103448276 V206.39655172413794 H114.29310344827587 ZM124.63793103448276 197.05172413793105 H133.98275862068965 V206.39655172413794 H124.63793103448276 ZM166.01724137931035 197.05172413793105 H175.36206896551724 V206.39655172413794 H166.01724137931035 ZM197.05172413793105 197.05172413793105 H206.39655172413794 V206.39655172413794 H197.05172413793105 ZM207.39655172413794 197.05172413793105 H216.74137931034483 V206.39655172413794 H207.39655172413794 ZM228.08620689655174 197.05172413793105 H237.43103448275863 V206.39655172413794 H228.08620689655174 ZM248.77586206896552 197.05172413793105 H258.12068965517244 V206.39655172413794 H248.77586206896552 ZM279.8103448275862 197.05172413793105 H289.15517241379314 V206.39655172413794 H279.8103448275862 ZM0.5 207.39655172413794 H9.844827586206897 V216.74137931034483 H0.5 ZM31.53448275862069 207.39655172413794 H40.87931034482759 V216.74137931034483 H31.53448275862069 ZM41.87931034482759 207.39655172413794 H51.224137931034484 V216.74137931034483 H41.87931034482759 ZM62.56896551724138 207.39655172413794 H71.91379310344828 V216.74137931034483 H62.56896551724138 ZM83.25862068965517 207.39655172413794 H92.60344827586206 V216.74137931034483 H83.25862068965517 ZM103.94827586206897 207.39655172413794 H113.29310344827587 V216.74137931034483 H103.94827586206897 ZM114.29310344827587 207.39655172413794 H123.63793103448276 V216.74137931034483 H114.29310344827587 ZM124.63793103448276 207.39655172413794 H133.98275862068965 V216.74137931034483 H124.63793103448276 ZM145.32758620689657 207.39655172413794 H154.67241379310346 V216.74137931034483 H145.32758620689657 ZM176.36206896551724 207.39655172413794 H185.70689655172413 V216.74137931034483 H176.36206896551724 ZM197.05172413793105 207.39655172413794 H206.39655172413794 V216.74137931034483 H197.05172413793105 ZM207.39655172413794 207.39655172413794 H216.74137931034483 V216.74137931034483 H207.39655172413794 ZM217.74137931034483 207.39655172413794 H227.08620689655172 V216.74137931034483 H217.74137931034483 ZM228.08620689655174 207.39655172413794 H237.43103448275863 V216.74137931034483 H228.08620689655174 ZM238.43103448275863 207.39655172413794 H247.77586206896552 V216.74137931034483 H238.43103448275863 ZM248.77586206896552 207.39655172413794 H258.12068965517244 V216.74137931034483 H248.77586206896552 ZM269.4655172413793 207.39655172413794 H278.8103448275862 V216.74137931034483 H269.4655172413793 ZM83.25862068965517 217.74137931034483 H92.60344827586206 V227.08620689655172 H83.25862068965517 ZM114.29310344827587 217.74137931034483 H123.63793103448276 V227.08620689655172 H114.29310344827587 ZM124.63793103448276 217.74137931034483 H133.98275862068965 V227.08620689655172 H124.63793103448276 ZM145.32758620689657 217.74137931034483 H154.67241379310346 V227.08620689655172 H145.32758620689657 ZM166.01724137931035 217.74137931034483 H175.36206896551724 V227.08620689655172 H166.01724137931035 ZM207.39655172413794 217.74137931034483 H216.74137931034483 V227.08620689655172 H207.39655172413794 ZM248.77586206896552 217.74137931034483 H258.12068965517244 V227.08620689655172 H248.77586206896552 ZM259.12068965517244 217.74137931034483 H268.46551724137936 V227.08620689655172 H259.12068965517244 ZM290.15517241379314 217.74137931034483 H299.50000000000006 V227.08620689655172 H290.15517241379314 ZM5.172413793103448 228.08620689655174 L9.844827586206897 228.08620689655174 L9.844827586206897 232.75862068965517 L9.844827586206897 237.43103448275863 L5.172413793103448 237.43103448275863 L0.5 237.43103448275863 L0.5 232.7586206896552 L0.5 232.7586206896552 Q0.5 228.08620689655174 5.172413793103448 228.08620689655174M15.517241379310345 228.08620689655174 L20.189655172413794 228.08620689655174 L20.189655172413794 232.75862068965517 L20.189655172413794 237.43103448275863 L15.517241379310345 237.43103448275863 L10.844827586206897 237.43103448275863 L10.844827586206897 232.7586206896552 L10.844827586206897 228.08620689655174 L15.517241379310345 228.08620689655174M25.862068965517242 228.08620689655174 L30.53448275862069 228.08620689655174 L30.53448275862069 232.75862068965517 L30.53448275862069 237.43103448275863 L25.862068965517242 237.43103448275863 L21.189655172413794 237.43103448275863 L21.189655172413794 232.7586206896552 L21.189655172413794 228.08620689655174 L25.862068965517242 228.08620689655174M36.20689655172414 228.08620689655174 L40.87931034482759 228.08620689655174 L40.87931034482759 232.75862068965517 L40.87931034482759 237.43103448275863 L36.20689655172414 237.43103448275863 L31.53448275862069 237.43103448275863 L31.53448275862069 232.7586206896552 L31.53448275862069 228.08620689655174 L36.20689655172414 228.08620689655174M46.55172413793103 228.08620689655174 L51.224137931034484 228.08620689655174 L51.224137931034484 232.75862068965517 L51.224137931034484 237.43103448275863 L46.55172413793103 237.43103448275863 L41.87931034482759 237.43103448275863 L41.87931034482759 232.7586206896552 L41.87931034482759 228.08620689655174 L46.55172413793103 228.08620689655174M56.896551724137936 228.08620689655174 L61.56896551724138 228.08620689655174 L61.56896551724138 232.75862068965517 L61.56896551724138 237.43103448275863 L56.896551724137936 237.43103448275863 L52.224137931034484 237.43103448275863 L52.224137931034484 232.7586206896552 L52.224137931034484 228.08620689655174 L56.896551724137936 228.08620689655174M67.24137931034484 228.08620689655174 L67.24137931034484 228.08620689655174 Q71.91379310344828 228.08620689655174 71.91379310344828 232.75862068965517 L71.91379310344828 237.43103448275863 L67.24137931034483 237.43103448275863 L62.56896551724138 237.43103448275863 L62.56896551724138 232.7586206896552 L62.56896551724138 228.08620689655174 L67.24137931034484 228.08620689655174M93.60344827586206 228.08620689655174 H102.94827586206895 V237.43103448275863 H93.60344827586206 ZM114.29310344827587 228.08620689655174 H123.63793103448276 V237.43103448275863 H114.29310344827587 ZM124.63793103448276 228.08620689655174 H133.98275862068965 V237.43103448275863 H124.63793103448276 ZM134.98275862068965 228.08620689655174 H144.32758620689654 V237.43103448275863 H134.98275862068965 ZM145.32758620689657 228.08620689655174 H154.67241379310346 V237.43103448275863 H145.32758620689657 ZM166.01724137931035 228.08620689655174 H175.36206896551724 V237.43103448275863 H166.01724137931035 ZM176.36206896551724 228.08620689655174 H185.70689655172413 V237.43103448275863 H176.36206896551724 ZM186.70689655172413 228.08620689655174 H196.05172413793102 V237.43103448275863 H186.70689655172413 ZM197.05172413793105 228.08620689655174 H206.39655172413794 V237.43103448275863 H197.05172413793105 ZM207.39655172413794 228.08620689655174 H216.74137931034483 V237.43103448275863 H207.39655172413794 ZM228.08620689655174 228.08620689655174 H237.43103448275863 V237.43103448275863 H228.08620689655174 ZM248.77586206896552 228.08620689655174 H258.12068965517244 V237.43103448275863 H248.77586206896552 ZM5.172413793103448 238.43103448275863 L9.844827586206897 238.43103448275863 L9.844827586206897 243.10344827586206 L9.844827586206897 247.77586206896552 L5.172413793103448 247.77586206896552 L0.5 247.77586206896552 L0.5 243.1034482758621 L0.5 238.43103448275863 L5.172413793103448 238.43103448275863M67.24137931034484 238.43103448275863 L71.91379310344828 238.43103448275863 L71.91379310344828 243.10344827586206 L71.91379310344828 247.77586206896552 L67.24137931034483 247.77586206896552 L62.56896551724138 247.77586206896552 L62.56896551724138 243.1034482758621 L62.56896551724138 238.43103448275863 L67.24137931034484 238.43103448275863M93.60344827586206 238.43103448275863 H102.94827586206895 V247.77586206896552 H93.60344827586206 ZM103.94827586206897 238.43103448275863 H113.29310344827587 V247.77586206896552 H103.94827586206897 ZM114.29310344827587 238.43103448275863 H123.63793103448276 V247.77586206896552 H114.29310344827587 ZM145.32758620689657 238.43103448275863 H154.67241379310346 V247.77586206896552 H145.32758620689657 ZM186.70689655172413 238.43103448275863 H196.05172413793102 V247.77586206896552 H186.70689655172413 ZM197.05172413793105 238.43103448275863 H206.39655172413794 V247.77586206896552 H197.05172413793105 ZM207.39655172413794 238.43103448275863 H216.74137931034483 V247.77586206896552 H207.39655172413794 ZM248.77586206896552 238.43103448275863 H258.12068965517244 V247.77586206896552 H248.77586206896552 ZM259.12068965517244 238.43103448275863 H268.46551724137936 V247.77586206896552 H259.12068965517244 ZM279.8103448275862 238.43103448275863 H289.15517241379314 V247.77586206896552 H279.8103448275862 ZM290.15517241379314 238.43103448275863 H299.50000000000006 V247.77586206896552 H290.15517241379314 ZM5.172413793103448 248.77586206896552 L9.844827586206897 248.77586206896552 L9.844827586206897 253.44827586206898 L9.844827586206897 258.12068965517244 L5.172413793103448 258.12068965517244 L0.5 258.12068965517244 L0.5 253.44827586206898 L0.5 248.77586206896552 L5.172413793103448 248.77586206896552M25.862068965517242 248.77586206896552 L30.53448275862069 248.77586206896552 L30.53448275862069 253.44827586206898 L30.53448275862069 258.12068965517244 L25.862068965517242 258.12068965517244 L21.189655172413794 258.12068965517244 L21.189655172413794 253.44827586206898 L21.189655172413794 253.44827586206898 Q21.189655172413794 248.77586206896552 25.862068965517242 248.77586206896552M36.20689655172414 248.77586206896552 L40.87931034482759 248.77586206896552 L40.87931034482759 253.44827586206898 L40.87931034482759 258.12068965517244 L36.20689655172414 258.12068965517244 L31.53448275862069 258.12068965517244 L31.53448275862069 253.44827586206898 L31.53448275862069 248.77586206896552 L36.20689655172414 248.77586206896552M46.55172413793103 248.77586206896552 L46.55172413793103 248.77586206896552 Q51.224137931034484 248.77586206896552 51.224137931034484 253.44827586206898 L51.224137931034484 258.12068965517244 L46.55172413793103 258.12068965517244 L41.87931034482759 258.12068965517244 L41.87931034482759 253.44827586206898 L41.87931034482759 248.77586206896552 L46.55172413793103 248.77586206896552M67.24137931034484 248.77586206896552 L71.91379310344828 248.77586206896552 L71.91379310344828 253.44827586206898 L71.91379310344828 258.12068965517244 L67.24137931034483 258.12068965517244 L62.56896551724138 258.12068965517244 L62.56896551724138 253.44827586206898 L62.56896551724138 248.77586206896552 L67.24137931034484 248.77586206896552M83.25862068965517 248.77586206896552 H92.60344827586206 V258.12068965517244 H83.25862068965517 ZM114.29310344827587 248.77586206896552 H123.63793103448276 V258.12068965517244 H114.29310344827587 ZM124.63793103448276 248.77586206896552 H133.98275862068965 V258.12068965517244 H124.63793103448276 ZM166.01724137931035 248.77586206896552 H175.36206896551724 V258.12068965517244 H166.01724137931035 ZM207.39655172413794 248.77586206896552 H216.74137931034483 V258.12068965517244 H207.39655172413794 ZM217.74137931034483 248.77586206896552 H227.08620689655172 V258.12068965517244 H217.74137931034483 ZM228.08620689655174 248.77586206896552 H237.43103448275863 V258.12068965517244 H228.08620689655174 ZM238.43103448275863 248.77586206896552 H247.77586206896552 V258.12068965517244 H238.43103448275863 ZM248.77586206896552 248.77586206896552 H258.12068965517244 V258.12068965517244 H248.77586206896552 ZM259.12068965517244 248.77586206896552 H268.46551724137936 V258.12068965517244 H259.12068965517244 ZM269.4655172413793 248.77586206896552 H278.8103448275862 V258.12068965517244 H269.4655172413793 ZM279.8103448275862 248.77586206896552 H289.15517241379314 V258.12068965517244 H279.8103448275862 ZM5.172413793103448 259.12068965517244 L9.844827586206897 259.12068965517244 L9.844827586206897 263.79310344827593 L9.844827586206897 268.46551724137936 L5.172413793103448 268.46551724137936 L0.5 268.46551724137936 L0.5 263.7931034482759 L0.5 259.12068965517244 L5.172413793103448 259.12068965517244M25.862068965517242 259.12068965517244 L30.53448275862069 259.12068965517244 L30.53448275862069 263.79310344827593 L30.53448275862069 268.46551724137936 L25.862068965517242 268.46551724137936 L21.189655172413794 268.46551724137936 L21.189655172413794 263.7931034482759 L21.189655172413794 259.12068965517244 L25.862068965517242 259.12068965517244M36.20689655172414 259.12068965517244 L40.87931034482759 259.12068965517244 L40.87931034482759 263.79310344827593 L40.87931034482759 268.46551724137936 L36.20689655172414 268.46551724137936 L31.53448275862069 268.46551724137936 L31.53448275862069 263.7931034482759 L31.53448275862069 259.12068965517244 L36.20689655172414 259.12068965517244M46.55172413793103 259.12068965517244 L51.224137931034484 259.12068965517244 L51.224137931034484 263.79310344827593 L51.224137931034484 268.46551724137936 L46.55172413793103 268.46551724137936 L41.87931034482759 268.46551724137936 L41.87931034482759 263.7931034482759 L41.87931034482759 259.12068965517244 L46.55172413793103 259.12068965517244M67.24137931034484 259.12068965517244 L71.91379310344828 259.12068965517244 L71.91379310344828 263.79310344827593 L71.91379310344828 268.46551724137936 L67.24137931034483 268.46551724137936 L62.56896551724138 268.46551724137936 L62.56896551724138 263.7931034482759 L62.56896551724138 259.12068965517244 L67.24137931034484 259.12068965517244M83.25862068965517 259.12068965517244 H92.60344827586206 V268.46551724137936 H83.25862068965517 ZM93.60344827586206 259.12068965517244 H102.94827586206895 V268.46551724137936 H93.60344827586206 ZM103.94827586206897 259.12068965517244 H113.29310344827587 V268.46551724137936 H103.94827586206897 ZM124.63793103448276 259.12068965517244 H133.98275862068965 V268.46551724137936 H124.63793103448276 ZM134.98275862068965 259.12068965517244 H144.32758620689654 V268.46551724137936 H134.98275862068965 ZM145.32758620689657 259.12068965517244 H154.67241379310346 V268.46551724137936 H145.32758620689657 ZM166.01724137931035 259.12068965517244 H175.36206896551724 V268.46551724137936 H166.01724137931035 ZM197.05172413793105 259.12068965517244 H206.39655172413794 V268.46551724137936 H197.05172413793105 ZM207.39655172413794 259.12068965517244 H216.74137931034483 V268.46551724137936 H207.39655172413794 ZM217.74137931034483 259.12068965517244 H227.08620689655172 V268.46551724137936 H217.74137931034483 ZM238.43103448275863 259.12068965517244 H247.77586206896552 V268.46551724137936 H238.43103448275863 ZM259.12068965517244 259.12068965517244 H268.46551724137936 V268.46551724137936 H259.12068965517244 ZM269.4655172413793 259.12068965517244 H278.8103448275862 V268.46551724137936 H269.4655172413793 ZM5.172413793103448 269.4655172413793 L9.844827586206897 269.4655172413793 L9.844827586206897 274.1379310344828 L9.844827586206897 278.8103448275862 L5.172413793103448 278.8103448275862 L0.5 278.8103448275862 L0.5 274.13793103448273 L0.5 269.4655172413793 L5.172413793103448 269.4655172413793M25.862068965517242 269.4655172413793 L30.53448275862069 269.4655172413793 L30.53448275862069 274.1379310344828 L30.53448275862069 278.8103448275862 L25.862068965517242 278.8103448275862 L25.862068965517242 278.8103448275862 Q21.189655172413794 278.8103448275862 21.189655172413794 274.13793103448273 L21.189655172413794 269.4655172413793 L25.862068965517242 269.4655172413793M36.20689655172414 269.4655172413793 L40.87931034482759 269.4655172413793 L40.87931034482759 274.1379310344828 L40.87931034482759 278.8103448275862 L36.20689655172414 278.8103448275862 L31.53448275862069 278.8103448275862 L31.53448275862069 274.13793103448273 L31.53448275862069 269.4655172413793 L36.20689655172414 269.4655172413793M46.55172413793103 269.4655172413793 L51.224137931034484 269.4655172413793 L51.224137931034484 274.1379310344828 L51.224137931034484 274.1379310344828 Q51.224137931034484 278.8103448275862 46.55172413793103 278.8103448275862 L41.87931034482759 278.8103448275862 L41.87931034482759 274.13793103448273 L41.87931034482759 269.4655172413793 L46.55172413793103 269.4655172413793M67.24137931034484 269.4655172413793 L71.91379310344828 269.4655172413793 L71.91379310344828 274.1379310344828 L71.91379310344828 278.8103448275862 L67.24137931034483 278.8103448275862 L62.56896551724138 278.8103448275862 L62.56896551724138 274.13793103448273 L62.56896551724138 269.4655172413793 L67.24137931034484 269.4655172413793M83.25862068965517 269.4655172413793 H92.60344827586206 V278.8103448275862 H83.25862068965517 ZM103.94827586206897 269.4655172413793 H113.29310344827587 V278.8103448275862 H103.94827586206897 ZM124.63793103448276 269.4655172413793 H133.98275862068965 V278.8103448275862 H124.63793103448276 ZM176.36206896551724 269.4655172413793 H185.70689655172413 V278.8103448275862 H176.36206896551724 ZM197.05172413793105 269.4655172413793 H206.39655172413794 V278.8103448275862 H197.05172413793105 ZM207.39655172413794 269.4655172413793 H216.74137931034483 V278.8103448275862 H207.39655172413794 ZM217.74137931034483 269.4655172413793 H227.08620689655172 V278.8103448275862 H217.74137931034483 ZM228.08620689655174 269.4655172413793 H237.43103448275863 V278.8103448275862 H228.08620689655174 ZM238.43103448275863 269.4655172413793 H247.77586206896552 V278.8103448275862 H238.43103448275863 ZM248.77586206896552 269.4655172413793 H258.12068965517244 V278.8103448275862 H248.77586206896552 ZM269.4655172413793 269.4655172413793 H278.8103448275862 V278.8103448275862 H269.4655172413793 ZM279.8103448275862 269.4655172413793 H289.15517241379314 V278.8103448275862 H279.8103448275862 ZM5.172413793103448 279.8103448275862 L9.844827586206897 279.8103448275862 L9.844827586206897 284.4827586206897 L9.844827586206897 289.15517241379314 L5.172413793103448 289.15517241379314 L0.5 289.15517241379314 L0.5 284.48275862068965 L0.5 279.8103448275862 L5.172413793103448 279.8103448275862M67.24137931034484 279.8103448275862 L71.91379310344828 279.8103448275862 L71.91379310344828 284.4827586206897 L71.91379310344828 289.15517241379314 L67.24137931034483 289.15517241379314 L62.56896551724138 289.15517241379314 L62.56896551724138 284.48275862068965 L62.56896551724138 279.8103448275862 L67.24137931034484 279.8103448275862M93.60344827586206 279.8103448275862 H102.94827586206895 V289.15517241379314 H93.60344827586206 ZM114.29310344827587 279.8103448275862 H123.63793103448276 V289.15517241379314 H114.29310344827587 ZM145.32758620689657 279.8103448275862 H154.67241379310346 V289.15517241379314 H145.32758620689657 ZM186.70689655172413 279.8103448275862 H196.05172413793102 V289.15517241379314 H186.70689655172413 ZM228.08620689655174 279.8103448275862 H237.43103448275863 V289.15517241379314 H228.08620689655174 ZM248.77586206896552 279.8103448275862 H258.12068965517244 V289.15517241379314 H248.77586206896552 ZM259.12068965517244 279.8103448275862 H268.46551724137936 V289.15517241379314 H259.12068965517244 ZM279.8103448275862 279.8103448275862 H289.15517241379314 V289.15517241379314 H279.8103448275862 ZM5.172413793103448 290.15517241379314 L9.844827586206897 290.15517241379314 L9.844827586206897 294.8275862068966 L9.844827586206897 299.50000000000006 L5.172413793103448 299.50000000000006 L5.172413793103448 299.50000000000006 Q0.5 299.50000000000006 0.5 294.82758620689657 L0.5 290.15517241379314 L5.172413793103448 290.15517241379314M15.517241379310345 290.15517241379314 L20.189655172413794 290.15517241379314 L20.189655172413794 294.8275862068966 L20.189655172413794 299.50000000000006 L15.517241379310345 299.50000000000006 L10.844827586206897 299.50000000000006 L10.844827586206897 294.82758620689657 L10.844827586206897 290.15517241379314 L15.517241379310345 290.15517241379314M25.862068965517242 290.15517241379314 L30.53448275862069 290.15517241379314 L30.53448275862069 294.8275862068966 L30.53448275862069 299.50000000000006 L25.862068965517242 299.50000000000006 L21.189655172413794 299.50000000000006 L21.189655172413794 294.82758620689657 L21.189655172413794 290.15517241379314 L25.862068965517242 290.15517241379314M36.20689655172414 290.15517241379314 L40.87931034482759 290.15517241379314 L40.87931034482759 294.8275862068966 L40.87931034482759 299.50000000000006 L36.20689655172414 299.50000000000006 L31.53448275862069 299.50000000000006 L31.53448275862069 294.82758620689657 L31.53448275862069 290.15517241379314 L36.20689655172414 290.15517241379314M46.55172413793103 290.15517241379314 L51.224137931034484 290.15517241379314 L51.224137931034484 294.8275862068966 L51.224137931034484 299.50000000000006 L46.55172413793103 299.50000000000006 L41.87931034482759 299.50000000000006 L41.87931034482759 294.82758620689657 L41.87931034482759 290.15517241379314 L46.55172413793103 290.15517241379314M56.896551724137936 290.15517241379314 L61.56896551724138 290.15517241379314 L61.56896551724138 294.8275862068966 L61.56896551724138 299.50000000000006 L56.896551724137936 299.50000000000006 L52.224137931034484 299.50000000000006 L52.224137931034484 294.82758620689657 L52.224137931034484 290.15517241379314 L56.896551724137936 290.15517241379314M67.24137931034484 290.15517241379314 L71.91379310344828 290.15517241379314 L71.91379310344828 294.8275862068966 L71.91379310344828 294.8275862068966 Q71.91379310344828 299.50000000000006 67.24137931034483 299.50000000000006 L62.56896551724138 299.50000000000006 L62.56896551724138 294.82758620689657 L62.56896551724138 290.15517241379314 L67.24137931034484 290.15517241379314M93.60344827586206 290.15517241379314 H102.94827586206895 V299.50000000000006 H93.60344827586206 ZM114.29310344827587 290.15517241379314 H123.63793103448276 V299.50000000000006 H114.29310344827587 ZM124.63793103448276 290.15517241379314 H133.98275862068965 V299.50000000000006 H124.63793103448276 ZM145.32758620689657 290.15517241379314 H154.67241379310346 V299.50000000000006 H145.32758620689657 ZM176.36206896551724 290.15517241379314 H185.70689655172413 V299.50000000000006 H176.36206896551724 ZM186.70689655172413 290.15517241379314 H196.05172413793102 V299.50000000000006 H186.70689655172413 ZM228.08620689655174 290.15517241379314 H237.43103448275863 V299.50000000000006 H228.08620689655174 ZM248.77586206896552 290.15517241379314 H258.12068965517244 V299.50000000000006 H248.77586206896552 ZM269.4655172413793 290.15517241379314 H278.8103448275862 V299.50000000000006 H269.4655172413793 Z"/></svg>