<svg xmlns="http://www.w3.org/2000/svg" width="300" height="300" viewBox="0 0 300 300"><defs><radialGradient id="qr-g-ao26vt.chuck" cx="0.5" cy="0.5" r="0.5" gradientUnits="objectBoundingBox"><stop offset="0" stop-color="#0284c7"/><stop offset="1" stop-color="#0369a1"/></radialGradient></defs><path fill="#f0f9ff" d="M0 0h300v300H0z"/><path fill="url(#qr-g-ao26vt.chuck)" d="M5.172413793103448 0.5 L9.844827586206897 0.5 L9.844827586206897 5.172413793103448 L9.844827586206897 9.844827586206897 L5.172413793103448 9.844827586206897 L0.5 9.844827586206897 L0.5 5.172413793103448 L0.5 5.172413793103448 Q0.5 0.5 5.172413793103448 0.5M15.517241379310345 0.5 L20.189655172413794 0.5 L20.189655172413794 5.172413793103448 L20.189655172413794 9.844827586206897 L15.517241379310345 9.844827586206897 L10.844827586206897 9.844827586206897 L10.844827586206897 5.172413793103448 L10.844827586206897 0.5 L15.517241379310345 0.5M25.862068965517242 0.5 L30.53448275862069 0.5 L30.53448275862069 5.172413793103448 L30.53448275862069 9.844827586206897 L25.862068965517242 9.844827586206897 L21.189655172413794 9.844827586206897 L21.189655172413794 5.172413793103448 L21.189655172413794 0.5 L25.862068965517242 0.5M36.20689655172414 0.5 L40.87931034482759 0.5 L40.87931034482759 5.172413793103448 L40.87931034482759 9.844827586206897 L36.20689655172414 9.844827586206897 L31.53448275862069 9.844827586206897 L31.53448275862069 5.172413793103448 L31.53448275862069 0.5 L36.20689655172414 0.5M46.55172413793103 0.5 L51.224137931034484 0.5 L51.224137931034484 5.172413793103448 L51.224137931034484 9.844827586206897 L46.55172413793103 9.844827586206897 L41.87931034482759 9.844827586206897 L41.87931034482759 5.172413793103448 L41.87931034482759 0.5 L46.55172413793103 0.5M56.896551724137936 0.5 L61.56896551724138 0.5 L61.56896551724138 5.172413793103448 L61.56896551724138 9.844827586206897 L56.896551724137936 9.844827586206897 L52.224137931034484 9.844827586206897 L52.224137931034484 5.172413793103448 L52.224137931034484 0.5 L56.896551724137936 0.5M67.24137931034484 0.5 L67.24137931034484 0.5 Q71.91379310344828 0.5 71.91379310344828 5.172413793103448 L71.91379310344828 9.844827586206897 L67.24137931034483 9.844827586206897 L62.56896551724138 9.844827586206897 L62.56896551724138 5.172413793103448 L62.56896551724138 0.5 L67.24137931034484 0.5M87.93103448275862 0.5 L92.60344827586206 5.172413793103448 L87.93103448275862 9.844827586206897 L83.25862068965517 5.172413793103448 ZM108.62068965517241 0.5 L113.29310344827587 5.172413793103448 L108.62068965517241 9.844827586206897 L103.94827586206897 5.172413793103448 ZM129.31034482758622 0.5 L133.98275862068965 5.172413793103448 L129.31034482758622 9.844827586206897 L124.63793103448276 5.172413793103448 ZM160.34482758620692 0.5 L165.01724137931035 5.172413793103448 L160.34482758620692 9.844827586206897 L155.67241379310346 5.172413793103448 ZM191.3793103448276 0.5 L196.05172413793102 5.172413793103448 L191.3793103448276 9.844827586206897 L186.70689655172413 5.172413793103448 ZM212.0689655172414 0.5 L216.74137931034483 5.172413793103448 L212.0689655172414 9.844827586206897 L207.39655172413794 5.172413793103448 ZM232.75862068965517 0.5 L237.43103448275863 0.5 L237.43103448275863 5.172413793103448 L237.43103448275863 9.844827586206897 L232.7586206896552 9.844827586206897 L228.08620689655174 9.844827586206897 L228.08620689655174 5.172413793103448 L228.08620689655174 5.172413793103448 Q228.08620689655174 0.5 232.75862068965517 0.5M243.10344827586206 0.5 L247.77586206896552 0.5 L247.77586206896552 5.172413793103448 L247.77586206896552 9.844827586206897 L243.1034482758621 9.844827586206897 L238.43103448275863 9.844827586206897 L238.43103448275863 5.172413793103448 L238.43103448275863 0.5 L243.10344827586206 0.5M253.44827586206898 0.5 L258.12068965517244 0.5 L258.12068965517244 5.172413793103448 L258.12068965517244 9.844827586206897 L253.44827586206898 9.844827586206897 L248.77586206896552 9.844827586206897 L248.77586206896552 5.172413793103448 L248.77586206896552 0.5 L253.44827586206898 0.5M263.79310344827593 0.5 L268.46551724137936 0.5 L268.46551724137936 5.172413793103448 L268.46551724137936 9.844827586206897 L263.7931034482759 9.844827586206897 L259.12068965517244 9.844827586206897 L259.12068965517244 5.172413793103448 L259.12068965517244 0.5 L263.79310344827593 0.5M274.1379310344828 0.5 L278.8103448275862 0.5 L278.8103448275862 5.172413793103448 L278.8103448275862 9.844827586206897 L274.13793103448273 9.844827586206897 L269.4655172413793 9.844827586206897 L269.4655172413793 5.172413793103448 L269.4655172413793 0.5 L274.1379310344828 0.5M284.4827586206897 0.5 L289.15517241379314 0.5 L289.15517241379314 5.172413793103448 L289.15517241379314 9.844827586206897 L284.48275862068965 9.844827586206897 L279.8103448275862 9.844827586206897 L279.8103448275862 5.172413793103448 L279.8103448275862 0.5 L284.4827586206897 0.5M294.8275862068966 0.5 L294.8275862068966 0.5 Q299.50000000000006 0.5 299.50000000000006 5.172413793103448 L299.50000000000006 9.844827586206897 L294.82758620689657 9.844827586206897 L290.15517241379314 9.844827586206897 L290.15517241379314 5.172413793103448 L290.15517241379314 0.5 L294.8275862068966 0.5M5.172413793103448 10.844827586206897 L9.844827586206897 10.844827586206897 L9.844827586206897 15.517241379310345 L9.844827586206897 20.189655172413794 L5.172413793103448 20.189655172413794 L0.5 20.189655172413794 L0.5 15.517241379310345 L0.5 10.844827586206897 L5.172413793103448 10.844827586206897M67.24137931034484 10.844827586206897 L71.91379310344828 10.844827586206897 L71.91379310344828 15.517241379310345 L71.91379310344828 20.189655172413794 L67.24137931034483 20.189655172413794 L62.56896551724138 20.189655172413794 L62.56896551724138 15.517241379310345 L62.56896551724138 10.844827586206897 L67.24137931034484 10.844827586206897M87.93103448275862 10.844827586206897 L92.60344827586206 15.517241379310345 L87.93103448275862 20.189655172413794 L83.25862068965517 15.517241379310345 ZM98.27586206896551 10.844827586206897 L102.94827586206895 15.517241379310345 L98.27586206896551 20.189655172413794 L93.60344827586206 15.517241379310345 ZM118.96551724137932 10.844827586206897 L123.63793103448276 15.517241379310345 L118.96551724137932 20.189655172413794 L114.29310344827587 15.517241379310345 ZM129.31034482758622 10.844827586206897 L133.98275862068965 15.517241379310345 L129.31034482758622 20.189655172413794 L124.63793103448276 15.517241379310345 ZM139.6551724137931 10.844827586206897 L144.32758620689654 15.517241379310345 L139.6551724137931 20.189655172413794 L134.98275862068965 15.517241379310345 ZM150.00000000000003 10.844827586206897 L154.67241379310346 15.517241379310345 L150.00000000000003 20.189655172413794 L145.32758620689657 15.517241379310345 ZM191.3793103448276 10.844827586206897 L196.05172413793102 15.517241379310345 L191.3793103448276 20.189655172413794 L186.70689655172413 15.517241379310345 ZM201.7241379310345 10.844827586206897 L206.39655172413794 15.517241379310345 L201.7241379310345 20.189655172413794 L197.05172413793105 15.517241379310345 ZM232.75862068965517 10.844827586206897 L237.43103448275863 10.844827586206897 L237.43103448275863 15.517241379310345 L237.43103448275863 20.189655172413794 L232.7586206896552 20.189655172413794 L228.08620689655174 20.189655172413794 L228.08620689655174 15.517241379310345 L228.08620689655174 10.844827586206897 L232.75862068965517 10.844827586206897M294.8275862068966 10.844827586206897 L299.50000000000006 10.844827586206897 L299.50000000000006 15.517241379310345 L299.50000000000006 20.189655172413794 L294.82758620689657 20.189655172413794 L290.15517241379314 20.189655172413794 L290.15517241379314 15.517241379310345 L290.15517241379314 10.844827586206897 L294.8275862068966 10.844827586206897M5.172413793103448 21.189655172413794 L9.844827586206897 21.189655172413794 L9.844827586206897 25.862068965517242 L9.844827586206897 30.53448275862069 L5.172413793103448 30.53448275862069 L0.5 30.53448275862069 L0.5 25.862068965517242 L0.5 21.189655172413794 L5.172413793103448 21.189655172413794M25.862068965517242 21.189655172413794 L30.53448275862069 21.189655172413794 L30.53448275862069 25.862068965517242 L30.53448275862069 30.53448275862069 L25.862068965517242 30.53448275862069 L21.189655172413794 30.53448275862069 L21.189655172413794 25.862068965517242 L21.189655172413794 25.862068965517242 Q21.189655172413794 21.189655172413794 25.862068965517242 21.189655172413794M36.20689655172414 21.189655172413794 L40.87931034482759 21.189655172413794 L40.87931034482759 25.862068965517242 L40.87931034482759 30.53448275862069 L36.20689655172414 30.53448275862069 L31.53448275862069 30.53448275862069 L31.53448275862069 25.862068965517242 L31.53448275862069 21.189655172413794 L36.20689655172414 21.189655172413794M46.55172413793103 21.189655172413794 L46.55172413793103 21.189655172413794 Q51.224137931034484 21.189655172413794 51.224137931034484 25.862068965517242 L51.224137931034484 30.53448275862069 L46.55172413793103 30.53448275862069 L41.87931034482759 30.53448275862069 L41.87931034482759 25.862068965517242 L41.87931034482759 21.189655172413794 L46.55172413793103 21.189655172413794M67.24137931034484 21.189655172413794 L71.91379310344828 21.189655172413794 L71.91379310344828 25.862068965517242 L71.91379310344828 30.53448275862069 L67.24137931034483 30.53448275862069 L62.56896551724138 30.53448275862069 L62.56896551724138 25.862068965517242 L62.56896551724138 21.189655172413794 L67.24137931034484 21.189655172413794M87.93103448275862 21.189655172413794 L92.60344827586206 25.862068965517242 L87.93103448275862 30.53448275862069 L83.25862068965517 25.862068965517242 ZM98.27586206896551 21.189655172413794 L102.94827586206895 25.862068965517242 L98.27586206896551 30.53448275862069 L93.60344827586206 25.862068965517242 ZM108.62068965517241 21.189655172413794 L113.29310344827587 25.862068965517242 L108.62068965517241 30.53448275862069 L103.94827586206897 25.862068965517242 ZM129.31034482758622 21.189655172413794 L133.98275862068965 25.862068965517242 L129.31034482758622 30.53448275862069 L124.63793103448276 25.862068965517242 ZM139.6551724137931 21.189655172413794 L144.32758620689654 25.862068965517242 L139.6551724137931 30.53448275862069 L134.98275862068965 25.862068965517242 ZM201.7241379310345 21.189655172413794 L206.39655172413794 25.862068965517242 L201.7241379310345 30.53448275862069 L197.05172413793105 25.862068965517242 ZM212.0689655172414 21.189655172413794 L216.74137931034483 25.862068965517242 L212.0689655172414 30.53448275862069 L207.39655172413794 25.862068965517242 ZM232.75862068965517 21.189655172413794 L237.43103448275863 21.189655172413794 L237.43103448275863 25.862068965517242 L237.43103448275863 30.53448275862069 L232.7586206896552 30.53448275862069 L228.08620689655174 30.53448275862069 L228.08620689655174 25.862068965517242 L228.08620689655174 21.189655172413794 L232.75862068965517 21.189655172413794M253.44827586206898 21.189655172413794 L258.12068965517244 21.189655172413794 L258.12068965517244 25.862068965517242 L258.12068965517244 30.53448275862069 L253.44827586206898 30.53448275862069 L248.77586206896552 30.53448275862069 L248.77586206896552 25.862068965517242 L248.77586206896552 25.862068965517242 Q248.77586206896552 21.189655172413794 253.44827586206898 21.189655172413794M263.79310344827593 21.189655172413794 L268.46551724137936 21.189655172413794 L268.46551724137936 25.862068965517242 L268.46551724137936 30.53448275862069 L263.7931034482759 30.53448275862069 L259.12068965517244 30.53448275862069 L259.12068965517244 25.862068965517242 L259.12068965517244 21.189655172413794 L263.79310344827593 21.189655172413794M274.1379310344828 21.189655172413794 L274.1379310344828 21.189655172413794 Q278.8103448275862 21.189655172413794 278.8103448275862 25.862068965517242 L278.8103448275862 30.53448275862069 L274.13793103448273 30.53448275862069 L269.4655172413793 30.53448275862069 L269.4655172413793 25.862068965517242 L269.4655172413793 21.189655172413794 L274.1379310344828 21.189655172413794M294.8275862068966 21.189655172413794 L299.50000000000006 21.189655172413794 L299.50000000000006 25.862068965517242 L299.50000000000006 30.53448275862069 L294.82758620689657 30.53448275862069 L290.15517241379314 30.53448275862069 L290.15517241379314 25.862068965517242 L290.15517241379314 21.189655172413794 L294.8275862068966 21.189655172413794M5.172413793103448 31.53448275862069 L9.844827586206897 31.53448275862069 L9.844827586206897 36.20689655172414 L9.844827586206897 40.87931034482759 L5.172413793103448 40.87931034482759 L0.5 40.87931034482759 L0.5 36.20689655172414 L0.5 31.53448275862069 L5.172413793103448 31.53448275862069M25.862068965517242 31.53448275862069 L30.53448275862069 31.53448275862069 L30.53448275862069 36.20689655172414 L30.53448275862069 40.87931034482759 L25.862068965517242 40.87931034482759 L21.189655172413794 40.87931034482759 L21.189655172413794 36.20689655172414 L21.189655172413794 31.53448275862069 L25.862068965517242 31.53448275862069M36.20689655172414 31.53448275862069 L40.87931034482759 31.53448275862069 L40.87931034482759 36.20689655172414 L40.87931034482759 40.87931034482759 L36.20689655172414 40.87931034482759 L31.53448275862069 40.87931034482759 L31.53448275862069 36.20689655172414 L31.53448275862069 31.53448275862069 L36.20689655172414 31.53448275862069M46.55172413793103 31.53448275862069 L51.224137931034484 31.53448275862069 L51.224137931034484 36.20689655172414 L51.224137931034484 40.87931034482759 L46.55172413793103 40.87931034482759 L41.87931034482759 40.87931034482759 L41.87931034482759 36.20689655172414 L41.87931034482759 31.53448275862069 L46.55172413793103 31.53448275862069M67.24137931034484 31.53448275862069 L71.91379310344828 31.53448275862069 L71.91379310344828 36.20689655172414 L71.91379310344828 40.87931034482759 L67.24137931034483 40.87931034482759 L62.56896551724138 40.87931034482759 L62.56896551724138 36.20689655172414 L62.56896551724138 31.53448275862069 L67.24137931034484 31.53448275862069M98.27586206896551 31.53448275862069 L102.94827586206895 36.20689655172414 L98.27586206896551 40.87931034482759 L93.60344827586206 36.20689655172414 ZM118.96551724137932 31.53448275862069 L123.63793103448276 36.20689655172414 L118.96551724137932 40.87931034482759 L114.29310344827587 36.20689655172414 ZM139.6551724137931 31.53448275862069 L144.32758620689654 36.20689655172414 L139.6551724137931 40.87931034482759 L134.98275862068965 36.20689655172414 ZM160.34482758620692 31.53448275862069 L165.01724137931035 36.20689655172414 L160.34482758620692 40.87931034482759 L155.67241379310346 36.20689655172414 ZM170.6896551724138 31.53448275862069 L175.36206896551724 36.20689655172414 L170.6896551724138 40.87931034482759 L166.01724137931035 36.20689655172414 ZM181.0344827586207 31.53448275862069 L185.70689655172413 36.20689655172414 L181.0344827586207 40.87931034482759 L176.36206896551724 36.20689655172414 ZM201.7241379310345 31.53448275862069 L206.39655172413794 36.20689655172414 L201.7241379310345 40.87931034482759 L197.05172413793105 36.20689655172414 ZM232.75862068965517 31.53448275862069 L237.43103448275863 31.53448275862069 L237.43103448275863 36.20689655172414 L237.43103448275863 40.87931034482759 L232.7586206896552 40.87931034482759 L228.08620689655174 40.87931034482759 L228.08620689655174 36.20689655172414 L228.08620689655174 31.53448275862069 L232.75862068965517 31.53448275862069M253.44827586206898 31.53448275862069 L258.12068965517244 31.53448275862069 L258.12068965517244 36.20689655172414 L258.12068965517244 40.87931034482759 L253.44827586206898 40.87931034482759 L248.77586206896552 40.87931034482759 L248.77586206896552 36.20689655172414 L248.77586206896552 31.53448275862069 L253.44827586206898 31.53448275862069M263.79310344827593 31.53448275862069 L268.46551724137936 31.53448275862069 L268.46551724137936 36.20689655172414 L268.46551724137936 40.87931034482759 L263.7931034482759 40.87931034482759 L259.12068965517244 40.87931034482759 L259.12068965517244 36.20689655172414 L259.12068965517244 31.53448275862069 L263.79310344827593 31.53448275862069M274.1379310344828 31.53448275862069 L278.8103448275862 31.53448275862069 L278.8103448275862 36.20689655172414 L278.8103448275862 40.87931034482759 L274.13793103448273 40.87931034482759 L269.4655172413793 40.87931034482759 L269.4655172413793 36.20689655172414 L269.4655172413793 31.53448275862069 L274.1379310344828 31.53448275862069M294.8275862068966 31.53448275862069 L299.50000000000006 31.53448275862069 L299.50000000000006 36.20689655172414 L299.50000000000006 40.87931034482759 L294.82758620689657 40.87931034482759 L290.15517241379314 40.87931034482759 L290.15517241379314 36.20689655172414 L290.15517241379314 31.53448275862069 L294.8275862068966 31.53448275862069M5.172413793103448 41.87931034482759 L9.844827586206897 41.87931034482759 L9.844827586206897 46.55172413793103 L9.844827586206897 51.224137931034484 L5.172413793103448 51.224137931034484 L0.5 51.224137931034484 L0.5 46.55172413793103 L0.5 41.87931034482759 L5.172413793103448 41.87931034482759M25.862068965517242 41.87931034482759 L30.53448275862069 41.87931034482759 L30.53448275862069 46.55172413793103 L30.53448275862069 51.224137931034484 L25.862068965517242 51.224137931034484 L25.862068965517242 51.224137931034484 Q21.189655172413794 51.224137931034484 21.189655172413794 46.55172413793103 L21.189655172413794 41.87931034482759 L25.862068965517242 41.87931034482759M36.20689655172414 41.87931034482759 L40.87931034482759 41.87931034482759 L40.87931034482759 46.55172413793103 L40.87931034482759 51.224137931034484 L36.20689655172414 51.224137931034484 L31.53448275862069 51.224137931034484 L31.53448275862069 46.55172413793103 L31.53448275862069 41.87931034482759 L36.20689655172414 41.87931034482759M46.55172413793103 41.87931034482759 L51.224137931034484 41.87931034482759 L51.224137931034484 46.55172413793103 L51.224137931034484 46.55172413793103 Q51.224137931034484 51.224137931034484 46.55172413793103 51.224137931034484 L41.87931034482759 51.224137931034484 L41.87931034482759 46.55172413793103 L41.87931034482759 41.87931034482759 L46.55172413793103 41.87931034482759M67.24137931034484 41.87931034482759 L71.91379310344828 41.87931034482759 L71.91379310344828 46.55172413793103 L71.91379310344828 51.224137931034484 L67.24137931034483 51.224137931034484 L62.56896551724138 51.224137931034484 L62.56896551724138 46.55172413793103 L62.56896551724138 41.87931034482759 L67.24137931034484 41.87931034482759M98.27586206896551 41.87931034482759 L102.94827586206895 46.55172413793103 L98.27586206896551 51.224137931034484 L93.60344827586206 46.55172413793103 ZM139.6551724137931 41.87931034482759 L144.32758620689654 46.55172413793103 L139.6551724137931 51.224137931034484 L134.98275862068965 46.55172413793103 ZM150.00000000000003 41.87931034482759 L154.67241379310346 46.55172413793103 L150.00000000000003 51.224137931034484 L145.32758620689657 46.55172413793103 ZM170.6896551724138 41.87931034482759 L175.36206896551724 46.55172413793103 L170.6896551724138 51.224137931034484 L166.01724137931035 46.55172413793103 ZM191.3793103448276 41.87931034482759 L196.05172413793102 46.55172413793103 L191.3793103448276 51.224137931034484 L186.70689655172413 46.55172413793103 ZM201.7241379310345 41.87931034482759 L206.39655172413794 46.55172413793103 L201.7241379310345 51.224137931034484 L197.05172413793105 46.55172413793103 ZM212.0689655172414 41.87931034482759 L216.74137931034483 46.55172413793103 L212.0689655172414 51.224137931034484 L207.39655172413794 46.55172413793103 ZM232.75862068965517 41.87931034482759 L237.43103448275863 41.87931034482759 L237.43103448275863 46.55172413793103 L237.43103448275863 51.224137931034484 L232.7586206896552 51.224137931034484 L228.08620689655174 51.224137931034484 L228.08620689655174 46.55172413793103 L228.08620689655174 41.87931034482759 L232.75862068965517 41.87931034482759M253.44827586206898 41.87931034482759 L258.12068965517244 41.87931034482759 L258.12068965517244 46.55172413793103 L258.12068965517244 51.224137931034484 L253.44827586206898 51.224137931034484 L253.44827586206898 51.224137931034484 Q248.77586206896552 51.224137931034484 248.77586206896552 46.55172413793103 L248.77586206896552 41.87931034482759 L253.44827586206898 41.87931034482759M263.79310344827593 41.87931034482759 L268.46551724137936 41.87931034482759 L268.46551724137936 46.55172413793103 L268.46551724137936 51.224137931034484 L263.7931034482759 51.224137931034484 L259.12068965517244 51.224137931034484 L259.12068965517244 46.55172413793103 L259.12068965517244 41.87931034482759 L263.79310344827593 41.87931034482759M274.1379310344828 41.87931034482759 L278.8103448275862 41.87931034482759 L278.8103448275862 46.55172413793103 L278.8103448275862 46.55172413793103 Q278.8103448275862 51.224137931034484 274.13793103448273 51.224137931034484 L269.4655172413793 51.224137931034484 L269.4655172413793 46.55172413793103 L269.4655172413793 41.87931034482759 L274.1379310344828 41.87931034482759M294.8275862068966 41.87931034482759 L299.50000000000006 41.87931034482759 L299.50000000000006 46.55172413793103 L299.50000000000006 51.224137931034484 L294.82758620689657 51.224137931034484 L290.15517241379314 51.224137931034484 L290.15517241379314 46.55172413793103 L290.15517241379314 41.87931034482759 L294.8275862068966 41.87931034482759M5.172413793103448 52.224137931034484 L9.844827586206897 52.224137931034484 L9.844827586206897 56.896551724137936 L9.844827586206897 61.56896551724138 L5.172413793103448 61.56896551724138 L0.5 61.56896551724138 L0.5 56.896551724137936 L0.5 52.224137931034484 L5.172413793103448 52.224137931034484M67.24137931034484 52.224137931034484 L71.91379310344828 52.224137931034484 L71.91379310344828 56.896551724137936 L71.91379310344828 61.56896551724138 L67.24137931034483 61.56896551724138 L62.56896551724138 61.56896551724138 L62.56896551724138 56.896551724137936 L62.56896551724138 52.224137931034484 L67.24137931034484 52.224137931034484M87.93103448275862 52.224137931034484 L92.60344827586206 56.896551724137936 L87.93103448275862 61.56896551724138 L83.25862068965517 56.896551724137936 ZM139.6551724137931 52.224137931034484 L144.32758620689654 56.896551724137936 L139.6551724137931 61.56896551724138 L134.98275862068965 56.896551724137936 ZM150.00000000000003 52.224137931034484 L154.67241379310346 56.896551724137936 L150.00000000000003 61.56896551724138 L145.32758620689657 56.896551724137936 ZM160.34482758620692 52.224137931034484 L165.01724137931035 56.896551724137936 L160.34482758620692 61.56896551724138 L155.67241379310346 56.896551724137936 ZM191.3793103448276 52.224137931034484 L196.05172413793102 56.896551724137936 L191.3793103448276 61.56896551724138 L186.70689655172413 56.896551724137936 ZM212.0689655172414 52.224137931034484 L216.74137931034483 56.896551724137936 L212.0689655172414 61.56896551724138 L207.39655172413794 56.896551724137936 ZM232.75862068965517 52.224137931034484 L237.43103448275863 52.224137931034484 L237.43103448275863 56.896551724137936 L237.43103448275863 61.56896551724138 L232.7586206896552 61.56896551724138 L228.08620689655174 61.56896551724138 L228.08620689655174 56.896551724137936 L228.08620689655174 52.224137931034484 L232.75862068965517 52.224137931034484M294.8275862068966 52.224137931034484 L299.50000000000006 52.224137931034484 L299.50000000000006 56.896551724137936 L299.50000000000006 61.56896551724138 L294.82758620689657 61.56896551724138 L290.15517241379314 61.56896551724138 L290.15517241379314 56.896551724137936 L290.15517241379314 52.224137931034484 L294.8275862068966 52.224137931034484M5.172413793103448 62.56896551724138 L9.844827586206897 62.56896551724138 L9.844827586206897 67.24137931034484 L9.844827586206897 71.91379310344828 L5.172413793103448 71.91379310344828 L5.172413793103448 71.91379310344828 Q0.5 71.91379310344828 0.5 67.24137931034483 L0.5 62.56896551724138 L5.172413793103448 62.56896551724138M15.517241379310345 62.56896551724138 L20.189655172413794 62.56896551724138 L20.189655172413794 67.24137931034484 L20.189655172413794 71.91379310344828 L15.517241379310345 71.91379310344828 L10.844827586206897 71.91379310344828 L10.844827586206897 67.24137931034483 L10.844827586206897 62.56896551724138 L15.517241379310345 62.56896551724138M25.862068965517242 62.56896551724138 L30.53448275862069 62.56896551724138 L30.53448275862069 67.24137931034484 L30.53448275862069 71.91379310344828 L25.862068965517242 71.91379310344828 L21.189655172413794 71.91379310344828 L21.189655172413794 67.24137931034483 L21.189655172413794 62.56896551724138 L25.862068965517242 62.56896551724138M36.20689655172414 62.56896551724138 L40.87931034482759 62.56896551724138 L40.87931034482759 67.24137931034484 L40.87931034482759 71.91379310344828 L36.20689655172414 71.91379310344828 L31.53448275862069 71.91379310344828 L31.53448275862069 67.24137931034483 L31.53448275862069 62.56896551724138 L36.20689655172414 62.56896551724138M46.55172413793103 62.56896551724138 L51.224137931034484 62.56896551724138 L51.224137931034484 67.24137931034484 L51.224137931034484 71.91379310344828 L46.55172413793103 71.91379310344828 L41.87931034482759 71.91379310344828 L41.87931034482759 67.24137931034483 L41.87931034482759 62.56896551724138 L46.55172413793103 62.56896551724138M56.896551724137936 62.56896551724138 L61.56896551724138 62.56896551724138 L61.56896551724138 67.24137931034484 L61.56896551724138 71.91379310344828 L56.896551724137936 71.91379310344828 L52.224137931034484 71.91379310344828 L52.224137931034484 67.24137931034483 L52.224137931034484 62.56896551724138 L56.896551724137936 62.56896551724138M67.24137931034484 62.56896551724138 L71.91379310344828 62.56896551724138 L71.91379310344828 67.24137931034484 L71.91379310344828 67.24137931034484 Q71.91379310344828 71.91379310344828 67.24137931034483 71.91379310344828 L62.56896551724138 71.91379310344828 L62.56896551724138 67.24137931034483 L62.56896551724138 62.56896551724138 L67.24137931034484 62.56896551724138M87.93103448275862 62.56896551724138 L92.60344827586206 67.24137931034483 L87.93103448275862 71.91379310344828 L83.25862068965517 67.24137931034483 ZM108.62068965517241 62.56896551724138 L113.29310344827587 67.24137931034483 L108.62068965517241 71.91379310344828 L103.94827586206897 67.24137931034483 ZM129.31034482758622 62.56896551724138 L133.98275862068965 67.24137931034483 L129.31034482758622 71.91379310344828 L124.63793103448276 67.24137931034483 ZM150.00000000000003 62.56896551724138 L154.67241379310346 67.24137931034483 L150.00000000000003 71.91379310344828 L145.32758620689657 67.24137931034483 ZM170.6896551724138 62.56896551724138 L175.36206896551724 67.24137931034483 L170.6896551724138 71.91379310344828 L166.01724137931035 67.24137931034483 ZM191.3793103448276 62.56896551724138 L196.05172413793102 67.24137931034483 L191.3793103448276 71.91379310344828 L186.70689655172413 67.24137931034483 ZM212.0689655172414 62.56896551724138 L216.74137931034483 67.24137931034483 L212.0689655172414 71.91379310344828 L207.39655172413794 67.24137931034483 ZM232.75862068965517 62.56896551724138 L237.43103448275863 62.56896551724138 L237.43103448275863 67.24137931034484 L237.43103448275863 71.91379310344828 L232.7586206896552 71.91379310344828 L232.7586206896552 71.91379310344828 Q228.08620689655174 71.91379310344828 228.08620689655174 67.24137931034483 L228.08620689655174 62.56896551724138 L232.75862068965517 62.56896551724138M243.10344827586206 62.56896551724138 L247.77586206896552 62.56896551724138 L247.77586206896552 67.24137931034484 L247.77586206896552 71.91379310344828 L243.1034482758621 71.91379310344828 L238.43103448275863 71.91379310344828 L238.43103448275863 67.24137931034483 L238.43103448275863 62.56896551724138 L243.10344827586206 62.56896551724138M253.44827586206898 62.56896551724138 L258.12068965517244 62.56896551724138 L258.12068965517244 67.24137931034484 L258.12068965517244 71.91379310344828 L253.44827586206898 71.91379310344828 L248.77586206896552 71.91379310344828 L248.77586206896552 67.24137931034483 L248.77586206896552 62.56896551724138 L253.44827586206898 62.56896551724138M263.79310344827593 62.56896551724138 L268.46551724137936 62.56896551724138 L268.46551724137936 67.24137931034484 L268.46551724137936 71.91379310344828 L263.7931034482759 71.91379310344828 L259.12068965517244 71.91379310344828 L259.12068965517244 67.24137931034483 L259.12068965517244 62.56896551724138 L263.79310344827593 62.56896551724138M274.1379310344828 62.56896551724138 L278.8103448275862 62.56896551724138 L278.8103448275862 67.24137931034484 L278.8103448275862 71.91379310344828 L274.13793103448273 71.91379310344828 L269.4655172413793 71.91379310344828 L269.4655172413793 67.24137931034483 L269.4655172413793 62.56896551724138 L274.1379310344828 62.56896551724138M284.4827586206897 62.56896551724138 L289.15517241379314 62.56896551724138 L289.15517241379314 67.24137931034484 L289.15517241379314 71.91379310344828 L284.48275862068965 71.91379310344828 L279.8103448275862 71.91379310344828 L279.8103448275862 67.24137931034483 L279.8103448275862 62.56896551724138 L284.4827586206897 62.56896551724138M294.8275862068966 62.56896551724138 L299.50000000000006 62.56896551724138 L299.50000000000006 67.24137931034484 L299.50000000000006 67.24137931034484 Q299.50000000000006 71.91379310344828 294.82758620689657 71.91379310344828 L290.15517241379314 71.91379310344828 L290.15517241379314 67.24137931034483 L290.15517241379314 62.56896551724138 L294.8275862068966 62.56896551724138M87.93103448275862 72.91379310344828 L92.60344827586206 77.58620689655173 L87.93103448275862 82.25862068965517 L83.25862068965517 77.58620689655173 ZM129.31034482758622 72.91379310344828 L133.98275862068965 77.58620689655173 L129.31034482758622 82.25862068965517 L124.63793103448276 77.58620689655173 ZM160.34482758620692 72.91379310344828 L165.01724137931035 77.58620689655173 L160.34482758620692 82.25862068965517 L155.67241379310346 77.58620689655173 ZM212.0689655172414 72.91379310344828 L216.74137931034483 77.58620689655173 L212.0689655172414 82.25862068965517 L207.39655172413794 77.58620689655173 ZM25.862068965517242 83.25862068965517 L30.53448275862069 87.93103448275862 L25.862068965517242 92.60344827586206 L21.189655172413794 87.93103448275862 ZM36.20689655172414 83.25862068965517 L40.87931034482759 87.93103448275862 L36.20689655172414 92.60344827586206 L31.53448275862069 87.93103448275862 ZM46.55172413793103 83.25862068965517 L51.224137931034484 87.93103448275862 L46.55172413793103 92.60344827586206 L41.87931034482759 87.93103448275862 ZM67.24137931034483 83.25862068965517 L71.91379310344828 87.93103448275862 L67.24137931034483 92.60344827586206 L62.56896551724138 87.93103448275862 ZM87.93103448275862 83.25862068965517 L92.60344827586206 87.93103448275862 L87.93103448275862 92.60344827586206 L83.25862068965517 87.93103448275862 ZM118.96551724137932 83.25862068965517 L123.63793103448276 87.93103448275862 L118.96551724137932 92.60344827586206 L114.29310344827587 87.93103448275862 ZM139.6551724137931 83.25862068965517 L144.32758620689654 87.93103448275862 L139.6551724137931 92.60344827586206 L134.98275862068965 87.93103448275862 ZM150.00000000000003 83.25862068965517 L154.67241379310346 87.93103448275862 L150.00000000000003 92.60344827586206 L145.32758620689657 87.93103448275862 ZM191.3793103448276 83.25862068965517 L196.05172413793102 87.93103448275862 L191.3793103448276 92.60344827586206 L186.70689655172413 87.93103448275862 ZM212.0689655172414 83.25862068965517 L216.74137931034483 87.93103448275862 L212.0689655172414 92.60344827586206 L207.39655172413794 87.93103448275862 ZM222.41379310344828 83.25862068965517 L227.08620689655172 87.93103448275862 L222.41379310344828 92.60344827586206 L217.74137931034483 87.93103448275862 ZM232.7586206896552 83.25862068965517 L237.43103448275863 87.93103448275862 L232.7586206896552 92.60344827586206 L228.08620689655174 87.93103448275862 ZM243.1034482758621 83.25862068965517 L247.77586206896552 87.93103448275862 L243.1034482758621 92.60344827586206 L238.43103448275863 87.93103448275862 ZM274.13793103448273 83.25862068965517 L278.8103448275862 87.93103448275862 L274.13793103448273 92.60344827586206 L269.4655172413793 87.93103448275862 ZM284.48275862068965 83.25862068965517 L289.15517241379314 87.93103448275862 L284.48275862068965 92.60344827586206 L279.8103448275862 87.93103448275862 ZM294.82758620689657 83.25862068965517 L299.50000000000006 87.93103448275862 L294.82758620689657 92.60344827586206 L290.15517241379314 87.93103448275862 ZM25.862068965517242 93.60344827586206 L30.53448275862069 98.27586206896551 L25.862068965517242 102.94827586206895 L21.189655172413794 98.27586206896551 ZM36.20689655172414 93.60344827586206 L40.87931034482759 98.27586206896551 L36.20689655172414 102.94827586206895 L31.53448275862069 98.27586206896551 ZM46.55172413793103 93.60344827586206 L51.224137931034484 98.27586206896551 L46.55172413793103 102.94827586206895 L41.87931034482759 98.27586206896551 ZM87.93103448275862 93.60344827586206 L92.60344827586206 98.27586206896551 L87.93103448275862 102.94827586206895 L83.25862068965517 98.27586206896551 ZM98.27586206896551 93.60344827586206 L102.94827586206895 98.27586206896551 L98.27586206896551 102.94827586206895 L93.60344827586206 98.27586206896551 ZM108.62068965517241 93.60344827586206 L113.29310344827587 98.27586206896551 L108.62068965517241 102.94827586206895 L103.94827586206897 98.27586206896551 ZM118.96551724137932 93.60344827586206 L123.63793103448276 98.27586206896551 L118.96551724137932 102.94827586206895 L114.29310344827587 98.27586206896551 ZM139.6551724137931 93.60344827586206 L144.32758620689654 98.27586206896551 L139.6551724137931 102.94827586206895 L134.98275862068965 98.27586206896551 ZM150.00000000000003 93.60344827586206 L154.67241379310346 98.27586206896551 L150.00000000000003 102.94827586206895 L145.32758620689657 98.27586206896551 ZM160.34482758620692 93.60344827586206 L165.01724137931035 98.27586206896551 L160.34482758620692 102.94827586206895 L155.67241379310346 98.27586206896551 ZM181.0344827586207 93.60344827586206 L185.70689655172413 98.27586206896551 L181.0344827586207 102.94827586206895 L176.36206896551724 98.27586206896551 ZM222.41379310344828 93.60344827586206 L227.08620689655172 98.27586206896551 L222.41379310344828 102.94827586206895 L217.74137931034483 98.27586206896551 ZM232.7586206896552 93.60344827586206 L237.43103448275863 98.27586206896551 L232.7586206896552 102.94827586206895 L228.08620689655174 98.27586206896551 ZM243.1034482758621 93.60344827586206 L247.77586206896552 98.27586206896551 L243.1034482758621 102.94827586206895 L238.43103448275863 98.27586206896551 ZM253.44827586206898 93.60344827586206 L258.12068965517244 98.27586206896551 L253.44827586206898 102.94827586206895 L248.77586206896552 98.27586206896551 ZM263.7931034482759 93.60344827586206 L268.46551724137936 98.27586206896551 L263.7931034482759 102.94827586206895 L259.12068965517244 98.27586206896551 ZM294.82758620689657 93.60344827586206 L299.50000000000006 98.27586206896551 L294.82758620689657 102.94827586206895 L290.15517241379314 98.27586206896551 ZM5.172413793103448 103.94827586206897 L9.844827586206897 108.62068965517241 L5.172413793103448 113.29310344827587 L0.5 108.62068965517241 ZM15.517241379310345 103.94827586206897 L20.189655172413794 108.62068965517241 L15.517241379310345 113.29310344827587 L10.844827586206897 108.62068965517241 ZM25.862068965517242 103.94827586206897 L30.53448275862069 108.62068965517241 L25.862068965517242 113.29310344827587 L21.189655172413794 108.62068965517241 ZM36.20689655172414 103.94827586206897 L40.87931034482759 108.62068965517241 L36.20689655172414 113.29310344827587 L31.53448275862069 108.62068965517241 ZM46.55172413793103 103.94827586206897 L51.224137931034484 108.62068965517241 L46.55172413793103 113.29310344827587 L41.87931034482759 108.62068965517241 ZM67.24137931034483 103.94827586206897 L71.91379310344828 108.62068965517241 L67.24137931034483 113.29310344827587 L62.56896551724138 108.62068965517241 ZM118.96551724137932 103.94827586206897 L123.63793103448276 108.62068965517241 L118.96551724137932 113.29310344827587 L114.29310344827587 108.62068965517241 ZM160.34482758620692 103.94827586206897 L165.01724137931035 108.62068965517241 L160.34482758620692 113.29310344827587 L155.67241379310346 108.62068965517241 ZM191.3793103448276 103.94827586206897 L196.05172413793102 108.62068965517241 L191.3793103448276 113.29310344827587 L186.70689655172413 108.62068965517241 ZM212.0689655172414 103.94827586206897 L216.74137931034483 108.62068965517241 L212.0689655172414 113.29310344827587 L207.39655172413794 108.62068965517241 ZM222.41379310344828 103.94827586206897 L227.08620689655172 108.62068965517241 L222.41379310344828 113.29310344827587 L217.74137931034483 108.62068965517241 ZM232.7586206896552 103.94827586206897 L237.43103448275863 108.62068965517241 L232.7586206896552 113.29310344827587 L228.08620689655174 108.62068965517241 ZM243.1034482758621 103.94827586206897 L247.77586206896552 108.62068965517241 L243.1034482758621 113.29310344827587 L238.43103448275863 108.62068965517241 ZM5.172413793103448 114.29310344827587 L9.844827586206897 118.96551724137932 L5.172413793103448 123.63793103448276 L0.5 118.96551724137932 ZM15.517241379310345 114.29310344827587 L20.189655172413794 118.96551724137932 L15.517241379310345 123.63793103448276 L10.844827586206897 118.96551724137932 ZM25.862068965517242 114.29310344827587 L30.53448275862069 118.96551724137932 L25.862068965517242 123.63793103448276 L21.189655172413794 118.96551724137932 ZM36.20689655172414 114.29310344827587 L40.87931034482759 118.96551724137932 L36.20689655172414 123.63793103448276 L31.53448275862069 118.96551724137932 ZM46.55172413793103 114.29310344827587 L51.224137931034484 118.96551724137932 L46.55172413793103 123.63793103448276 L41.87931034482759 118.96551724137932 ZM56.896551724137936 114.29310344827587 L61.56896551724138 118.96551724137932 L56.896551724137936 123.63793103448276 L52.224137931034484 118.96551724137932 ZM77.58620689655173 114.29310344827587 L82.25862068965517 118.96551724137932 L77.58620689655173 123.63793103448276 L72.91379310344828 118.96551724137932 ZM98.27586206896551 114.29310344827587 L102.94827586206895 118.96551724137932 L98.27586206896551 123.63793103448276 L93.60344827586206 118.96551724137932 ZM118.96551724137932 114.29310344827587 L123.63793103448276 118.96551724137932 L118.96551724137932 123.63793103448276 L114.29310344827587 118.96551724137932 ZM150.00000000000003 114.29310344827587 L154.67241379310346 118.96551724137932 L150.00000000000003 123.63793103448276 L145.32758620689657 118.96551724137932 ZM160.34482758620692 114.29310344827587 L165.01724137931035 118.96551724137932 L160.34482758620692 123.63793103448276 L155.67241379310346 118.96551724137932 ZM191.3793103448276 114.29310344827587 L196.05172413793102 118.96551724137932 L191.3793103448276 123.63793103448276 L186.70689655172413 118.96551724137932 ZM222.41379310344828 114.29310344827587 L227.08620689655172 118.96551724137932 L222.41379310344828 123.63793103448276 L217.74137931034483 118.96551724137932 ZM232.7586206896552 114.29310344827587 L237.43103448275863 118.96551724137932 L232.7586206896552 123.63793103448276 L228.08620689655174 118.96551724137932 ZM243.1034482758621 114.29310344827587 L247.77586206896552 118.96551724137932 L243.1034482758621 123.63793103448276 L238.43103448275863 118.96551724137932 ZM263.7931034482759 114.29310344827587 L268.46551724137936 118.96551724137932 L263.7931034482759 123.63793103448276 L259.12068965517244 118.96551724137932 ZM284.48275862068965 114.29310344827587 L289.15517241379314 118.96551724137932 L284.48275862068965 123.63793103448276 L279.8103448275862 118.96551724137932 ZM5.172413793103448 124.63793103448276 L9.844827586206897 129.31034482758622 L5.172413793103448 133.98275862068965 L0.5 129.31034482758622 ZM25.862068965517242 124.63793103448276 L30.53448275862069 129.31034482758622 L25.862068965517242 133.98275862068965 L21.189655172413794 129.31034482758622 ZM46.55172413793103 124.63793103448276 L51.224137931034484 129.31034482758622 L46.55172413793103 133.98275862068965 L41.87931034482759 129.31034482758622 ZM56.896551724137936 124.63793103448276 L61.56896551724138 129.31034482758622 L56.896551724137936 133.98275862068965 L52.224137931034484 129.31034482758622 ZM67.24137931034483 124.63793103448276 L71.91379310344828 129.31034482758622 L67.24137931034483 133.98275862068965 L62.56896551724138 129.31034482758622 ZM77.58620689655173 124.63793103448276 L82.25862068965517 129.31034482758622 L77.58620689655173 133.98275862068965 L72.91379310344828 129.31034482758622 ZM87.93103448275862 124.63793103448276 L92.60344827586206 129.31034482758622 L87.93103448275862 133.98275862068965 L83.25862068965517 129.31034482758622 ZM98.27586206896551 124.63793103448276 L102.94827586206895 129.31034482758622 L98.27586206896551 133.98275862068965 L93.60344827586206 129.31034482758622 ZM118.96551724137932 124.63793103448276 L123.63793103448276 129.31034482758622 L118.96551724137932 133.98275862068965 L114.29310344827587 129.31034482758622 ZM139.6551724137931 124.63793103448276 L144.32758620689654 129.31034482758622 L139.6551724137931 133.98275862068965 L134.98275862068965 129.31034482758622 ZM150.00000000000003 124.63793103448276 L154.67241379310346 129.31034482758622 L150.00000000000003 133.98275862068965 L145.32758620689657 129.31034482758622 ZM170.6896551724138 124.63793103448276 L175.36206896551724 129.31034482758622 L170.6896551724138 133.98275862068965 L166.01724137931035 129.31034482758622 ZM222.41379310344828 124.63793103448276 L227.08620689655172 129.31034482758622 L222.41379310344828 133.98275862068965 L217.74137931034483 129.31034482758622 ZM243.1034482758621 124.63793103448276 L247.77586206896552 129.31034482758622 L243.1034482758621 133.98275862068965 L238.43103448275863 129.31034482758622 ZM274.13793103448273 124.63793103448276 L278.8103448275862 129.31034482758622 L274.13793103448273 133.98275862068965 L269.4655172413793 129.31034482758622 ZM284.48275862068965 124.63793103448276 L289.15517241379314 129.31034482758622 L284.48275862068965 133.98275862068965 L279.8103448275862 129.31034482758622 ZM294.82758620689657 124.63793103448276 L299.50000000000006 129.31034482758622 L294.82758620689657 133.98275862068965 L290.15517241379314 129.31034482758622 ZM15.517241379310345 134.98275862068965 L20.189655172413794 139.6551724137931 L15.517241379310345 144.32758620689654 L10.844827586206897 139.6551724137931 ZM25.862068965517242 134.98275862068965 L30.53448275862069 139.6551724137931 L25.862068965517242 144.32758620689654 L21.189655172413794 139.6551724137931 ZM56.896551724137936 134.98275862068965 L61.56896551724138 139.6551724137931 L56.896551724137936 144.32758620689654 L52.224137931034484 139.6551724137931 ZM77.58620689655173 134.98275862068965 L82.25862068965517 139.6551724137931 L77.58620689655173 144.32758620689654 L72.91379310344828 139.6551724137931 ZM87.93103448275862 134.98275862068965 L92.60344827586206 139.6551724137931 L87.93103448275862 144.32758620689654 L83.25862068965517 139.6551724137931 ZM98.27586206896551 134.98275862068965 L102.94827586206895 139.6551724137931 L98.27586206896551 144.32758620689654 L93.60344827586206 139.6551724137931 ZM108.62068965517241 134.98275862068965 L113.29310344827587 139.6551724137931 L108.62068965517241 144.32758620689654 L103.94827586206897 139.6551724137931 ZM118.96551724137932 134.98275862068965 L123.63793103448276 139.6551724137931 L118.96551724137932 144.32758620689654 L114.29310344827587 139.6551724137931 ZM129.31034482758622 134.98275862068965 L133.98275862068965 139.6551724137931 L129.31034482758622 144.32758620689654 L124.63793103448276 139.6551724137931 ZM150.00000000000003 134.98275862068965 L154.67241379310346 139.6551724137931 L150.00000000000003 144.32758620689654 L145.32758620689657 139.6551724137931 ZM170.6896551724138 134.98275862068965 L175.36206896551724 139.6551724137931 L170.6896551724138 144.32758620689654 L166.01724137931035 139.6551724137931 ZM181.0344827586207 134.98275862068965 L185.70689655172413 139.6551724137931 L181.0344827586207 144.32758620689654 L176.36206896551724 139.6551724137931 ZM191.3793103448276 134.98275862068965 L196.05172413793102 139.6551724137931 L191.3793103448276 144.32758620689654 L186.70689655172413 139.6551724137931 ZM201.7241379310345 134.98275862068965 L206.39655172413794 139.6551724137931 L201.7241379310345 144.32758620689654 L197.05172413793105 139.6551724137931 ZM212.0689655172414 134.98275862068965 L216.74137931034483 139.6551724137931 L212.0689655172414 144.32758620689654 L207.39655172413794 139.6551724137931 ZM222.41379310344828 134.98275862068965 L227.08620689655172 139.6551724137931 L222.41379310344828 144.32758620689654 L217.74137931034483 139.6551724137931 ZM232.7586206896552 134.98275862068965 L237.43103448275863 139.6551724137931 L232.7586206896552 144.32758620689654 L228.08620689655174 139.6551724137931 ZM253.44827586206898 134.98275862068965 L258.12068965517244 139.6551724137931 L253.44827586206898 144.32758620689654 L248.77586206896552 139.6551724137931 ZM263.7931034482759 134.98275862068965 L268.46551724137936 139.6551724137931 L263.7931034482759 144.32758620689654 L259.12068965517244 139.6551724137931 ZM294.82758620689657 134.98275862068965 L299.50000000000006 139.6551724137931 L294.82758620689657 144.32758620689654 L290.15517241379314 139.6551724137931 ZM36.20689655172414 145.32758620689657 L40.87931034482759 150.00000000000003 L36.20689655172414 154.67241379310346 L31.53448275862069 150.00000000000003 ZM46.55172413793103 145.32758620689657 L51.224137931034484 150.00000000000003 L46.55172413793103 154.67241379310346 L41.87931034482759 150.00000000000003 ZM67.24137931034483 145.32758620689657 L71.91379310344828 150.00000000000003 L67.24137931034483 154.67241379310346 L62.56896551724138 150.00000000000003 ZM98.27586206896551 145.32758620689657 L102.94827586206895 150.00000000000003 L98.27586206896551 154.67241379310346 L93.60344827586206 150.00000000000003 ZM129.31034482758622 145.32758620689657 L133.98275862068965 150.00000000000003 L129.31034482758622 154.67241379310346 L124.63793103448276 150.00000000000003 ZM139.6551724137931 145.32758620689657 L144.32758620689654 150.00000000000003 L139.6551724137931 154.67241379310346 L134.98275862068965 150.00000000000003 ZM160.34482758620692 145.32758620689657 L165.01724137931035 150.00000000000003 L160.34482758620692 154.67241379310346 L155.67241379310346 150.00000000000003 ZM170.6896551724138 145.32758620689657 L175.36206896551724 150.00000000000003 L170.6896551724138 154.67241379310346 L166.01724137931035 150.00000000000003 ZM181.0344827586207 145.32758620689657 L185.70689655172413 150.00000000000003 L181.0344827586207 154.67241379310346 L176.36206896551724 150.00000000000003 ZM232.7586206896552 145.32758620689657 L237.43103448275863 150.00000000000003 L232.7586206896552 154.67241379310346 L228.08620689655174 150.00000000000003 ZM243.1034482758621 145.32758620689657 L247.77586206896552 150.00000000000003 L243.1034482758621 154.67241379310346 L238.43103448275863 150.00000000000003 ZM5.172413793103448 155.67241379310346 L9.844827586206897 160.34482758620692 L5.172413793103448 165.01724137931035 L0.5 160.34482758620692 ZM56.896551724137936 155.67241379310346 L61.56896551724138 160.34482758620692 L56.896551724137936 165.01724137931035 L52.224137931034484 160.34482758620692 ZM87.93103448275862 155.67241379310346 L92.60344827586206 160.34482758620692 L87.93103448275862 165.01724137931035 L83.25862068965517 160.34482758620692 ZM98.27586206896551 155.67241379310346 L102.94827586206895 160.34482758620692 L98.27586206896551 165.01724137931035 L93.60344827586206 160.34482758620692 ZM118.96551724137932 155.67241379310346 L123.63793103448276 160.34482758620692 L118.96551724137932 165.01724137931035 L114.29310344827587 160.34482758620692 ZM129.31034482758622 155.67241379310346 L133.98275862068965 160.34482758620692 L129.31034482758622 165.01724137931035 L124.63793103448276 160.34482758620692 ZM191.3793103448276 155.67241379310346 L196.05172413793102 160.34482758620692 L191.3793103448276 165.01724137931035 L186.70689655172413 160.34482758620692 ZM201.7241379310345 155.67241379310346 L206.39655172413794 160.34482758620692 L201.7241379310345 165.01724137931035 L197.05172413793105 160.34482758620692 ZM212.0689655172414 155.67241379310346 L216.74137931034483 160.34482758620692 L212.0689655172414 165.01724137931035 L207.39655172413794 160.34482758620692 ZM253.44827586206898 155.67241379310346 L258.12068965517244 160.34482758620692 L253.44827586206898 165.01724137931035 L248.77586206896552 160.34482758620692 ZM263.7931034482759 155.67241379310346 L268.46551724137936 160.34482758620692 L263.7931034482759 165.01724137931035 L259.12068965517244 160.34482758620692 ZM15.517241379310345 166.01724137931035 L20.189655172413794 170.6896551724138 L15.517241379310345 175.36206896551724 L10.844827586206897 170.6896551724138 ZM25.862068965517242 166.01724137931035 L30.53448275862069 170.6896551724138 L25.862068965517242 175.36206896551724 L21.189655172413794 170.6896551724138 ZM46.55172413793103 166.01724137931035 L51.224137931034484 170.6896551724138 L46.55172413793103 175.36206896551724 L41.87931034482759 170.6896551724138 ZM67.24137931034483 166.01724137931035 L71.91379310344828 170.6896551724138 L67.24137931034483 175.36206896551724 L62.56896551724138 170.6896551724138 ZM98.27586206896551 166.01724137931035 L102.94827586206895 170.6896551724138 L98.27586206896551 175.36206896551724 L93.60344827586206 170.6896551724138 ZM118.96551724137932 166.01724137931035 L123.63793103448276 170.6896551724138 L118.96551724137932 175.36206896551724 L114.29310344827587 170.6896551724138 ZM129.31034482758622 166.01724137931035 L133.98275862068965 170.6896551724138 L129.31034482758622 175.36206896551724 L124.63793103448276 170.6896551724138 ZM139.6551724137931 166.01724137931035 L144.32758620689654 170.6896551724138 L139.6551724137931 175.36206896551724 L134.98275862068965 170.6896551724138 ZM150.00000000000003 166.01724137931035 L154.67241379310346 170.6896551724138 L150.00000000000003 175.36206896551724 L145.32758620689657 170.6896551724138 ZM160.34482758620692 166.01724137931035 L165.01724137931035 170.6896551724138 L160.34482758620692 175.36206896551724 L155.67241379310346 170.6896551724138 ZM170.6896551724138 166.01724137931035 L175.36206896551724 170.6896551724138 L170.6896551724138 175.36206896551724 L166.01724137931035 170.6896551724138 ZM181.0344827586207 166.01724137931035 L185.70689655172413 170.6896551724138 L181.0344827586207 175.36206896551724 L176.36206896551724 170.6896551724138 ZM191.3793103448276 166.01724137931035 L196.05172413793102 170.6896551724138 L191.3793103448276 175.36206896551724 L186.70689655172413 170.6896551724138 ZM201.7241379310345 166.01724137931035 L206.39655172413794 170.6896551724138 L201.7241379310345 175.36206896551724 L197.05172413793105 170.6896551724138 ZM222.41379310344828 166.01724137931035 L227.08620689655172 170.6896551724138 L222.41379310344828 175.36206896551724 L217.74137931034483 170.6896551724138 ZM263.7931034482759 166.01724137931035 L268.46551724137936 170.6896551724138 L263.7931034482759 175.36206896551724 L259.12068965517244 170.6896551724138 ZM274.13793103448273 166.01724137931035 L278.8103448275862 170.6896551724138 L274.13793103448273 175.36206896551724 L269.4655172413793 170.6896551724138 ZM284.48275862068965 166.01724137931035 L289.15517241379314 170.6896551724138 L284.48275862068965 175.36206896551724 L279.8103448275862 170.6896551724138 ZM294.82758620689657 166.01724137931035 L299.50000000000006 170.6896551724138 L294.82758620689657 175.36206896551724 L290.15517241379314 170.6896551724138 ZM5.172413793103448 176.36206896551724 L9.844827586206897 181.0344827586207 L5.172413793103448 185.70689655172413 L0.5 181.0344827586207 ZM15.517241379310345 176.36206896551724 L20.189655172413794 181.0344827586207 L15.517241379310345 185.70689655172413 L10.844827586206897 181.0344827586207 ZM46.55172413793103 176.36206896551724 L51.224137931034484 181.0344827586207 L46.55172413793103 185.70689655172413 L41.87931034482759 181.0344827586207 ZM56.896551724137936 176.36206896551724 L61.56896551724138 181.0344827586207 L56.896551724137936 185.70689655172413 L52.224137931034484 181.0344827586207 ZM77.58620689655173 176.36206896551724 L82.25862068965517 181.0344827586207 L77.58620689655173 185.70689655172413 L72.91379310344828 181.0344827586207 ZM108.62068965517241 176.36206896551724 L113.29310344827587 181.0344827586207 L108.62068965517241 185.70689655172413 L103.94827586206897 181.0344827586207 ZM150.00000000000003 176.36206896551724 L154.67241379310346 181.0344827586207 L150.00000000000003 185.70689655172413 L145.32758620689657 181.0344827586207 ZM170.6896551724138 176.36206896551724 L175.36206896551724 181.0344827586207 L170.6896551724138 185.70689655172413 L166.01724137931035 181.0344827586207 ZM181.0344827586207 176.36206896551724 L185.70689655172413 181.0344827586207 L181.0344827586207 185.70689655172413 L176.36206896551724 181.0344827586207 ZM191.3793103448276 176.36206896551724 L196.05172413793102 181.0344827586207 L191.3793103448276 185.70689655172413 L186.70689655172413 181.0344827586207 ZM212.0689655172414 176.36206896551724 L216.74137931034483 181.0344827586207 L212.0689655172414 185.70689655172413 L207.39655172413794 181.0344827586207 ZM222.41379310344828 176.36206896551724 L227.08620689655172 181.0344827586207 L222.41379310344828 185.70689655172413 L217.74137931034483 181.0344827586207 ZM232.7586206896552 176.36206896551724 L237.43103448275863 181.0344827586207 L232.7586206896552 185.70689655172413 L228.08620689655174 181.0344827586207 ZM243.1034482758621 176.36206896551724 L247.77586206896552 181.0344827586207 L243.1034482758621 185.70689655172413 L238.43103448275863 181.0344827586207 ZM253.44827586206898 176.36206896551724 L258.12068965517244 181.0344827586207 L253.44827586206898 185.70689655172413 L248.77586206896552 181.0344827586207 ZM263.7931034482759 176.36206896551724 L268.46551724137936 181.0344827586207 L263.7931034482759 185.70689655172413 L259.12068965517244 181.0344827586207 ZM284.48275862068965 176.36206896551724 L289.15517241379314 181.0344827586207 L284.48275862068965 185.70689655172413 L279.8103448275862 181.0344827586207 ZM294.82758620689657 176.36206896551724 L299.50000000000006 181.0344827586207 L294.82758620689657 185.70689655172413 L290.15517241379314 181.0344827586207 ZM5.172413793103448 186.70689655172413 L9.844827586206897 191.3793103448276 L5.172413793103448 196.05172413793102 L0.5 191.3793103448276 ZM25.862068965517242 186.70689655172413 L30.53448275862069 191.3793103448276 L25.862068965517242 196.05172413793102 L21.189655172413794 191.3793103448276 ZM46.55172413793103 186.70689655172413 L51.224137931034484 191.3793103448276 L46.55172413793103 196.05172413793102 L41.87931034482759 191.3793103448276 ZM67.24137931034483 186.70689655172413 L71.91379310344828 191.3793103448276 L67.24137931034483 196.05172413793102 L62.56896551724138 191.3793103448276 ZM77.58620689655173 186.70689655172413 L82.25862068965517 191.3793103448276 L77.58620689655173 196.05172413793102 L72.91379310344828 191.3793103448276 ZM108.62068965517241 186.70689655172413 L113.29310344827587 191.3793103448276 L108.62068965517241 196.05172413793102 L103.94827586206897 191.3793103448276 ZM118.96551724137932 186.70689655172413 L123.63793103448276 191.3793103448276 L118.96551724137932 196.05172413793102 L114.29310344827587 191.3793103448276 ZM129.31034482758622 186.70689655172413 L133.98275862068965 191.3793103448276 L129.31034482758622 196.05172413793102 L124.63793103448276 191.3793103448276 ZM139.6551724137931 186.70689655172413 L144.32758620689654 191.3793103448276 L139.6551724137931 196.05172413793102 L134.98275862068965 191.3793103448276 ZM150.00000000000003 186.70689655172413 L154.67241379310346 191.3793103448276 L150.00000000000003 196.05172413793102 L145.32758620689657 191.3793103448276 ZM170.6896551724138 186.70689655172413 L175.36206896551724 191.3793103448276 L170.6896551724138 196.05172413793102 L166.01724137931035 191.3793103448276 ZM181.0344827586207 186.70689655172413 L185.70689655172413 191.3793103448276 L181.0344827586207 196.05172413793102 L176.36206896551724 191.3793103448276 ZM201.7241379310345 186.70689655172413 L206.39655172413794 191.3793103448276 L201.7241379310345 196.05172413793102 L197.05172413793105 191.3793103448276 ZM232.7586206896552 186.70689655172413 L237.43103448275863 191.3793103448276 L232.7586206896552 196.05172413793102 L228.08620689655174 191.3793103448276 ZM243.1034482758621 186.70689655172413 L247.77586206896552 191.3793103448276 L243.1034482758621 196.05172413793102 L238.43103448275863 191.3793103448276 ZM263.7931034482759 186.70689655172413 L268.46551724137936 191.3793103448276 L263.7931034482759 196.05172413793102 L259.12068965517244 191.3793103448276 ZM5.172413793103448 197.05172413793105 L9.844827586206897 201.7241379310345 L5.172413793103448 206.39655172413794 L0.5 201.7241379310345 ZM77.58620689655173 197.05172413793105 L82.25862068965517 201.7241379310345 L77.58620689655173 206.39655172413794 L72.91379310344828 201.7241379310345 ZM87.93103448275862 197.05172413793105 L92.60344827586206 201.7241379310345 L87.93103448275862 206.39655172413794 L83.25862068965517 201.7241379310345 ZM98.27586206896551 197.05172413793105 L102.94827586206895 201.7241379310345 L98.27586206896551 206.39655172413794 L93.60344827586206 201.7241379310345 ZM118.96551724137932 197.05172413793105 L123.63793103448276 201.7241379310345 L118.96551724137932 206.39655172413794 L114.29310344827587 201.7241379310345 ZM129.31034482758622 197.05172413793105 L133.98275862068965 201.7241379310345 L129.31034482758622 206.39655172413794 L124.63793103448276 201.7241379310345 ZM170.6896551724138 197.05172413793105 L175.36206896551724 201.7241379310345 L170.6896551724138 206.39655172413794 L166.01724137931035 201.7241379310345 ZM201.7241379310345 197.05172413793105 L206.39655172413794 201.7241379310345 L201.7241379310345 206.39655172413794 L197.05172413793105 201.7241379310345 ZM212.0689655172414 197.05172413793105 L216.74137931034483 201.7241379310345 L212.0689655172414 206.39655172413794 L207.39655172413794 201.7241379310345 ZM232.7586206896552 197.05172413793105 L237.43103448275863 201.7241379310345 L232.7586206896552 206.39655172413794 L228.08620689655174 201.7241379310345 ZM253.44827586206898 197.05172413793105 L258.12068965517244 201.7241379310345 L253.44827586206898 206.39655172413794 L248.77586206896552 201.7241379310345 ZM284.48275862068965 197.05172413793105 L289.15517241379314 201.7241379310345 L284.48275862068965 206.39655172413794 L279.8103448275862 201.7241379310345 ZM5.172413793103448 207.39655172413794 L9.844827586206897 212.0689655172414 L5.172413793103448 216.74137931034483 L0.5 212.0689655172414 ZM36.20689655172414 207.39655172413794 L40.87931034482759 212.0689655172414 L36.20689655172414 216.74137931034483 L31.53448275862069 212.0689655172414 ZM46.55172413793103 207.39655172413794 L51.224137931034484 212.0689655172414 L46.55172413793103 216.74137931034483 L41.87931034482759 212.0689655172414 ZM67.24137931034483 207.39655172413794 L71.91379310344828 212.0689655172414 L67.24137931034483 216.74137931034483 L62.56896551724138 212.0689655172414 ZM87.93103448275862 207.39655172413794 L92.60344827586206 212.0689655172414 L87.93103448275862 216.74137931034483 L83.25862068965517 212.0689655172414 ZM108.62068965517241 207.39655172413794 L113.29310344827587 212.0689655172414 L108.62068965517241 216.74137931034483 L103.94827586206897 212.0689655172414 ZM118.96551724137932 207.39655172413794 L123.63793103448276 212.0689655172414 L118.96551724137932 216.74137931034483 L114.29310344827587 212.0689655172414 ZM129.31034482758622 207.39655172413794 L133.98275862068965 212.0689655172414 L129.31034482758622 216.74137931034483 L124.63793103448276 212.0689655172414 ZM150.00000000000003 207.39655172413794 L154.67241379310346 212.0689655172414 L150.00000000000003 216.74137931034483 L145.32758620689657 212.0689655172414 ZM181.0344827586207 207.39655172413794 L185.70689655172413 212.0689655172414 L181.0344827586207 216.74137931034483 L176.36206896551724 212.0689655172414 ZM201.7241379310345 207.39655172413794 L206.39655172413794 212.0689655172414 L201.7241379310345 216.74137931034483 L197.05172413793105 212.0689655172414 ZM212.0689655172414 207.39655172413794 L216.74137931034483 212.0689655172414 L212.0689655172414 216.74137931034483 L207.39655172413794 212.0689655172414 ZM222.41379310344828 207.39655172413794 L227.08620689655172 212.0689655172414 L222.41379310344828 216.74137931034483 L217.74137931034483 212.0689655172414 ZM232.7586206896552 207.39655172413794 L237.43103448275863 212.0689655172414 L232.7586206896552 216.74137931034483 L228.08620689655174 212.0689655172414 ZM243.1034482758621 207.39655172413794 L247.77586206896552 212.0689655172414 L243.1034482758621 216.74137931034483 L238.43103448275863 212.0689655172414 ZM253.44827586206898 207.39655172413794 L258.12068965517244 212.0689655172414 L253.44827586206898 216.74137931034483 L248.77586206896552 212.0689655172414 ZM274.13793103448273 207.39655172413794 L278.8103448275862 212.0689655172414 L274.13793103448273 216.74137931034483 L269.4655172413793 212.0689655172414 ZM87.93103448275862 217.74137931034483 L92.60344827586206 222.41379310344828 L87.93103448275862 227.08620689655172 L83.25862068965517 222.41379310344828 ZM118.96551724137932 217.74137931034483 L123.63793103448276 222.41379310344828 L118.96551724137932 227.08620689655172 L114.29310344827587 222.41379310344828 ZM129.31034482758622 217.74137931034483 L133.98275862068965 222.41379310344828 L129.31034482758622 227.08620689655172 L124.63793103448276 222.41379310344828 ZM150.00000000000003 217.74137931034483 L154.67241379310346 222.41379310344828 L150.00000000000003 227.08620689655172 L145.32758620689657 222.41379310344828 ZM170.6896551724138 217.74137931034483 L175.36206896551724 222.41379310344828 L170.6896551724138 227.08620689655172 L166.01724137931035 222.41379310344828 ZM212.0689655172414 217.74137931034483 L216.74137931034483 222.41379310344828 L212.0689655172414 227.08620689655172 L207.39655172413794 222.41379310344828 ZM253.44827586206898 217.74137931034483 L258.12068965517244 222.41379310344828 L253.44827586206898 227.08620689655172 L248.77586206896552 222.41379310344828 ZM263.7931034482759 217.74137931034483 L268.46551724137936 222.41379310344828 L263.7931034482759 227.08620689655172 L259.12068965517244 222.41379310344828 ZM294.82758620689657 217.74137931034483 L299.50000000000006 222.41379310344828 L294.82758620689657 227.08620689655172 L290.15517241379314 222.41379310344828 ZM5.172413793103448 228.08620689655174 L9.844827586206897 228.08620689655174 L9.844827586206897 232.75862068965517 L9.844827586206897 237.43103448275863 L5.172413793103448 237.43103448275863 L0.5 237.43103448275863 L0.5 232.7586206896552 L0.5 232.7586206896552 Q0.5 228.08620689655174 5.172413793103448 228.08620689655174M15.517241379310345 228.08620689655174 L20.189655172413794 228.08620689655174 L20.189655172413794 232.75862068965517 L20.189655172413794 237.43103448275863 L15.517241379310345 237.43103448275863 L10.844827586206897 237.43103448275863 L10.844827586206897 232.7586206896552 L10.844827586206897 228.08620689655174 L15.517241379310345 228.08620689655174M25.862068965517242 228.08620689655174 L30.53448275862069 228.08620689655174 L30.53448275862069 232.75862068965517 L30.53448275862069 237.43103448275863 L25.862068965517242 237.43103448275863 L21.189655172413794 237.43103448275863 L21.189655172413794 232.7586206896552 L21.189655172413794 228.08620689655174 L25.862068965517242 228.08620689655174M36.20689655172414 228.08620689655174 L40.87931034482759 228.08620689655174 L40.87931034482759 232.75862068965517 L40.87931034482759 237.43103448275863 L36.20689655172414 237.43103448275863 L31.53448275862069 237.43103448275863 L31.53448275862069 232.7586206896552 L31.53448275862069 228.08620689655174 L36.20689655172414 228.08620689655174M46.55172413793103 228.08620689655174 L51.224137931034484 228.08620689655174 L51.224137931034484 232.75862068965517 L51.224137931034484 237.43103448275863 L46.55172413793103 237.43103448275863 L41.87931034482759 237.43103448275863 L41.87931034482759 232.7586206896552 L41.87931034482759 228.08620689655174 L46.55172413793103 228.08620689655174M56.896551724137936 228.08620689655174 L61.56896551724138 228.08620689655174 L61.56896551724138 232.75862068965517 L61.56896551724138 237.43103448275863 L56.896551724137936 237.43103448275863 L52.224137931034484 237.43103448275863 L52.224137931034484 232.7586206896552 L52.224137931034484 228.08620689655174 L56.896551724137936 228.08620689655174M67.24137931034484 228.08620689655174 L67.24137931034484 228.08620689655174 Q71.91379310344828 228.08620689655174 71.91379310344828 232.75862068965517 L71.91379310344828 237.43103448275863 L67.24137931034483 237.43103448275863 L62.56896551724138 237.43103448275863 L62.56896551724138 232.7586206896552 L62.56896551724138 228.08620689655174 L67.24137931034484 228.08620689655174M98.27586206896551 228.08620689655174 L102.94827586206895 232.7586206896552 L98.27586206896551 237.43103448275863 L93.60344827586206 232.7586206896552 ZM118.96551724137932 228.08620689655174 L123.63793103448276 232.7586206896552 L118.96551724137932 237.43103448275863 L114.29310344827587 232.7586206896552 ZM129.31034482758622 228.08620689655174 L133.98275862068965 232.7586206896552 L129.31034482758622 237.43103448275863 L124.63793103448276 232.7586206896552 ZM139.6551724137931 228.08620689655174 L144.32758620689654 232.7586206896552 L139.6551724137931 237.43103448275863 L134.98275862068965 232.7586206896552 ZM150.00000000000003 228.08620689655174 L154.67241379310346 232.7586206896552 L150.00000000000003 237.43103448275863 L145.32758620689657 232.7586206896552 ZM170.6896551724138 228.08620689655174 L175.36206896551724 232.7586206896552 L170.6896551724138 237.43103448275863 L166.01724137931035 232.7586206896552 ZM181.0344827586207 228.08620689655174 L185.70689655172413 232.7586206896552 L181.0344827586207 237.43103448275863 L176.36206896551724 232.7586206896552 ZM191.3793103448276 228.08620689655174 L196.05172413793102 232.7586206896552 L191.3793103448276 237.43103448275863 L186.70689655172413 232.7586206896552 ZM201.7241379310345 228.08620689655174 L206.39655172413794 232.7586206896552 L201.7241379310345 237.43103448275863 L197.05172413793105 232.7586206896552 ZM212.0689655172414 228.08620689655174 L216.74137931034483 232.7586206896552 L212.0689655172414 237.43103448275863 L207.39655172413794 232.7586206896552 ZM232.7586206896552 228.08620689655174 L237.43103448275863 232.7586206896552 L232.7586206896552 237.43103448275863 L228.08620689655174 232.7586206896552 ZM253.44827586206898 228.08620689655174 L258.12068965517244 232.7586206896552 L253.44827586206898 237.43103448275863 L248.77586206896552 232.7586206896552 ZM5.172413793103448 238.43103448275863 L9.844827586206897 238.43103448275863 L9.844827586206897 243.10344827586206 L9.844827586206897 247.77586206896552 L5.172413793103448 247.77586206896552 L0.5 247.77586206896552 L0.5 243.1034482758621 L0.5 238.43103448275863 L5.172413793103448 238.43103448275863M67.24137931034484 238.43103448275863 L71.91379310344828 238.43103448275863 L71.91379310344828 243.10344827586206 L71.91379310344828 247.77586206896552 L67.24137931034483 247.77586206896552 L62.56896551724138 247.77586206896552 L62.56896551724138 243.1034482758621 L62.56896551724138 238.43103448275863 L67.24137931034484 238.43103448275863M98.27586206896551 238.43103448275863 L102.94827586206895 243.1034482758621 L98.27586206896551 247.77586206896552 L93.60344827586206 243.1034482758621 ZM108.62068965517241 238.43103448275863 L113.29310344827587 243.1034482758621 L108.62068965517241 247.77586206896552 L103.94827586206897 243.1034482758621 ZM118.96551724137932 238.43103448275863 L123.63793103448276 243.1034482758621 L118.96551724137932 247.77586206896552 L114.29310344827587 243.1034482758621 ZM150.00000000000003 238.43103448275863 L154.67241379310346 243.1034482758621 L150.00000000000003 247.77586206896552 L145.32758620689657 243.1034482758621 ZM191.3793103448276 238.43103448275863 L196.05172413793102 243.1034482758621 L191.3793103448276 247.77586206896552 L186.70689655172413 243.1034482758621 ZM201.7241379310345 238.43103448275863 L206.39655172413794 243.1034482758621 L201.7241379310345 247.77586206896552 L197.05172413793105 243.1034482758621 ZM212.0689655172414 238.43103448275863 L216.74137931034483 243.1034482758621 L212.0689655172414 247.77586206896552 L207.39655172413794 243.1034482758621 ZM253.44827586206898 238.43103448275863 L258.12068965517244 243.1034482758621 L253.44827586206898 247.77586206896552 L248.77586206896552 243.1034482758621 ZM263.7931034482759 238.43103448275863 L268.46551724137936 243.1034482758621 L263.7931034482759 247.77586206896552 L259.12068965517244 243.1034482758621 ZM284.48275862068965 238.43103448275863 L289.15517241379314 243.1034482758621 L284.48275862068965 247.77586206896552 L279.8103448275862 243.1034482758621 ZM294.82758620689657 238.43103448275863 L299.50000000000006 243.1034482758621 L294.82758620689657 247.77586206896552 L290.15517241379314 243.1034482758621 ZM5.172413793103448 248.77586206896552 L9.844827586206897 248.77586206896552 L9.844827586206897 253.44827586206898 L9.844827586206897 258.12068965517244 L5.172413793103448 258.12068965517244 L0.5 258.12068965517244 L0.5 253.44827586206898 L0.5 248.77586206896552 L5.172413793103448 248.77586206896552M25.862068965517242 248.77586206896552 L30.53448275862069 248.77586206896552 L30.53448275862069 253.44827586206898 L30.53448275862069 258.12068965517244 L25.862068965517242 258.12068965517244 L21.189655172413794 258.12068965517244 L21.189655172413794 253.44827586206898 L21.189655172413794 253.44827586206898 Q21.189655172413794 248.77586206896552 25.862068965517242 248.77586206896552M36.20689655172414 248.77586206896552 L40.87931034482759 248.77586206896552 L40.87931034482759 253.44827586206898 L40.87931034482759 258.12068965517244 L36.20689655172414 258.12068965517244 L31.53448275862069 258.12068965517244 L31.53448275862069 253.44827586206898 L31.53448275862069 248.77586206896552 L36.20689655172414 248.77586206896552M46.55172413793103 248.77586206896552 L46.55172413793103 248.77586206896552 Q51.224137931034484 248.77586206896552 51.224137931034484 253.44827586206898 L51.224137931034484 258.12068965517244 L46.55172413793103 258.12068965517244 L41.87931034482759 258.12068965517244 L41.87931034482759 253.44827586206898 L41.87931034482759 248.77586206896552 L46.55172413793103 248.77586206896552M67.24137931034484 248.77586206896552 L71.91379310344828 248.77586206896552 L71.91379310344828 253.44827586206898 L71.91379310344828 258.12068965517244 L67.24137931034483 258.12068965517244 L62.56896551724138 258.12068965517244 L62.56896551724138 253.44827586206898 L62.56896551724138 248.77586206896552 L67.24137931034484 248.77586206896552M87.93103448275862 248.77586206896552 L92.60344827586206 253.44827586206898 L87.93103448275862 258.12068965517244 L83.25862068965517 253.44827586206898 ZM118.96551724137932 248.77586206896552 L123.63793103448276 253.44827586206898 L118.96551724137932 258.12068965517244 L114.29310344827587 253.44827586206898 ZM129.31034482758622 248.77586206896552 L133.98275862068965 253.44827586206898 L129.31034482758622 258.12068965517244 L124.63793103448276 253.44827586206898 ZM170.6896551724138 248.77586206896552 L175.36206896551724 253.44827586206898 L170.6896551724138 258.12068965517244 L166.01724137931035 253.44827586206898 ZM212.0689655172414 248.77586206896552 L216.74137931034483 253.44827586206898 L212.0689655172414 258.12068965517244 L207.39655172413794 253.44827586206898 ZM222.41379310344828 248.77586206896552 L227.08620689655172 253.44827586206898 L222.41379310344828 258.12068965517244 L217.74137931034483 253.44827586206898 ZM232.7586206896552 248.77586206896552 L237.43103448275863 253.44827586206898 L232.7586206896552 258.12068965517244 L228.08620689655174 253.44827586206898 ZM243.1034482758621 248.77586206896552 L247.77586206896552 253.44827586206898 L243.1034482758621 258.12068965517244 L238.43103448275863 253.44827586206898 ZM253.44827586206898 248.77586206896552 L258.12068965517244 253.44827586206898 L253.44827586206898 258.12068965517244 L248.77586206896552 253.44827586206898 ZM263.7931034482759 248.77586206896552 L268.46551724137936 253.44827586206898 L263.7931034482759 258.12068965517244 L259.12068965517244 253.44827586206898 ZM274.13793103448273 248.77586206896552 L278.8103448275862 253.44827586206898 L274.13793103448273 258.12068965517244 L269.4655172413793 253.44827586206898 ZM284.48275862068965 248.77586206896552 L289.15517241379314 253.44827586206898 L284.48275862068965 258.12068965517244 L279.8103448275862 253.44827586206898 ZM5.172413793103448 259.12068965517244 L9.844827586206897 259.12068965517244 L9.844827586206897 263.79310344827593 L9.844827586206897 268.46551724137936 L5.172413793103448 268.46551724137936 L0.5 268.46551724137936 L0.5 263.7931034482759 L0.5 259.12068965517244 L5.172413793103448 259.12068965517244M25.862068965517242 259.12068965517244 L30.53448275862069 259.12068965517244 L30.53448275862069 263.79310344827593 L30.53448275862069 268.46551724137936 L25.862068965517242 268.46551724137936 L21.189655172413794 268.46551724137936 L21.189655172413794 263.7931034482759 L21.189655172413794 259.12068965517244 L25.862068965517242 259.12068965517244M36.20689655172414 259.12068965517244 L40.87931034482759 259.12068965517244 L40.87931034482759 263.79310344827593 L40.87931034482759 268.46551724137936 L36.20689655172414 268.46551724137936 L31.53448275862069 268.46551724137936 L31.53448275862069 263.7931034482759 L31.53448275862069 259.12068965517244 L36.20689655172414 259.12068965517244M46.55172413793103 259.12068965517244 L51.224137931034484 259.12068965517244 L51.224137931034484 263.79310344827593 L51.224137931034484 268.46551724137936 L46.55172413793103 268.46551724137936 L41.87931034482759 268.46551724137936 L41.87931034482759 263.7931034482759 L41.87931034482759 259.12068965517244 L46.55172413793103 259.12068965517244M67.24137931034484 259.12068965517244 L71.91379310344828 259.12068965517244 L71.91379310344828 263.79310344827593 L71.91379310344828 268.46551724137936 L67.24137931034483 268.46551724137936 L62.56896551724138 268.46551724137936 L62.56896551724138 263.7931034482759 L62.56896551724138 259.12068965517244 L67.24137931034484 259.12068965517244M87.93103448275862 259.12068965517244 L92.60344827586206 263.7931034482759 L87.93103448275862 268.46551724137936 L83.25862068965517 263.7931034482759 ZM98.27586206896551 259.12068965517244 L102.94827586206895 263.7931034482759 L98.27586206896551 268.46551724137936 L93.60344827586206 263.7931034482759 ZM108.62068965517241 259.12068965517244 L113.29310344827587 263.7931034482759 L108.62068965517241 268.46551724137936 L103.94827586206897 263.7931034482759 ZM129.31034482758622 259.12068965517244 L133.98275862068965 263.7931034482759 L129.31034482758622 268.46551724137936 L124.63793103448276 263.7931034482759 ZM139.6551724137931 259.12068965517244 L144.32758620689654 263.7931034482759 L139.6551724137931 268.46551724137936 L134.98275862068965 263.7931034482759 ZM150.00000000000003 259.12068965517244 L154.67241379310346 263.7931034482759 L150.00000000000003 268.46551724137936 L145.32758620689657 263.7931034482759 ZM170.6896551724138 259.12068965517244 L175.36206896551724 263.7931034482759 L170.6896551724138 268.46551724137936 L166.01724137931035 263.7931034482759 ZM201.7241379310345 259.12068965517244 L206.39655172413794 263.7931034482759 L201.7241379310345 268.46551724137936 L197.05172413793105 263.7931034482759 ZM212.0689655172414 259.12068965517244 L216.74137931034483 263.7931034482759 L212.0689655172414 268.46551724137936 L207.39655172413794 263.7931034482759 ZM222.41379310344828 259.12068965517244 L227.08620689655172 263.7931034482759 L222.41379310344828 268.46551724137936 L217.74137931034483 263.7931034482759 ZM243.1034482758621 259.12068965517244 L247.77586206896552 263.7931034482759 L243.1034482758621 268.46551724137936 L238.43103448275863 263.7931034482759 ZM263.7931034482759 259.12068965517244 L268.46551724137936 263.7931034482759 L263.7931034482759 268.46551724137936 L259.12068965517244 263.7931034482759 ZM274.13793103448273 259.12068965517244 L278.8103448275862 263.7931034482759 L274.13793103448273 268.46551724137936 L269.4655172413793 263.7931034482759 ZM5.172413793103448 269.4655172413793 L9.844827586206897 269.4655172413793 L9.844827586206897 274.1379310344828 L9.844827586206897 278.8103448275862 L5.172413793103448 278.8103448275862 L0.5 278.8103448275862 L0.5 274.13793103448273 L0.5 269.4655172413793 L5.172413793103448 269.4655172413793M25.862068965517242 269.4655172413793 L30.53448275862069 269.4655172413793 L30.53448275862069 274.1379310344828 L30.53448275862069 278.8103448275862 L25.862068965517242 278.8103448275862 L25.862068965517242 278.8103448275862 Q21.189655172413794 278.8103448275862 21.189655172413794 274.13793103448273 L21.189655172413794 269.4655172413793 L25.862068965517242 269.4655172413793M36.20689655172414 269.4655172413793 L40.87931034482759 269.4655172413793 L40.87931034482759 274.1379310344828 L40.87931034482759 278.8103448275862 L36.20689655172414 278.8103448275862 L31.53448275862069 278.8103448275862 L31.53448275862069 274.13793103448273 L31.53448275862069 269.4655172413793 L36.20689655172414 269.4655172413793M46.55172413793103 269.4655172413793 L51.224137931034484 269.4655172413793 L51.224137931034484 274.1379310344828 L51.224137931034484 274.1379310344828 Q51.224137931034484 278.8103448275862 46.55172413793103 278.8103448275862 L41.87931034482759 278.8103448275862 L41.87931034482759 274.13793103448273 L41.87931034482759 269.4655172413793 L46.55172413793103 269.4655172413793M67.24137931034484 269.4655172413793 L71.91379310344828 269.4655172413793 L71.91379310344828 274.1379310344828 L71.91379310344828 278.8103448275862 L67.24137931034483 278.8103448275862 L62.56896551724138 278.8103448275862 L62.56896551724138 274.13793103448273 L62.56896551724138 269.4655172413793 L67.24137931034484 269.4655172413793M87.93103448275862 269.4655172413793 L92.60344827586206 274.13793103448273 L87.93103448275862 278.8103448275862 L83.25862068965517 274.13793103448273 ZM108.62068965517241 269.4655172413793 L113.29310344827587 274.13793103448273 L108.62068965517241 278.8103448275862 L103.94827586206897 274.13793103448273 ZM129.31034482758622 269.4655172413793 L133.98275862068965 274.13793103448273 L129.31034482758622 278.8103448275862 L124.63793103448276 274.13793103448273 ZM181.0344827586207 269.4655172413793 L185.70689655172413 274.13793103448273 L181.0344827586207 278.8103448275862 L176.36206896551724 274.13793103448273 ZM201.7241379310345 269.4655172413793 L206.39655172413794 274.13793103448273 L201.7241379310345 278.8103448275862 L197.05172413793105 274.13793103448273 ZM212.0689655172414 269.4655172413793 L216.74137931034483 274.13793103448273 L212.0689655172414 278.8103448275862 L207.39655172413794 274.13793103448273 ZM222.41379310344828 269.4655172413793 L227.08620689655172 274.13793103448273 L222.41379310344828 278.8103448275862 L217.74137931034483 274.13793103448273 ZM232.7586206896552 269.4655172413793 L237.43103448275863 274.13793103448273 L232.7586206896552 278.8103448275862 L228.08620689655174 274.13793103448273 ZM243.1034482758621 269.4655172413793 L247.77586206896552 274.13793103448273 L243.1034482758621 278.8103448275862 L238.43103448275863 274.13793103448273 ZM253.44827586206898 269.4655172413793 L258.12068965517244 274.13793103448273 L253.44827586206898 278.8103448275862 L248.77586206896552 274.13793103448273 ZM274.13793103448273 269.4655172413793 L278.8103448275862 274.13793103448273 L274.13793103448273 278.8103448275862 L269.4655172413793 274.13793103448273 ZM284.48275862068965 269.4655172413793 L289.15517241379314 274.13793103448273 L284.48275862068965 278.8103448275862 L279.8103448275862 274.13793103448273 ZM5.172413793103448 279.8103448275862 L9.844827586206897 279.8103448275862 L9.844827586206897 284.4827586206897 L9.844827586206897 289.15517241379314 L5.172413793103448 289.15517241379314 L0.5 289.15517241379314 L0.5 284.48275862068965 L0.5 279.8103448275862 L5.172413793103448 279.8103448275862M67.24137931034484 279.8103448275862 L71.91379310344828 279.8103448275862 L71.91379310344828 284.4827586206897 L71.91379310344828 289.15517241379314 L67.24137931034483 289.15517241379314 L62.56896551724138 289.15517241379314 L62.56896551724138 284.48275862068965 L62.56896551724138 279.8103448275862 L67.24137931034484 279.8103448275862M98.27586206896551 279.8103448275862 L102.94827586206895 284.48275862068965 L98.27586206896551 289.15517241379314 L93.60344827586206 284.48275862068965 ZM118.96551724137932 279.8103448275862 L123.63793103448276 284.48275862068965 L118.96551724137932 289.15517241379314 L114.29310344827587 284.48275862068965 ZM150.00000000000003 279.8103448275862 L154.67241379310346 284.48275862068965 L150.00000000000003 289.15517241379314 L145.32758620689657 284.48275862068965 ZM191.3793103448276 279.8103448275862 L196.05172413793102 284.48275862068965 L191.3793103448276 289.15517241379314 L186.70689655172413 284.48275862068965 ZM232.7586206896552 279.8103448275862 L237.43103448275863 284.48275862068965 L232.7586206896552 289.15517241379314 L228.08620689655174 284.48275862068965 ZM253.44827586206898 279.8103448275862 L258.12068965517244 284.48275862068965 L253.44827586206898 289.15517241379314 L248.77586206896552 284.48275862068965 ZM263.7931034482759 279.8103448275862 L268.46551724137936 284.48275862068965 L263.7931034482759 289.15517241379314 L259.12068965517244 284.48275862068965 ZM284.48275862068965 279.8103448275862 L289.15517241379314 284.48275862068965 L284.48275862068965 289.15517241379314 L279.8103448275862 284.48275862068965 ZM5.172413793103448 290.15517241379314 L9.844827586206897 290.15517241379314 L9.844827586206897 294.8275862068966 L9.844827586206897 299.50000000000006 L5.172413793103448 299.50000000000006 L5.172413793103448 299.50000000000006 Q0.5 299.50000000000006 0.5 294.82758620689657 L0.5 290.15517241379314 L5.172413793103448 290.15517241379314M15.517241379310345 290.15517241379314 L20.189655172413794 290.15517241379314 L20.189655172413794 294.8275862068966 L20.189655172413794 299.50000000000006 L15.517241379310345 299.50000000000006 L10.844827586206897 299.50000000000006 L10.844827586206897 294.82758620689657 L10.844827586206897 290.15517241379314 L15.517241379310345 290.15517241379314M25.862068965517242 290.15517241379314 L30.53448275862069 290.15517241379314 L30.53448275862069 294.8275862068966 L30.53448275862069 299.50000000000006 L25.862068965517242 299.50000000000006 L21.189655172413794 299.50000000000006 L21.189655172413794 294.82758620689657 L21.189655172413794 290.15517241379314 L25.862068965517242 290.15517241379314M36.20689655172414 290.15517241379314 L40.87931034482759 290.15517241379314 L40.87931034482759 294.8275862068966 L40.87931034482759 299.50000000000006 L36.20689655172414 299.50000000000006 L31.53448275862069 299.50000000000006 L31.53448275862069 294.82758620689657 L31.53448275862069 290.15517241379314 L36.20689655172414 290.15517241379314M46.55172413793103 290.15517241379314 L51.224137931034484 290.15517241379314 L51.224137931034484 294.8275862068966 L51.224137931034484 299.50000000000006 L46.55172413793103 299.50000000000006 L41.87931034482759 299.50000000000006 L41.87931034482759 294.82758620689657 L41.87931034482759 290.15517241379314 L46.55172413793103 290.15517241379314M56.896551724137936 290.15517241379314 L61.56896551724138 290.15517241379314 L61.56896551724138 294.8275862068966 L61.56896551724138 299.50000000000006 L56.896551724137936 299.50000000000006 L52.224137931034484 299.50000000000006 L52.224137931034484 294.82758620689657 L52.224137931034484 290.15517241379314 L56.896551724137936 290.15517241379314M67.24137931034484 290.15517241379314 L71.91379310344828 290.15517241379314 L71.91379310344828 294.8275862068966 L71.91379310344828 294.8275862068966 Q71.91379310344828 299.50000000000006 67.24137931034483 299.50000000000006 L62.56896551724138 299.50000000000006 L62.56896551724138 294.82758620689657 L62.56896551724138 290.15517241379314 L67.24137931034484 290.15517241379314M98.27586206896551 290.15517241379314 L102.94827586206895 294.82758620689657 L98.27586206896551 299.50000000000006 L93.60344827586206 294.82758620689657 ZM118.96551724137932 290.15517241379314 L123.63793103448276 294.82758620689657 L118.96551724137932 299.50000000000006 L114.29310344827587 294.82758620689657 ZM129.31034482758622 290.15517241379314 L133.98275862068965 294.82758620689657 L129.31034482758622 299.50000000000006 L124.63793103448276 294.82758620689657 ZM150.00000000000003 290.15517241379314 L154.67241379310346 294.82758620689657 L150.00000000000003 299.50000000000006 L145.32758620689657 294.82758620689657 ZM181.0344827586207 290.15517241379314 L185.70689655172413 294.82758620689657 L181.0344827586207 299.50000000000006 L176.36206896551724 294.82758620689657 ZM191.3793103448276 290.15517241379314 L196.05172413793102 294.82758620689657 L191.3793103448276 299.50000000000006 L186.70689655172413 294.82758620689657 ZM232.7586206896552 290.15517241379314 L237.43103448275863 294.82758620689657 L232.7586206896552 299.50000000000006 L228.08620689655174 294.82758620689657 ZM253.44827586206898 290.15517241379314 L258.12068965517244 294.82758620689657 L253.44827586206898 299.50000000000006 L248.77586206896552 294.82758620689657 ZM274.13793103448273 290.15517241379314 L278.8103448275862 294.82758620689657 L274.13793103448273 299.50000000000006 L269.4655172413793 294.82758620689657 Z"/></svg>